<svg xmlns="http://www.w3.org/2000/svg" width="36.001" height="36.001"><path d="M36 8l-2 26-26 2z" fill="#9b1010"/><path d="M22 22l12 12 2-26z" fill="#b71c1c"/><path d="M33.997 2.005C29.442-2.55 18.587.919 9.755 9.755.919 18.587-2.55 29.442 2.005 33.997c4.554 4.555 15.41 1.086 24.242-7.75 8.836-8.832 12.305-19.688 7.75-24.242z" fill="#c62828"/><path d="M4 11l7-7 8-4 6 4-3 9-9 8-9 3-4-6z" fill="#e53935"/><path d="M25 4l-6-4h11zm11 5L25 4l-3 9zM13 21l13.235 5.235-4.234-13.234zm-9 3l4 12 5-15zm-4-6v11l4-5z" fill="#ff5252"/></svg>