<svg xmlns="http://www.w3.org/2000/svg" width="682.667" height="682.667"><path d="M322 681.872c-73.298-5.541-135.04-28.88-191.333-72.329-14.582-11.253-46.29-42.962-57.544-57.543-39-50.531-62.638-107.915-70.577-171.333-2.149-17.165-2.149-61.502 0-78.667 7.939-63.418 31.577-120.802 70.577-171.333 11.254-14.582 42.962-46.29 57.544-57.544 50.53-39 107.915-62.638 171.333-70.577 17.165-2.149 61.502-2.149 78.667 0C444.085 10.485 501.469 34.123 552 73.123c14.581 11.254 46.29 42.962 57.543 57.544 34.628 44.866 57.083 94.83 67.114 149.333 3.889 21.133 5.16 36.24 5.16 61.333 0 38.985-4.638 69.201-16.037 104.488-17.134 53.04-43.565 96.029-83.748 136.211-54.876 54.876-119.941 87.025-196.94 97.31-14.649 1.956-51.26 3.424-63.092 2.53z" fill="#c00"/><path d="M379.187 528.333c-21.024-54.73-32.564-111.604-32.494-160.14.081-56.876 16.098-99.143 50.597-133.526 27.01-26.918 60.31-42.714 90.71-43.029 19.872-.206 38.83 6.063 51.73 17.107 3.152 2.698 5.905 4.684 6.118 4.413.212-.27 2.347-3.392 4.744-6.937l4.358-6.446-3.808-4.012c-6.011-6.331-23.546-19.129-37.312-27.23-16.512-9.718-34.176-17.006-52.042-21.473-12.63-3.157-17.065-3.612-35.121-3.6-22.937.016-38.918 2.91-61.334 11.105-41.52 15.18-82.243 51.28-109.474 97.049-9.928 16.687-35.593 67.618-43.194 85.72-25.047 59.644-39.332 124.65-39.332 178.991v21.008h209.311zM416 500.644c0-.378-3.305-7.278-7.344-15.333l-7.345-14.644H383.9c-16.775 0-17.384.097-16.656 2.666a193.061 193.061 0 011.337 5c.32 1.284 1.838 6.66 3.375 11.949l2.794 9.615 11.626.444c23.99.916 29.625.974 29.625.303zm-249.328-24.977c.003-.184 1.503-8.703 3.334-18.931 1.83-10.23 3.327-19.297 3.327-20.152 0-1.03-4.83-1.858-14.333-2.457-7.883-.497-17.08-1.243-20.439-1.657l-6.106-.753-2.378 19.546c-1.309 10.75-2.133 19.792-1.833 20.093 1.322 1.321 38.408 5.482 38.428 4.31zM388.833 410.5c-.458-2.292-.833-7.938-.833-12.548v-8.382l-15-7.958-15-7.958-1.05 4.84c-.578 2.661-.878 9.012-.667 14.112l.384 9.272 14.666 6.354c17.744 7.686 18.606 7.798 17.5 2.268zm-186.27-79.353c3.03-8.536 5.342-15.614 5.14-15.728-1.438-.808-32.763-12.712-34.276-13.025-1.336-.276-3.633 4.359-7.676 15.485-3.173 8.734-5.43 16.234-5.015 16.667.64.668 32.952 11.59 35.459 11.985.473.074 3.34-6.848 6.369-15.384zM385.849 343c1.368-4.598 4.819-20.533 4.819-22.255 0-1.428-14.524-13.355-20.957-17.21-1.751-1.049-11.592 16.82-10.714 19.454.534 1.6 23.821 22.136 25.247 22.263.501.045 1.223-.969 1.605-2.252zm24.691-72.98c2.27-4.022 4.128-8.077 4.128-9.012 0-.934-3.352-6.705-7.45-12.825l-7.449-11.126-4.217 3.788c-2.32 2.083-6.141 5.538-8.493 7.676l-4.274 3.889 11.439 12.462c6.291 6.854 11.608 12.461 11.814 12.461.206 0 2.232-3.29 4.502-7.313zM251.873 237c2.085-2.383 6.85-8.002 10.59-12.487l6.8-8.153-13.402-8.923c-7.371-4.908-13.852-8.739-14.401-8.514-1.358.558-21.472 22.823-21.415 23.707.055.847 25.511 18.345 26.996 18.556.572.08 2.747-1.803 4.832-4.186zm198.794-11.455c3.3-2.59 6.119-4.765 6.265-4.836.338-.164-2.529-11.877-3.069-12.535-.58-.706-19.652 3.976-20.941 5.141-1.619 1.463 8.348 18.866 10.202 17.814.848-.482 4.243-2.994 7.543-5.584zm69.08-13.132c-.44-5.24-1.47-5.78-16.82-8.832l-4.405-.877.406 6.315.405 6.314 6.667.79c14.484 1.718 14.21 1.792 13.747-3.71zm9.557-50.078c.016-.55-5.52-5.128-12.304-10.174-8.103-6.028-12.67-8.658-13.313-7.668-.539.829-.989 4.006-1 7.06l-.02 5.553 11 6.043 11 6.042 2.303-2.929c1.267-1.61 2.317-3.378 2.334-3.927zm-192.98-3.002c6.411-3.666 11.511-7.072 11.333-7.568-.178-.495-4.421-5.451-9.429-11.012l-9.105-10.112-10.383 5.402c-17.135 8.915-16.633 7.296-6.157 19.856 4.999 5.994 9.763 10.719 10.586 10.5.824-.22 6.743-3.399 13.155-7.066zM431.549 137c-.411-2.383-1.134-7.104-1.607-10.49l-.858-6.156-8.071-.844c-13.997-1.463-26.714-1.06-25.998.823.349.917 1.41 6.017 2.356 11.334l1.723 9.666h33.203z" fill="#fff"/></svg>