<svg xmlns="http://www.w3.org/2000/svg" width="3269.719" height="2223.94"><path d="M2438.707 714.094l309.136 435.73 384.284-104.504-333.394-416.26zM128.723 185.646l778.596 1464.67 645.083-175.42L730.72 104.636zM1707.106 1537.15l345.033 575.395 1005.495-352.089-351.221-495.053zm322.97 686.79c-17.29 0-33.873-8.94-43.178-24.45l-380.713-634.896-711.235 193.403c-22.692 6.195-46.608-4.182-57.65-24.94L5.885 169.03a50.335 50.335 0 0137.733-73.51L750.135.45a50.35 50.35 0 0149.879 23.997l853.303 1423.007 991.054-269.5-330.992-466.547a50.338 50.338 0 01-6.04-46.897 50.315 50.315 0 0135.52-31.212l463.706-109.518c18.917-4.477 38.698 2.355 50.854 17.52l401.26 500.99a50.35 50.35 0 018.563 47.054 50.32 50.32 0 01-34.647 32.976l-422.71 114.952 368.533 519.464a50.345 50.345 0 016.915 44.407 50.368 50.368 0 01-31.327 32.222l-1107.307 387.742a50.203 50.203 0 01-16.624 2.833" fill="#f05440"/></svg>