<svg xmlns="http://www.w3.org/2000/svg" width="93.196" height="111.956"><path d="M87.254 14.813c-10.4-14.88-30.94-19.29-45.79-9.83l-26.08 16.62a29.9 29.9 0 00-13.52 20 31.53 31.53 0 003.1 20.24 29.94 29.94 0 00-4.47 11.18 31.86 31.86 0 005.45 24.12c10.4 14.88 30.94 19.29 45.79 9.83l26.08-16.55a30 30 0 0013.52-20 31.52 31.52 0 00-3.11-20.23 30.13 30.13 0 004.48-11.18 31.9 31.9 0 00-5.45-24.12" fill="#ff3e00"/><path d="M38.914 98.583a20.73 20.73 0 01-22.24-8.25 19.14 19.14 0 01-3.27-14.5 17 17 0 01.62-2.41l.49-1.5 1.34 1a33.78 33.78 0 0010.17 5.06l1 .29-.09 1a5.9 5.9 0 001.09 3.85 6.25 6.25 0 006.7 2.48 5.85 5.85 0 001.6-.7l26.04-16.62a5.42 5.42 0 002.45-3.64 5.77 5.77 0 00-1-4.37 6.25 6.25 0 00-6.7-2.48 5.72 5.72 0 00-1.6.7l-10 6.35a19.1 19.1 0 01-5.29 2.32 20.72 20.72 0 01-22.2-8.24 19.16 19.16 0 01-3.25-14.5 18 18 0 018.13-12.06l26.12-16.62a19.05 19.05 0 015.26-2.32 20.71 20.71 0 0122.23 8.25 19.14 19.14 0 013.28 14.5 20.15 20.15 0 01-.62 2.43l-.5 1.5-1.33-1a33.78 33.78 0 00-10.2-5.1l-1-.29.09-1a5.86 5.86 0 00-1.06-3.88 6.23 6.23 0 00-6.66-2.41 5.72 5.72 0 00-1.6.7l-26.09 16.59a5.45 5.45 0 00-2.45 3.63 5.84 5.84 0 001 4.38 6.25 6.25 0 006.65 2.48 6 6 0 001.6-.7l10-6.34a18.61 18.61 0 015.3-2.33 20.7 20.7 0 0122.23 8.24 19.16 19.16 0 013.28 14.5 18 18 0 01-8.13 12.06l-26.09 16.62a19.18 19.18 0 01-5.3 2.33" fill="#fff"/></svg>