<svg xmlns="http://www.w3.org/2000/svg" width="250mm" height="250mm" viewBox="0 0 250 250"><path fill="none" d="M0 0h250v250H0z"/><g fill="#2f2f2f"><path d="M61.144 132.294V62.11H58.1v70.185zm105.046 34.269v-48.556h-3.046v48.556z"/><path d="M66.139 45.625l-8.04 16.484 108.09 58.248 5.627-20.347zM191.9 132.294V62.11h-3.045v70.185zM86.856 166.563v-48.556H83.81v48.556z"/><path d="M78.184 100.01l5.626 20.347L191.9 62.109l-8.04-16.484z"/></g><path d="M58.1 172.676q.54-.019 2.05-.019 1.53 0 2.071.02 1.921.036 3.022 1.025 1.1.989 1.1 2.742 0 1.25-.56 2.22-.559.95-1.585 1.473-1.007.522-2.294.522h-1.212v4.44h-2.593zm3.692 5.782q.914 0 1.418-.522.522-.522.522-1.418 0-1.64-1.81-1.64h-1.23v3.58zm11.875 6.882q-1.548 0-2.723-.652-1.176-.653-1.828-1.828-.634-1.194-.634-2.742v-7.442h2.723v7.237q0 1.38.653 2.201.671.802 1.809.802t1.809-.802q.671-.82.671-2.2v-7.238h2.705v7.442q0 1.548-.653 2.742-.634 1.175-1.81 1.828-1.174.653-2.722.653zm7.783-12.664q.541-.019 2.052-.019 1.53 0 2.07.02 1.922.036 3.022 1.025 1.1.989 1.1 2.742 0 1.25-.56 2.22-.559.95-1.584 1.473-1.008.522-2.295.522h-1.212v4.44H81.45zm3.693 5.782q.914 0 1.418-.522.522-.522.522-1.418 0-1.64-1.809-1.64h-1.231v3.58zm6.507-5.782q.541-.019 2.052-.019 1.53 0 2.07.02 1.922.036 3.022 1.025 1.1.989 1.1 2.742 0 1.25-.559 2.22-.56.95-1.585 1.473-1.007.522-2.294.522h-1.213v4.44h-2.592zm3.694 5.782q.914 0 1.417-.522.522-.522.522-1.418 0-1.64-1.809-1.64h-1.23v3.58zm6.506-5.782h7.555v2.35h-4.887v2.481h4.047v2.275h-4.047v2.966h4.887v2.35h-7.554zm12.704 2.35h-3.395v-2.35h9.475v2.35h-3.357v10.072h-2.723zm10.676 1.306l-.784 8.766h-2.406l1.175-12.422h3.357l3.171 8.916 3.078-8.916h3.357l1.138 12.422h-2.425l-.858-8.729-3.283 8.86-2.22.205zm17.628-3.656h3.246l4.607 12.422h-2.798l-1.007-2.835h-4.887l-.951 2.835h-2.76zm3.246 7.274l-1.679-4.756-1.623 4.756zm9.339 5.39q-1.082 0-2.07-.242-.97-.242-1.68-.653l.224-2.499q.84.522 1.754.82.932.28 1.716.28.895 0 1.454-.372.56-.374.56-.989 0-.504-.373-.765-.373-.28-1.175-.597l-.448-.186q-.093-.037-.205-.075-.112-.056-.261-.112-1.045-.429-1.679-.802-.634-.391-1.1-1.081-.448-.69-.448-1.791 0-1.79 1.213-2.816 1.212-1.026 3.376-1.026 1.64 0 3.357.671l-.41 2.462q-.69-.392-1.493-.615-.783-.224-1.492-.224-.876 0-1.361.354-.485.336-.485.914 0 .504.335.784.336.28 1.082.596l.765.299q1.082.41 1.79.802.71.392 1.213 1.138.503.727.503 1.902 0 1.81-1.23 2.817-1.232 1.007-3.432 1.007zm9.457-10.314h-3.395v-2.35h9.475v2.35h-3.358v10.072H164.9zm7.952-2.35h7.554v2.35h-4.887v2.481h4.047v2.275h-4.047v2.966h4.887v2.35h-7.554zm9.798 0q.559-.019 2.088-.019 1.549 0 2.108.02 2.126.074 3.17 1.044 1.045.95 1.045 2.574 0 1.38-.708 2.35-.69.951-1.94 1.25.392.316.802.876.41.54 1.138 1.697.764 1.213 1.548 2.63h-3.134l-2.107-3.917q-.336-.615-.616-.764-.261-.168-.802-.168v4.85h-2.593zm3.748 5.502q.952 0 1.493-.485.56-.484.56-1.305 0-.746-.486-1.138-.485-.392-1.417-.392h-1.306v3.32zm-7.046 22.511h9.176q-.052-3.06-.34-5.857-.104-.862-.601-1.307-.47-.47-1.281-.47h-2.144l-.497 2.065 2.066 1.072q-.47 1.386-1.203 2.98l-4.523-2.326v-.785l1.438-6.196q.889-.026 2.693-.026 1.778 0 2.667.026 2.143.052 3.32 1.124 1.176 1.046 1.412 3.164.157 1.411.261 3.79.105 2.38.105 4.706v1.23h-12.55zm-9.569-3.242q-.653.366-.967.915-.314.523-.418 1.464-.053.444-.131 1.62l-.078 1.753-.027.732q-1.36.078-2.77.078h-.916q.026-2.248.157-3.843.13-1.673.732-2.771.627-1.125 1.908-1.83-1.699-2.354-2.875-4.497 1.438-.89 3.32-1.778 2.248 3.738 3.87 5.987.836-.21 1.202-.575.392-.366.497-1.124.13-.837.34-3.765 1.176-.079 2.3-.079l1.49.026-.235 3.138q-.13 1.751-.915 2.771-.784 1.02-2.353 1.595l3.53 5.569q-1.987 1.045-3.373 1.542zm-20.433 3.242h9.176q-.052-3.06-.34-5.857-.105-.862-.601-1.307-.47-.47-1.281-.47h-2.144l-.497 2.065 2.065 1.072q-.47 1.386-1.202 2.98l-4.523-2.326v-.785l1.438-6.196q.889-.026 2.693-.026 1.777 0 2.666.026 2.144.052 3.32 1.124 1.177 1.046 1.412 3.164.157 1.411.262 3.79.104 2.38.104 4.706v1.23H149.35zm-12.31 3.346q-.6 0-1.646-.052l-.654-12.314v-1.595l3.425-.235.627 10.745q1.543 0 2.746-.653 1.202-.68 1.882-1.883.68-1.202.68-2.771 0-2.353-1.857-2.353-.6 0-1.568.34l-.837-2.798q.654-.392 1.517-.627.888-.262 1.777-.262 2.092 0 3.294 1.386 1.203 1.36 1.203 3.817 0 2.562-1.281 4.785-1.255 2.196-3.373 3.268-1.124.575-2.666.888-1.517.314-3.268.314zm-16.723-10.875l-2.588-.55.68-3.137 2.091.392h5.935q2.483 0 3.843 1.36 1.386 1.359 1.386 3.817v8.836h-7.112v-3.268h3.53v-5.255q0-1.072-.601-1.673-.576-.601-1.621-.601h-1.883l-2.274 10.876h-3.739zm-12.554 4.287q-.653.366-.967.915-.314.523-.418 1.464-.052.444-.13 1.62l-.08 1.753-.025.732q-1.36.078-2.772.078h-.915q.026-2.248.157-3.843.13-1.673.732-2.771.628-1.125 1.909-1.83-1.7-2.354-2.876-4.497 1.438-.89 3.32-1.778 2.248 3.738 3.87 5.987.836-.21 1.202-.575.392-.366.497-1.124.13-.837.34-3.765 1.176-.079 2.3-.079l1.49.026-.235 3.138q-.13 1.751-.915 2.771-.784 1.02-2.353 1.595l3.53 5.569q-1.987 1.045-3.373 1.542zm-18.643 6.64q-.627 0-.967-.026l-.34-10.928h-1.856v-3.268h9.7q2.274 0 3.503 1.255 1.255 1.229 1.255 3.582 0 2.039-.863 3.843-.863 1.778-2.432 3.085-3.085 2.457-8 2.457zm2.406-3.503q2.326-.209 3.79-1.725 1.464-1.517 1.464-3.791 0-1.046-.496-1.49-.497-.445-1.438-.445h-3.608zm-17.956 3.451q-.601 0-1.647-.052l-.654-12.314v-1.595l3.425-.235.628 10.745q1.542 0 2.745-.653 1.202-.68 1.882-1.883.68-1.202.68-2.771 0-2.353-1.856-2.353-.602 0-1.57.34l-.836-2.798q.654-.392 1.517-.627.889-.262 1.777-.262 2.092 0 3.295 1.386 1.202 1.36 1.202 3.817 0 2.562-1.28 4.785-1.256 2.196-3.373 3.268-1.125.575-2.667.888-1.516.314-3.268.314zm-8.987-9.229q0-.758-.418-1.202-.419-.47-1.15-.47h-4.916v-3.269h5.673q2.066 0 3.216 1.177 1.177 1.176 1.177 3.268v9.464l-3.582.235z" style="line-height:14.70911598px;-inkscape-font-specification:'Secular One'" fill="#2f2f2f" font-weight="400" font-family="Secular One" letter-spacing="0" word-spacing="0"/></svg>