<?xml version="1.0" encoding="UTF-8" standalone="no"?>
<svg
   xmlns:dc="http://purl.org/dc/elements/1.1/"
   xmlns:cc="http://creativecommons.org/ns#"
   xmlns:rdf="http://www.w3.org/1999/02/22-rdf-syntax-ns#"
   xmlns:svg="http://www.w3.org/2000/svg"
   xmlns="http://www.w3.org/2000/svg"
   xmlns:sodipodi="http://sodipodi.sourceforge.net/DTD/sodipodi-0.dtd"
   xmlns:inkscape="http://www.inkscape.org/namespaces/inkscape"
   sodipodi:docname="down.svg"
   inkscape:version="1.0beta1 (fe3e306, 2019-09-17)"
   id="svg8"
   version="1.1"
   viewBox="0 0 22.000021 12.624158"
   height="12.624158mm"
   width="22.000021mm">
  <defs
     id="defs2" />
  <sodipodi:namedview
     fit-margin-bottom="0"
     fit-margin-right="0"
     fit-margin-left="0"
     fit-margin-top="0"
     inkscape:window-maximized="1"
     inkscape:window-y="32"
     inkscape:window-x="1920"
     inkscape:window-height="1018"
     inkscape:window-width="1880"
     showgrid="false"
     inkscape:document-rotation="0"
     inkscape:current-layer="layer1"
     inkscape:document-units="mm"
     inkscape:cy="16.972265"
     inkscape:cx="42.734661"
     inkscape:zoom="3.959798"
     inkscape:pageshadow="2"
     inkscape:pageopacity="0.0"
     borderopacity="1.0"
     bordercolor="#666666"
     pagecolor="#ffffff"
     id="base" />
  <metadata
     id="metadata5">
    <rdf:RDF>
      <cc:Work
         rdf:about="">
        <dc:format>image/svg+xml</dc:format>
        <dc:type
           rdf:resource="http://purl.org/dc/dcmitype/StillImage" />
        <dc:title></dc:title>
      </cc:Work>
    </rdf:RDF>
  </metadata>
  <g
     transform="translate(487.07551,-13.351102)"
     id="layer1"
     inkscape:groupmode="layer"
     inkscape:label="Layer 1">
    <path
       inkscape:connector-curvature="0"
       d="m -465.07549,14.929349 c -6.9e-4,-0.61518 -0.36331,-1.199471 -0.96556,-1.453632 -0.80299,-0.33878 -1.72885,0.03766 -2.06847,0.841034 -0.33869,0.803269 0.0381,1.729217 0.84115,2.067997 0.80392,0.338877 1.72978,-0.03766 2.06847,-0.841033 0.0847,-0.200816 0.12465,-0.409304 0.12441,-0.614366 z m -3.2098,3.15219 c 0,-0.871904 -0.70669,-1.578628 -1.57886,-1.578628 -0.87127,0 -1.57886,0.706724 -1.57886,1.578628 0,0.871808 0.70759,1.578508 1.57886,1.578508 0.87217,0 1.57886,-0.7067 1.57886,-1.578508 z m -3.11013,-2.328715 c -4.6e-4,-0.615168 -0.36276,-1.199495 -0.96532,-1.453632 -0.80342,-0.33884 -1.72904,0.03768 -2.06788,0.840913 -0.33885,0.80342 0.0375,1.729369 0.84091,2.068125 0.80342,0.33884 1.72892,-0.0377 2.06777,-0.841034 0.0847,-0.200809 0.1247,-0.40931 0.12452,-0.614372 z m -0.097,5.488559 c -6.8e-4,-0.615174 -0.36339,-1.199471 -0.96555,-1.453632 -0.80378,-0.338707 -1.72962,0.0377 -2.06824,0.841028 -0.33862,0.803329 0.0383,1.729121 0.84115,2.068004 0.80288,0.338798 1.72974,-0.0377 2.06836,-0.841034 0.0847,-0.20081 0.12455,-0.40931 0.12428,-0.614366 z m -3.16338,-3.14547 c -4.5e-4,-0.615174 -0.36301,-1.199514 -0.96579,-1.453638 -0.80283,-0.338829 -1.72855,0.03777 -2.06764,0.841033 -0.33909,0.803353 0.0374,1.729176 0.84114,2.068004 0.80284,0.338913 1.72943,-0.03768 2.06765,-0.841033 0.0848,-0.200816 0.12482,-0.40931 0.12464,-0.614366 z m -0.0451,6.300718 c 0,-0.871753 -0.70654,-1.578743 -1.57839,-1.578743 -0.87184,0 -1.57921,0.70699 -1.57921,1.578743 0,0.87176 0.70737,1.578629 1.57921,1.578629 0.87185,0 1.57839,-0.706869 1.57839,-1.578629 z m -3.15749,-8.644042 c -4.5e-4,-0.615156 -0.36294,-1.199604 -0.96555,-1.453746 -0.80348,-0.338775 -1.72877,0.0378 -2.06788,0.841027 -0.33827,0.803395 0.0374,1.729266 0.84091,2.068119 0.80348,0.338774 1.72962,-0.03775 2.06788,-0.841149 0.0848,-0.200803 0.12482,-0.409195 0.12464,-0.614251 z m -4.5e-4,5.486086 c 0,-0.871826 -0.70699,-1.578628 -1.57898,-1.578628 -0.87115,0 -1.57804,0.706802 -1.57804,1.578628 0,0.871826 0.70689,1.578857 1.57804,1.578857 0.87199,0 1.57898,-0.707031 1.57898,-1.578857 z m -3.15667,-3.1569 c 0,-0.87185 -0.70664,-1.578508 -1.57874,-1.578508 -0.87127,0 -1.57874,0.706658 -1.57874,1.578508 0,0.871849 0.70747,1.578622 1.57874,1.578622 0.8721,6e-6 1.57874,-0.706773 1.57874,-1.578622 z m -2.90172,-3.15254 c -4.6e-4,-0.61518 -0.36296,-1.199453 -0.96556,-1.453638 -0.80347,-0.338823 -1.72913,0.03773 -2.06812,0.841033 -0.33899,0.803305 0.0375,1.72926 0.84092,2.068004 0.80347,0.338901 1.72924,-0.03773 2.06823,-0.841033 0.0847,-0.200828 0.1247,-0.40931 0.12453,-0.614366 z"
       style="opacity:1;fill:#006314;fill-opacity:1;fill-rule:nonzero;stroke:none;stroke-width:0.00909464;stop-opacity:1"
       id="path1027" />
  </g>
</svg>
