<?xml version="1.0" encoding="UTF-8" standalone="no"?>
<svg
   xmlns:dc="http://purl.org/dc/elements/1.1/"
   xmlns:cc="http://creativecommons.org/ns#"
   xmlns:rdf="http://www.w3.org/1999/02/22-rdf-syntax-ns#"
   xmlns:svg="http://www.w3.org/2000/svg"
   xmlns="http://www.w3.org/2000/svg"
   xmlns:sodipodi="http://sodipodi.sourceforge.net/DTD/sodipodi-0.dtd"
   xmlns:inkscape="http://www.inkscape.org/namespaces/inkscape"
   fill="#000000"
   height="24"
   viewBox="0 0 24 24"
   width="24"
   version="1.1"
   id="svg6"
   sodipodi:docname="100.svg"
   inkscape:version="0.92.4 (unknown)">
  <metadata
     id="metadata12">
    <rdf:RDF>
      <cc:Work
         rdf:about="">
        <dc:format>image/svg+xml</dc:format>
        <dc:type
           rdf:resource="http://purl.org/dc/dcmitype/StillImage" />
        <dc:title />
      </cc:Work>
    </rdf:RDF>
  </metadata>
  <defs
     id="defs10" />
  <sodipodi:namedview
     pagecolor="#ffffff"
     bordercolor="#666666"
     borderopacity="1"
     objecttolerance="10"
     gridtolerance="10"
     guidetolerance="10"
     inkscape:pageopacity="0"
     inkscape:pageshadow="2"
     inkscape:window-width="1880"
     inkscape:window-height="1018"
     id="namedview8"
     showgrid="false"
     inkscape:zoom="13.906434"
     inkscape:cx="7.8587809"
     inkscape:cy="8.7580248"
     inkscape:window-x="1920"
     inkscape:window-y="32"
     inkscape:window-maximized="1"
     inkscape:current-layer="svg6"
     inkscape:snap-bbox="true"
     inkscape:bbox-paths="true"
     inkscape:snap-page="true" />
  <path
     inkscape:connector-curvature="0"
     id="path899"
     style="fill:#000000;fill-opacity:1;fill-rule:nonzero;stroke:none;stroke-width:0.51665705"
     d="M 3.8856228,1.8839039 C 3.3147199,1.8818644 2.796004,2.0332178 2.4307183,2.4429262 0.99182972,4.0595471 3.443892,6.041443 3.5146745,6.1039584 c -0.097176,0.026345 -0.165847,0.044437 -0.2102841,0.05683 0.018115,-0.00828 0.028432,-0.014468 0.028432,-0.014468 0,0 -0.2381771,0.070782 -0.028432,0.014468 -0.2521297,0.1307138 -2.0723081,1.0958297 -2.1146815,1.7049684 0,0 0.9584072,0.1637799 1.3216175,0.492374 0,0 -1.77781687,0.9005323 -2.28052868,3.6429482 L 1.0522827,11.470472 c 0,0 -1.0493327,1.432691 -1.0493327,2.579153 0,0 1.4146066,-0.40971 1.8708179,0.204079 l -1.4146066,0.328595 2.2360916,0.900534 c 0,0 -1.0033481,0.163262 -1.1867589,0.778601 0,0 0.4562113,-0.122964 1.5520326,0.859718 1.0937579,0.983198 3.7395602,0.777052 3.7395602,0.777052 0,0 -0.7305474,0.409708 -0.5936373,0.942898 0,0 4.4261985,-1.51587 3.558213,1.925064 l 0.7992785,-0.478423 c 0.264523,1.051397 0.659765,1.788149 0.659765,1.788149 0,0 0.958923,-0.615339 2.190107,-0.409709 1.232756,0.20408 2.327029,0 2.327029,0 l -0.04439,0.450008 c 2.098666,-0.668037 1.681205,-2.726399 1.644518,-2.893795 l 0.1798,-0.09506 c 0,0 0.02015,-0.11883 0.05219,-0.306893 0.167911,-0.195296 0.609653,-0.58279 1.725629,-1.085497 1.64297,-0.736754 2.599818,-2.456188 2.599818,-2.456188 l -0.619982,-0.0341 c 0.02843,-0.0062 0.05687,-0.01241 0.0847,-0.0186 0.429865,-0.09041 0.859719,-0.165329 1.297851,-0.207695 0.220097,-0.02015 0.440183,-0.03617 0.66184,-0.04029 0.222161,-0.0062 0.444322,0.0041 0.674234,0.01395 -0.207693,-0.0868 -0.431929,-0.143113 -0.657702,-0.18548 -0.228363,-0.03617 -0.458275,-0.06046 -0.690262,-0.06458 -0.413837,-0.0062 -0.825612,0.03617 -1.227057,0.113144 0.324976,-0.36941 0.865923,-0.854034 1.390325,-0.722803 0,0 -0.0096,-0.05425 -0.02843,-0.143114 0.04235,-0.0062 0.0847,-0.01031 0.127612,-0.01395 l 0.169471,-0.01447 0.171522,-0.0078 c 0.227847,-0.01031 0.457758,-0.0083 0.692324,0.01395 -0.212347,-0.09713 -0.446386,-0.147247 -0.680436,-0.185479 l -0.177736,-0.02222 -0.179271,-0.01241 c -0.05687,-0.0062 -0.115172,-0.0062 -0.171534,-0.0078 -0.03467,-0.161712 -0.07702,-0.359593 -0.127097,-0.571422 0.04235,-0.01395 0.08265,-0.02842 0.125033,-0.04444 l 0.330663,-0.102814 0.163771,-0.05477 c 0.05626,-0.01395 0.113132,-0.02789 0.169471,-0.04392 0.111093,-0.03255 0.224224,-0.06303 0.336852,-0.101267 -0.11889,-0.0021 -0.238177,0 -0.357007,0.0041 -0.06047,0.0021 -0.119371,0.0062 -0.1798,0.0083 l -0.177724,0.02015 -0.354945,0.04805 c -0.04031,0.0083 -0.07858,0.01859 -0.11889,0.02634 -0.139501,-0.526474 -0.319289,-1.059664 -0.510977,-1.212594 0,0 0.274347,-0.286745 0.593636,0.04236 0,0 -0.5027,-2.622035 -1.322121,-3.1123418 0,0 0.181864,-0.2056305 0.774985,0.2443783 0,0 -0.351321,-0.976999 -0.944443,-1.3846402 0.04234,-0.672132 0.11516,-2.7284277 -0.652038,-3.9694371 C 19.573351,2.0615393 17.52067,4.3441301 17.52067,4.3441301 16.28741,2.8706242 13.41376,2.7476594 13.41376,2.7476594 c 0,0 -0.01236,0.1673971 0.01811,0.3874934 -0.49651,-0.1410479 -3.422851,-0.9020835 -5.6289739,0.1451797 0,0 -2.1994166,-1.3923903 -3.9172962,-1.3965233 z M 4.09953,2.8025205 c 0.026393,0 0.052667,0 0.0811,0 1.6708634,0.042361 4.7625476,2.2381574 4.7625476,2.2381574 L 10.632636,4.5901532 9.4923778,4.05748 C 10.594402,3.5831891 15.278428,3.2401279 16.761742,4.9921127 16.360297,5.0587557 15.928379,5.1920589 15.46803,5.4080212 15.38333,5.2581914 12.017286,3.6358873 10.3118,6.0636592 c 0,0 3.745762,-0.9583988 5.630521,0.6215389 -0.04859,-0.3347942 3.029683,-1.7054855 4.446353,2.5166362 -0.09298,-0.1167671 -0.393695,-0.4820421 -0.565216,-0.5166571 0,0 0.343054,0.510973 -0.250067,0.7367524 -0.593637,0.2262947 -1.277696,1.0860134 -1.277696,1.0860134 0,0 -0.343055,0.223712 -0.61534,0.266077 l 0.728484,0.22423 c 0,0 0.528542,0.817352 0.670107,1.443022 0.01608,0.338928 0.05014,1.176429 0.02015,1.923 -0.03875,-0.04598 -0.07486,-0.07027 -0.07486,-0.07027 -1.727693,0.234046 -2.510427,-0.07285 -2.851432,-0.32911 -0.171521,-0.131232 -0.428306,-0.113144 -0.581231,0.03409 l -0.145705,0.139496 c -0.134847,0.129165 -0.153442,0.322911 -0.04654,0.470158 0.177724,0.246446 0.515104,0.585373 1.072055,0.710405 0.770858,0.173596 0.661841,0.403509 0.609138,0.472223 -0.518717,-0.0806 -1.156275,-0.04444 -1.886823,0.264529 0,0 -1.299915,0.675787 -1.848599,-0.593639 0,0 -1.071551,-2.129145 -1.868754,-1.555655 -0.799267,0.572974 -0.890192,0.920166 -0.890192,0.920166 0,0 0.222149,0.292428 0.355448,1.259095 -0.244368,0.424175 -0.404025,0.865917 -0.496498,1.310241 -0.369412,-0.738819 -1.4068681,-2.625651 -2.5047528,-2.85608 0,0 1.5520326,-0.0806 2.0082442,0.819419 L 9.6757884,14.873174 C 9.3931863,14.366334 8.8243468,14.039806 8.1924749,14.021207 l -2.0299466,-0.05425 c 0,0 2.3709383,-0.327045 2.6458024,-0.246447 0,0 -0.9728756,-0.528539 -2.914464,-0.679919 0.2965548,-0.07491 0.595185,-0.135365 0.8943311,-0.169465 l 0.2500662,-0.02634 0.2521178,-0.01395 c 0.082659,-0.0062 0.1653311,-0.0041 0.2505821,-0.0062 0.082659,-0.0021 0.1673946,-0.0041 0.2500661,0 0.3347894,0.0062 0.668031,0.02842 0.9986934,0.06872 0.3332417,0.03617 0.6644198,0.08887 0.9909551,0.155514 0.1074935,0.02014 0.2123355,0.0403 0.3192885,0.06251 0.0024,0.0056 0.006,0.01188 0.0072,0.01602 0,0 -0.0024,-0.0041 -0.0036,-0.01395 0.220098,0.04599 0.438132,0.09868 0.656154,0.15293 0.324976,0.08111 0.645825,0.173597 0.968737,0.266595 0.641685,0.193746 1.27976,0.407644 1.913179,0.639624 -0.565229,-0.352878 -1.178493,-0.63549 -1.812441,-0.877802 -0.593121,-0.223714 -1.210524,-0.407643 -1.8423964,-0.538875 -0.074863,-0.173595 -0.1937398,-0.391625 -0.3776663,-0.605521 0.048588,0.01447 0.097176,0.02634 0.145692,0.04029 0.3105067,0.08319 0.6153397,0.18393 0.9180967,0.288812 0.304834,0.100751 0.605527,0.21803 0.90622,0.333243 0.597249,0.236112 1.186759,0.492375 1.774195,0.76672 C 12.848573,13.191932 12.287471,12.866955 11.7021,12.582278 11.116729,12.2976 10.501389,12.061488 9.863842,11.878074 9.6075733,11.809354 9.3471777,11.744776 9.0847185,11.694144 8.7778223,11.496781 8.3820641,11.337134 7.8716142,11.264285 7.1493206,11.163534 6.8382974,10.846826 6.7675149,10.445383 c 0.1575811,-0.002 0.3151622,0.0016 0.4706677,0.01395 l 0.2480028,0.02016 0.2040816,0.03048 1.3985905,0.345127 c 0.029993,0.0098 0.060465,0.01808 0.088298,0.02997 0.3130866,0.104878 0.6199828,0.226295 0.9186135,0.36321 0.302757,0.131232 0.599324,0.274345 0.888141,0.427792 0.252117,0.127098 0.496497,0.266596 0.740361,0.405577 -0.125033,0.143629 -0.179272,0.248512 -0.179272,0.248512 0,0 0.100775,-0.09506 0.276399,-0.193747 0.0096,0.0041 0.01811,0.01031 0.0258,0.01395 0.569356,0.333245 1.124242,0.68457 1.673455,1.051398 -0.422116,-0.441741 -0.90622,-0.835435 -1.418746,-1.194511 0.591058,-0.213896 1.557719,-0.20563 2.454126,1.427007 0,0 -0.320849,-2.373522 -1.461107,-2.129145 -0.547143,0.118834 -0.92637,0.35908 -1.172825,0.577109 -0.244379,-0.165846 -0.500636,-0.320845 -0.758968,-0.470157 -0.292428,-0.167914 -0.597249,-0.317228 -0.906208,-0.456209 -0.579181,-0.254195 -1.194521,-0.462408 -1.834143,-0.57349 l -0.026393,-0.01808 -0.5652283,-0.05631 c -0.1978797,-0.01396 -0.3957588,-0.02016 -0.5915744,-0.01032 -0.1632557,0.01032 -0.3244478,0.02635 -0.4841044,0.05063 -0.086859,-1.0596632 1.2999148,-2.6256507 1.2999148,-2.6256507 0,0 -3.0575766,2.1089932 -2.8984479,3.8082787 0,0 0.0024,0.181863 0.793064,0.296561 -0.0096,0.004 -0.022194,0.0062 -0.032032,0.01031 0.018115,-0.0021 0.03827,-0.004 0.056266,-0.0062 0.1999546,0.02634 0.4479453,0.05063 0.756905,0.06665 1.2332593,0.06458 2.4220937,0.355461 3.0234811,0.811153 -0.6458244,-0.116767 -1.3081808,-0.17928 -1.9700093,-0.141047 -0.3472063,0.02015 -0.6943885,0.06251 -1.0312533,0.145181 -0.3125828,0.07905 -0.6174035,0.18393 -0.8979541,0.324978 -0.064544,-0.0041 -0.1291601,-0.0098 -0.1958037,-0.01395 -2.0991813,-0.121424 -1.2776963,-2.129154 -1.2776963,-2.129154 0,0 1.1867589,-2.1291436 2.6458024,-3.1526408 L 5.5686751,7.5794572 9.0039304,5.9907376 C 8.8117259,5.8093904 7.7179681,4.911441 5.2499019,5.6135772 4.74719,4.917124 5.1124638,3.6476972 5.1124638,3.6476972 4.2909788,4.0171075 4.2909788,4.7538599 4.2909788,4.7538599 4.063131,4.6308964 4.1540685,3.9747413 4.1540685,3.9747413 3.7097462,4.3100524 3.6131342,4.6768786 3.6250112,4.9558732 3.0845928,4.4107999 2.8464156,4.0940889 3.2519874,3.2622709 3.4090526,2.9414283 3.7118098,2.8081304 4.1013655,2.8024474 Z m 15.576688,1.2348092 c 0.0847,0.00204 0.163268,0.054767 0.187549,0.1332979 C 20.110211,4.9859127 19.80954,5.5025698 19.654,5.7732974 19.28046,5.4726036 18.826312,5.2060079 18.289517,5.0608281 18.735386,4.4408393 19.292853,4.1623617 19.58942,4.051797 19.61785,4.04148 19.64785,4.037329 19.67628,4.037329 Z M 7.3472357,6.0636592 c 0,0 -2.6845528,0.8075349 -3.6956511,2.7026324 L 5.5224025,8.3989483 c 0,0 -4.1048459,2.6618167 -2.0061804,5.2812687 2.097106,2.621519 3.4213028,2.458256 3.4213028,2.458256 L 5.7063291,14.909345 c 0,0 2.7548074,0.983199 3.9596578,3.02761 -0.643749,-0.299144 -1.4590316,-0.55334 -1.9534775,-0.242312 l 0.4556955,-0.656154 c 0,0 -2.0986655,0.36941 -3.6021341,-0.245929 C 3.0605266,16.178772 2.9231006,16.178772 2.9231006,16.178772 L 4.6564804,15.851728 2.6952529,14.826679 h 1.0493327 c 0,0 -1.0493327,-1.759734 -2.189603,-1.513806 0,0 0.1369222,-2.334772 1.0937698,-3.111825 0,0 -0.8700491,0.11108 -0.9909432,0.405575 0.08062,-0.264527 0.5631529,-1.6688014 2.0867764,-2.7408638 0,0 -0.7228093,-0.4763579 -1.0048957,-0.4903081 z m 7.7596713,1.3360751 c -0.218034,0.00204 -0.474291,0.016016 -0.774985,0.050627 0,0 1.618688,0.060453 0.605514,1.9374638 0,0 2.752757,-2.0082463 0.169471,-1.988096 z m 2.171512,0.1978791 c -0.639635,0.01808 -1.041068,0.4117756 0.470152,2.1188104 0,0 -1.17643,-1.7576671 0.672169,-1.9173141 0,0 -0.643749,-0.2138963 -1.142321,-0.2014963 z M 10.311812,7.9060585 C 9.6277523,8.0719043 8.8987524,8.9719219 8.8987524,8.9719219 L 9.811175,9.2183662 c -0.046549,1.3500248 1.04932,1.4729898 1.04932,1.4729898 C 10.404813,9.8316386 10.58616,9.3816304 10.58616,9.3816304 l 0.411774,0.040298 c 0.225772,1.0658626 1.184695,1.2291266 1.184695,1.2291266 l -0.593649,0.940316 c 2.601893,-2.0061784 2.78324,0.575556 2.78324,0.575556 0.365274,-0.615855 0.137426,-1.435273 0.137426,-1.435273 L 15.924253,10.56839 C 14.646569,10.610751 14.061701,9.9143017 14.061701,9.9143017 13.331153,9.2183651 12.646578,8.9316215 11.552821,8.685176 10.456988,8.4392463 10.311812,7.9060573 10.311812,7.9060585 Z m 1.109773,1.4352726 0.609653,0.080596 c 0.06047,0.6819869 0.942391,0.4381252 0.942391,0.4381252 l 0.274337,0.3270437 c 0,0 0.547149,0.108502 -0.63961,0.108502 -1.186771,0 -1.186771,-0.9542658 -1.186771,-0.9542669 z m 9.192885,0.6923199 c 0.06047,0.338927 0.08266,0.710403 -0.03827,0.94445 -0.169458,0.328593 -0.704202,0.752768 -1.087567,1.027113 L 19.048449,11.34751 c 0,0 1.368107,0.02016 1.11804,-1.188828 z m -0.570915,0.268146 c 0,0.962531 -1.025555,0.573489 -1.025555,0.573489 l 0.09094,-0.224229 c 0.569356,0.183413 0.638075,-0.327044 0.638075,-0.327044 z m -0.747079,4.500599 c 0.0589,0 0.12141,0.0062 0.177724,0.02634 l -0.171521,0.120898 c -0.173598,0.147247 -0.340993,0.295011 -0.498574,0.452074 0.211833,-0.09661 0.409712,-0.205629 0.609653,-0.310509 l 0.225773,-0.106954 c 0.03672,0.102815 0.0186,0.262462 -0.09861,0.506324 -0.258332,0.129165 -0.506322,0.274345 -0.736749,0.442259 0.199942,-0.06097 0.395758,-0.121415 0.591561,-0.179797 -0.113132,0.18548 -0.272789,0.405575 -0.48462,0.670104 l -0.365274,0.02222 c 0,0 -0.312583,-0.294493 -0.869533,-0.50064 0.231974,-0.340993 0.619467,-0.379226 0.619467,-0.379226 0.520791,-0.302761 0.756905,-0.553339 0.847831,-0.750702 0.04031,-0.0062 0.09454,-0.01241 0.152938,-0.01241 z m -6.245873,1.029182 c 0.455695,1.39084 1.368118,0.940833 1.368118,0.940833 l -0.433993,1.125796 c -0.47843,-0.223713 -0.343067,-0.900019 -0.343067,-0.900019 -0.637559,-0.349258 -0.591058,-1.16661 -0.591058,-1.16661 z m 4.629764,0.654087 0.661841,0.22578 c 0,0 -0.704202,1.02143 -0.80547,1.08808 0.209769,-0.579172 0.242317,-1.152663 0.143629,-1.31386 z m -2.452567,1.128379 0.04439,0.653572 1.162477,0.08268 c 0,0 0.524918,-0.450009 0.524918,-0.675787 0,0 0.274349,0.867466 -0.296555,1.584069 0,0 -2.244357,-0.827167 -4.046456,0.01241 0,0 1.24101,-0.819418 1.674991,-0.860234 0.433992,-0.04029 0.936188,-0.796686 0.936188,-0.796686 z m -4.044391,0.20563 c 0.208208,0.936182 0.559024,1.7618 1.021427,2.106928 0,0 2.623583,-1.168678 4.220053,-0.22578 0,0.492374 -0.547137,1.515356 -2.006168,1.105645 -1.461107,-0.409707 -2.280528,0.409711 -2.280528,0.409711 L 11.772919,19.946752 11.454133,20.52024 C 10.84448,19.425961 11.007747,18.38903 11.183409,17.819674 Z" />
  <path
     d="M0 0h24v24H0z"
     fill="none"
     id="path2" />
</svg>
