<svg xmlns="http://www.w3.org/2000/svg" width="24" height="24"><path d="M3.08 2L2 3.17l1.934 1.934a1.768 1.768 0 00-.167.739v10.811c0 .991.81 1.802 1.802 1.802h11.717L20.83 22 22 20.828zm6.993.24l-1.649 1.8H7.386l3.27 3.255a4.452 4.452 0 012.12-.552 4.506 4.506 0 014.505 4.505 4.45 4.45 0 01-.542 2.1l4.554 4.533a1.79 1.79 0 00.492-1.228V5.843c0-.991-.81-1.802-1.802-1.802h-2.855l-1.65-1.802zm2.703 6.126c-.306.001-.61.05-.9.146l3.64 3.62c.093-.285.141-.583.142-.883a2.883 2.883 0 00-2.882-2.883zM8.553 9.723L9.9 11.071a2.883 2.883 0 002.875 3.06c.059-.001.117-.004.176-.009l1.35 1.35a4.363 4.363 0 01-1.526.281 4.506 4.506 0 01-4.505-4.504c0-.539.105-1.05.282-1.526z"/><path d="M0 0h24v24H0z" fill="none"/></svg>