<svg xmlns="http://www.w3.org/2000/svg" fill="#120000" height="24" width="24"><path d="M0 0h24v24H0z" fill="none"/><path d="M9.566 11.343l-.648-.74-2.984 3.41-1.297-1.482-.648.741 1.945 2.223z"/><path d="M3.4 5.709c-.777 0-1.392.63-1.392 1.398L2 16.893c0 .769.622 1.398 1.398 1.398h6.76c.768 0 1.397-.63 1.397-1.398V7.107c0-.768-.628-1.397-1.397-1.398zm0 3.495h6.758v7.689H3.4zm10.983 1.398V12h5.68v-1.398zm0 2.796v1.398h3.975v-1.398z"/><path d="M13.844 5.709c-.776 0-1.391.63-1.391 1.398l-.008 9.786c0 .769.622 1.398 1.398 1.398h6.759c.769 0 1.398-.63 1.398-1.398V7.107c0-.768-.628-1.397-1.397-1.398zm0 3.495h6.76v7.689h-6.76z"/></svg>