<?xml version="1.0" encoding="UTF-8" standalone="no"?>
<svg
   xmlns:dc="http://purl.org/dc/elements/1.1/"
   xmlns:cc="http://creativecommons.org/ns#"
   xmlns:rdf="http://www.w3.org/1999/02/22-rdf-syntax-ns#"
   xmlns:svg="http://www.w3.org/2000/svg"
   xmlns="http://www.w3.org/2000/svg"
   xmlns:sodipodi="http://sodipodi.sourceforge.net/DTD/sodipodi-0.dtd"
   xmlns:inkscape="http://www.inkscape.org/namespaces/inkscape"
   version="1.1"
   width="24"
   height="24"
   viewBox="0 0 24 24"
   id="svg4"
   sodipodi:docname="4.svg"
   inkscape:version="0.92.4 (unknown)">
  <metadata
     id="metadata10">
    <rdf:RDF>
      <cc:Work
         rdf:about="">
        <dc:format>image/svg+xml</dc:format>
        <dc:type
           rdf:resource="http://purl.org/dc/dcmitype/StillImage" />
      </cc:Work>
    </rdf:RDF>
  </metadata>
  <defs
     id="defs8" />
  <sodipodi:namedview
     pagecolor="#ffffff"
     bordercolor="#666666"
     borderopacity="1"
     objecttolerance="10"
     gridtolerance="10"
     guidetolerance="10"
     inkscape:pageopacity="0"
     inkscape:pageshadow="2"
     inkscape:window-width="835"
     inkscape:window-height="480"
     id="namedview6"
     showgrid="false"
     inkscape:zoom="9.8333333"
     inkscape:cx="-9.5593217"
     inkscape:cy="12"
     inkscape:window-x="0"
     inkscape:window-y="32"
     inkscape:window-maximized="0"
     inkscape:current-layer="svg4" />
  <path
     d="M5,3H7V5H5V10C5,11.1 4.1,12 3,12C4.1,12 5,12.9 5,14V19H7V21H5C3.93,20.73 3,20.1 3,19V15C3,13.9 2.1,13 1,13H0V11H1C2.1,11 3,10.1 3,9V5C3,3.9 3.9,3 5,3M19,3C20.1,3 21,3.9 21,5V9C21,10.1 21.9,11 23,11H24V13H23C21.9,13 21,13.9 21,15V19C21,20.1 20.1,21 19,21H17V19H19V14C19,12.9 19.9,12 21,12C19.9,12 19,11.1 19,10V5H17V3H19M12,15C12.55,15 13,15.45 13,16C13,16.55 12.55,17 12,17C11.45,17 11,16.55 11,16C11,15.45 11.45,15 12,15M8,15C8.55,15 9,15.45 9,16C9,16.55 8.55,17 8,17C7.45,17 7,16.55 7,16C7,15.45 7.45,15 8,15M16,15C16.55,15 17,15.45 17,16C17,16.55 16.55,17 16,17C15.45,17 15,16.55 15,16C15,15.45 15.45,15 16,15Z"
     id="path2"
     style="fill:#000000;fill-opacity:1" />
</svg>
