<svg xmlns="http://www.w3.org/2000/svg" width="1227.985" height="1537.799" viewBox="0 0 194.943 244.126"><path d="M32.772 9.514c-9.437 0-17.116 7.526-17.116 16.776s7.679 16.776 17.116 16.776S49.888 35.54 49.888 26.29 42.208 9.514 32.772 9.514zm0 43.066c-14.682 0-26.627-11.793-26.627-26.29S18.09 0 32.772 0c14.681 0 26.627 11.793 26.627 26.29S47.453 52.58 32.772 52.58m134.861 168.222c-5.298 0-10.23-3.196-12.134-8.288 0 0-15.22-40.785-18.911-48.802-.397-.832-1.434-1.34-2.508-1.17-1.747.291-38.494 4.089-39.683 4.247-13.072 1.75-40.272 5.389-47.436-18.253l-.099-.39-13.895-65.153c-3.087-12.884 3.69-21.588 11.295-24.23 6.988-2.416 16.74-.138 21.685 10.58 6.006 13.023 14.876 30.153 14.876 30.153 3.59 7.575 11.54 12.415 18.927 12.415h32.862v9.51H99.75c-11.1 0-21.156-6.69-25.716-17.084-1.41-2.364-10.849-18.273-16.725-31.012-2.64-5.725-6.864-6.63-9.933-5.567-3.805 1.314-6.876 5.851-5.158 13.016l13.902 65.187c4.53 14.488 20.771 13.577 37.013 11.398 1.24-.165 38.231-4.009 39.42-4.2 5.23-.832 10.422 1.849 12.645 6.518 3.867 8.4 19.21 49.509 19.21 49.509.599 1.604 2.528 2.47 4.31 1.941l23.476-7.086 2.749 9.107s-26.041 7.654-27.31 7.654" fill="#1d1e1c"/><path d="M64.885 244.126C29.106 244.126 0 215.018 0 179.237c0-20.982 10.23-40.777 27.366-52.941a4.755 4.755 0 015.505 7.755c-14.626 10.389-23.36 27.277-23.36 45.186 0 30.537 24.84 55.378 55.374 55.378 30.534 0 55.373-24.841 55.373-55.378a4.76 4.76 0 014.756-4.755 4.76 4.76 0 014.756 4.755c0 35.78-29.106 64.889-64.885 64.889" fill="#1d1e1c"/></svg>