<?xml version="1.0" encoding="UTF-8" standalone="no"?>
<!-- Created with Inkscape (http://www.inkscape.org/) -->

<svg
   xmlns:dc="http://purl.org/dc/elements/1.1/"
   xmlns:cc="http://creativecommons.org/ns#"
   xmlns:rdf="http://www.w3.org/1999/02/22-rdf-syntax-ns#"
   xmlns:svg="http://www.w3.org/2000/svg"
   xmlns="http://www.w3.org/2000/svg"
   xmlns:sodipodi="http://sodipodi.sourceforge.net/DTD/sodipodi-0.dtd"
   xmlns:inkscape="http://www.inkscape.org/namespaces/inkscape"
   width="324.90442mm"
   height="406.87601mm"
   viewBox="0 0 194.94265 244.12559"
   version="1.1"
   id="svg1225"
   inkscape:version="0.92.3 (unknown)"
   sodipodi:docname="thebilityIcon.svg">
  <defs
     id="defs1219" />
  <sodipodi:namedview
     id="base"
     pagecolor="#ffffff"
     bordercolor="#666666"
     borderopacity="1.0"
     inkscape:pageopacity="0.0"
     inkscape:pageshadow="2"
     inkscape:zoom="0.35"
     inkscape:cx="1224.4688"
     inkscape:cy="1082.9601"
     inkscape:document-units="mm"
     inkscape:current-layer="layer1"
     showgrid="false"
     scale-x="0.6"
     fit-margin-top="0"
     fit-margin-left="0"
     fit-margin-right="0"
     fit-margin-bottom="0"
     inkscape:window-width="1883"
     inkscape:window-height="1012"
     inkscape:window-x="0"
     inkscape:window-y="32"
     inkscape:window-maximized="1" />
  <metadata
     id="metadata1222">
    <rdf:RDF>
      <cc:Work
         rdf:about="">
        <dc:format>image/svg+xml</dc:format>
        <dc:type
           rdf:resource="http://purl.org/dc/dcmitype/StillImage" />
        <dc:title></dc:title>
      </cc:Work>
    </rdf:RDF>
  </metadata>
  <g
     inkscape:label="Layer 1"
     inkscape:groupmode="layer"
     id="layer1"
     transform="translate(379.44156,-18.455041)">
    <g
       id="g1792"
       transform="translate(-377.97619,22.678571)">
      <g
         id="g302"
         transform="matrix(0.0694951,0,0,-0.0694951,-20.320208,1128.5466)">
        <path
           d="m 742.881,16163.1 c -135.791,0 -246.282,-108.3 -246.282,-241.4 0,-133.1 110.491,-241.4 246.282,-241.4 135.791,0 246.288,108.3 246.288,241.4 0,133.1 -110.497,241.4 -246.288,241.4 z m 0,-619.7 c -211.26,0 -383.14,169.7 -383.14,378.3 0,208.6 171.88,378.3 383.14,378.3 211.261,0 383.149,-169.7 383.149,-378.3 0,-208.6 -171.888,-378.3 -383.149,-378.3"
           style="fill:#1d1e1c;fill-opacity:1;fill-rule:nonzero;stroke:none"
           id="path304"
           inkscape:connector-curvature="0" />
      </g>
      <path
         inkscape:connector-curvature="0"
         id="path308"
         style="fill:#1d1e1c;fill-opacity:1;fill-rule:nonzero;stroke:none;stroke-width:0.06603824"
         d="m 166.16716,216.57832 c -5.29759,0 -10.22998,-3.19625 -12.13387,-8.2878 0,0 -15.22049,-40.78522 -18.91071,-48.80226 -0.39689,-0.83208 -1.43369,-1.34058 -2.50813,-1.16888 -1.74671,0.29057 -38.49369,4.08777 -39.683039,4.24626 -13.072269,1.75001 -40.271439,5.38872 -47.435334,-18.25297 L 45.39702,143.92305 31.501452,78.769718 c -3.086826,-12.884061 3.690811,-21.587901 11.294784,-24.22943 6.988431,-2.417 16.740298,-0.138681 21.685241,10.579326 6.006178,13.022741 14.876434,30.15306 14.876434,30.15306 3.589179,7.574586 11.539523,12.415186 18.92656,12.415186 h 32.861949 v 9.50951 H 98.284471 c -11.099047,0 -21.15535,-6.68967 -25.715951,-17.08409 -1.409256,-2.364172 -10.848762,-18.272784 -16.724845,-31.01156 -2.640869,-5.725516 -6.864014,-6.63024 -9.932811,-5.567024 -3.804992,1.314161 -6.876628,5.850988 -5.158247,13.016137 l 13.90171,65.186347 c 4.529563,14.48879 20.771668,13.57746 37.013773,11.3982 1.238877,-0.1651 38.23086,-4.00852 39.42021,-4.20003 5.2289,-0.83208 10.42149,1.84907 12.64434,6.51797 3.8672,8.40007 19.21052,49.50887 19.21052,49.50887 0.59831,1.60473 2.52729,2.46983 4.31032,1.94152 l 23.47527,-7.0859 2.74851,9.10668 c 0,0 -26.04086,7.65383 -27.31011,7.65383" />
      <g
         id="g310"
         transform="matrix(0.06183983,0,0,-0.06183983,-20.320208,1128.5466)">
        <path
           d="m 1354.14,14370.1 c -578.57,0 -1049.242,470.7 -1049.242,1049.3 0,339.3 165.413,659.4 442.536,856.1 34.547,24.5 82.605,16.5 107.19,-18.2 24.629,-34.7 16.475,-82.6 -18.174,-107.2 -236.518,-168 -377.753,-441.1 -377.753,-730.7 0,-493.8 401.683,-895.5 895.443,-895.5 493.76,0 895.43,401.7 895.43,895.5 0,42.4 34.45,76.9 76.91,76.9 42.45,0 76.9,-34.5 76.9,-76.9 0,-578.6 -470.67,-1049.3 -1049.24,-1049.3"
           style="fill:#1d1e1c;fill-opacity:1;fill-rule:nonzero;stroke:none"
           id="path312"
           inkscape:connector-curvature="0" />
      </g>
    </g>
  </g>
</svg>
