<svg xmlns="http://www.w3.org/2000/svg" height="24" width="24"><path d="M21.012 6.4c-.663.301-1.379.5-2.12.594a3.704 3.704 0 001.62-2.05 7.445 7.445 0 01-2.343.904c-.68-.74-1.637-1.171-2.723-1.171-2.024 0-3.679 1.654-3.679 3.696 0 .293.035.577.095.844a10.506 10.506 0 01-7.616-3.86c-.319.543-.5 1.18-.5 1.853 0 1.283.646 2.42 1.646 3.067a3.66 3.66 0 01-1.68-.43v.025a3.699 3.699 0 002.964 3.627 3.636 3.636 0 01-1.663.06 3.687 3.687 0 003.446 2.568 7.342 7.342 0 01-4.592 1.585 7.62 7.62 0 01-.879-.051 10.463 10.463 0 005.67 1.662c6.788 0 10.519-5.634 10.519-10.52 0-.163 0-.318-.009-.482A7.385 7.385 0 0021.012 6.4z" fill="#120000"/></svg>