<?xml version="1.0" encoding="UTF-8" standalone="no"?>
<!-- Created with Inkscape (http://www.inkscape.org/) -->

<svg
   xmlns:dc="http://purl.org/dc/elements/1.1/"
   xmlns:cc="http://creativecommons.org/ns#"
   xmlns:rdf="http://www.w3.org/1999/02/22-rdf-syntax-ns#"
   xmlns:svg="http://www.w3.org/2000/svg"
   xmlns="http://www.w3.org/2000/svg"
   xmlns:sodipodi="http://sodipodi.sourceforge.net/DTD/sodipodi-0.dtd"
   xmlns:inkscape="http://www.inkscape.org/namespaces/inkscape"
   width="10.560165mm"
   height="12.203184mm"
   viewBox="0 0 10.560165 12.203184"
   version="1.1"
   id="svg12527"
   inkscape:version="0.92.4 (unknown)"
   sodipodi:docname="up.svg">
  <defs
     id="defs12521" />
  <sodipodi:namedview
     id="base"
     pagecolor="#ffffff"
     bordercolor="#666666"
     borderopacity="1.0"
     inkscape:pageopacity="0.0"
     inkscape:pageshadow="2"
     inkscape:zoom="3.959798"
     inkscape:cx="-0.64025021"
     inkscape:cy="19.198787"
     inkscape:document-units="mm"
     inkscape:current-layer="layer1"
     showgrid="false"
     inkscape:window-width="835"
     inkscape:window-height="409"
     inkscape:window-x="2629"
     inkscape:window-y="294"
     inkscape:window-maximized="0"
     fit-margin-top="0"
     fit-margin-left="0"
     fit-margin-right="0"
     fit-margin-bottom="0" />
  <metadata
     id="metadata12524">
    <rdf:RDF>
      <cc:Work
         rdf:about="">
        <dc:format>image/svg+xml</dc:format>
        <dc:type
           rdf:resource="http://purl.org/dc/dcmitype/StillImage" />
        <dc:title />
      </cc:Work>
    </rdf:RDF>
  </metadata>
  <g
     inkscape:label="Layer 1"
     inkscape:groupmode="layer"
     id="layer1"
     transform="translate(112.62532,-104.17817)">
    <g
       id="g122"
       transform="matrix(0,-0.35277777,-0.35277777,0,-108.16836,104.51631)"
       style="fill:#00070a;fill-opacity:1">
      <path
         d="m 0,0 -11.68,11.68 c -1.141,1.14 -3.019,1.31 -4.219,0.228 -1.28,-1.15 -1.319,-3.123 -0.117,-4.326 l 5.294,-5.295 c 0.598,-0.598 0.175,-1.619 -0.671,-1.619 h -19.089 c -1.616,0 -3.062,-1.209 -3.147,-2.822 -0.09,-1.719 1.277,-3.143 2.978,-3.143 h 19.258 c 0.846,0 1.269,-1.021 0.671,-1.619 l -5.174,-5.176 c -1.142,-1.14 -1.31,-3.019 -0.23,-4.219 1.152,-1.279 3.125,-1.318 4.327,-0.117 L 0,-4.629 C 1.278,-3.35 1.278,-1.277 0,0"
         style="fill:#00070a;fill-opacity:1;fill-rule:nonzero;stroke:none"
         id="path124"
         inkscape:connector-curvature="0" />
    </g>
  </g>
</svg>
