<svg xmlns="http://www.w3.org/2000/svg" width="24" height="24"><path d="M13.291 2.997c-.4 0-.802.027-1.197.08a9.56 9.56 0 00-4.58 1.938c-1.463 1.156-2.408 2.642-2.73 4.298-.097.493-.138 1.037-.178 1.563-.062.825-.127 1.677-.389 2.234-.179.38-.446.634-1.168.634a1.049 1.049 0 00-.838 1.68c1.089 1.444 2.51 2.318 4.006 2.845a2.08 2.08 0 104.047.737 25.319 25.319 0 001.765.036h.245l.286.001c.255 0 .513-.004.772-.012a2.078 2.078 0 104.014-.85 8.896 8.896 0 002.256-1.576c.937-.898 1.625-1.959 1.989-3.066.41-1.246.512-2.499.305-3.723a7.547 7.547 0 00-1.35-3.188 8.729 8.729 0 00-3.141-2.648 9.18 9.18 0 00-4.114-.983zm0 1.049c4.725 0 8.93 4.218 7.304 9.166-.601 1.826-2.185 3.332-3.872 4.103a2.078 2.078 0 00-3.166.66c-.35.015-.688.02-.997.02l-.531-.002h-.161l-.207.001a24.02 24.02 0 01-1.639-.051 2.079 2.079 0 00-3.208-.576c-1.42-.46-2.762-1.244-3.765-2.574 2.965 0 2.38-3.314 2.763-5.28.585-2.994 3.548-5.008 6.422-5.396a7.864 7.864 0 011.057-.071zm-2.356 4.217a1.007 1.007 0 100 2.013 1.007 1.007 0 000-2.013zm4.705 0a1.007 1.007 0 100 2.014 1.007 1.007 0 000-2.014zm-5.392 3.2a.525.525 0 00-.522.623c.282 1.464 1.82 2.583 3.526 2.583l.102-.001c.876-.024 1.685-.289 2.341-.769.63-.46 1.065-1.085 1.223-1.759a.525.525 0 00-1.02-.24c-.195.826-1.14 1.682-2.572 1.72-1.373.035-2.404-.871-2.57-1.732a.524.524 0 00-.508-.425zm6.498 5.872zm.151.142zm.154.178l.047.063a2.038 2.038 0 00-.047-.063zm-10.51.004l-.013.017.013-.017zm10.62.152l.013.023-.014-.023zm-10.833.19l-.016.033A.901.901 0 016.328 18zm3.786.137zm3.352.042a.62.62 0 00-.014.038l.014-.038zm-5.277.057a.681.681 0 01.45.172l.021.018a.693.693 0 01.076.086l.002.002a.686.686 0 11-1.125.039v-.001l.025-.035a.693.693 0 01.157-.155l.012-.01a.685.685 0 01.102-.055l.037-.014a.681.681 0 01.08-.025c.013-.003.026-.007.04-.009a.69.69 0 01.123-.012zm7.217 0c.042 0 .083.005.123.013.014.002.027.006.04.009h.002a.668.668 0 01.12.042c.023.01.045.023.066.036l.04.023a.758.758 0 01.126.117l.029.035c.015.02.028.041.041.063l.017.03a.666.666 0 01.081.318.686.686 0 11-.686-.686zm-5.226.09zm3.216.071c-.004.017-.01.034-.013.05a.901.901 0 01.013-.05zm-3.168.121zm3.121.11l-.01.065c.002-.022.007-.043.01-.064zm-.013.107zm-3.077.001z" fill="#120000"/><path d="M0 0h24v24H0z" fill="none"/></svg>