<svg xmlns="http://www.w3.org/2000/svg" width="24" height="24"><path d="M13.291 2.998c-.4 0-.802.027-1.197.08a9.557 9.557 0 00-4.578 1.938c-1.464 1.156-2.41 2.64-2.733 4.296-.096.493-.138 1.038-.178 1.565-.062.824-.126 1.675-.388 2.232-.18.381-.446.635-1.168.635a1.05 1.05 0 00-.838 1.68c1.089 1.444 2.51 2.319 4.006 2.846a2.079 2.079 0 104.047.736c.487.027.956.037 1.396.037h.213l.156-.002.244.002h.288c.254 0 .512-.004.771-.012a2.077 2.077 0 104.014-.85 8.893 8.893 0 002.256-1.576c.936-.898 1.624-1.959 1.988-3.066.41-1.246.514-2.498.306-3.723a7.553 7.553 0 00-1.351-3.189 8.725 8.725 0 00-3.14-2.647 9.18 9.18 0 00-4.114-.982zm-2.355 5.264a1.008 1.008 0 11-.001 2.016 1.008 1.008 0 010-2.016zm4.705 0a1.007 1.007 0 11-.002 2.013 1.007 1.007 0 01.002-2.013zm-5.393 3.2c.244.004.46.178.508.427.165.86 1.196 1.766 2.57 1.73 1.431-.037 2.378-.893 2.572-1.719a.523.523 0 111.02.24c-.159.675-.593 1.3-1.223 1.76-.656.48-1.466.745-2.341.768h-.102c-1.706 0-3.243-1.118-3.525-2.582a.524.524 0 01.521-.623zm-2.059 6.774a.68.68 0 01.373.112c.028.018.052.039.077.06a.822.822 0 01.097.106l.002.002a.685.685 0 01-.549 1.094.687.687 0 01-.578-1.055l.002-.002.026-.035a.67.67 0 01.048-.059l.03-.031a.69.69 0 01.078-.065l.012-.01a.675.675 0 01.218-.093c.014-.004.028-.008.041-.01a.693.693 0 01.123-.012v-.002zm7.215 0h.002c.043 0 .083.007.123.014l.041.01a.666.666 0 01.188.078l.039.023c.029.02.056.042.082.067.016.015.029.032.043.049l.03.035a.687.687 0 01.058.093.683.683 0 01.082.319.687.687 0 11-.688-.688z" fill="#120000"/><path d="M0 0h24v24H0z" fill="none"/></svg>