<?xml version="1.0" standalone="no"?>
<!DOCTYPE svg PUBLIC "-//W3C//DTD SVG 20010904//EN"
 "http://www.w3.org/TR/2001/REC-SVG-20010904/DTD/svg10.dtd">
<svg version="1.0" xmlns="http://www.w3.org/2000/svg"
 width="2000.000000pt" height="2000.000000pt" viewBox="0 0 2000.000000 2000.000000"
 preserveAspectRatio="xMidYMid meet">
<metadata>
Created by potrace 1.11, written by Peter Selinger 2001-2013
</metadata>
<g transform="translate(0.000000,2000.000000) scale(0.100000,-0.100000)"
fill="#000000" stroke="none">
<path d="M9618 19995 c-2 -1 -68 -6 -148 -10 -80 -3 -161 -8 -180 -10 -19 -2
-73 -6 -120 -9 -47 -4 -105 -9 -130 -12 -127 -13 -215 -23 -260 -29 -19 -3
-55 -7 -79 -10 -23 -3 -55 -7 -70 -9 -14 -3 -48 -7 -75 -11 -27 -3 -86 -13
-133 -21 -46 -8 -100 -17 -121 -20 -29 -4 -234 -44 -507 -99 -11 -3 -101 -25
-200 -50 -99 -25 -189 -47 -200 -50 -20 -5 -138 -39 -305 -88 -104 -31 -447
-145 -475 -157 -11 -5 -83 -33 -160 -61 -77 -28 -158 -59 -180 -69 -22 -10
-86 -36 -143 -59 -56 -22 -110 -45 -120 -50 -9 -5 -75 -36 -147 -67 -120 -53
-597 -291 -690 -344 -483 -275 -850 -514 -1240 -809 -55 -42 -102 -78 -105
-81 -3 -3 -39 -32 -80 -64 -41 -33 -91 -73 -111 -90 -19 -17 -46 -40 -60 -51
-27 -22 -227 -193 -245 -210 -231 -211 -496 -471 -639 -626 -109 -118 -212
-233 -285 -319 -40 -47 -82 -96 -94 -110 -212 -248 -554 -717 -752 -1030 -47
-76 -134 -216 -149 -242 -159 -275 -233 -411 -350 -643 -151 -301 -167 -336
-282 -610 -41 -99 -81 -194 -89 -212 -8 -17 -14 -36 -14 -42 0 -6 -4 -19 -10
-29 -33 -57 -238 -663 -275 -812 -2 -8 -11 -40 -20 -70 -44 -148 -164 -646
-180 -745 -5 -26 -11 -59 -30 -155 -4 -21 -24 -141 -51 -305 -2 -16 -6 -41 -9
-55 -3 -14 -7 -47 -11 -75 -3 -27 -7 -61 -9 -75 -2 -14 -7 -50 -10 -80 -3 -30
-7 -66 -10 -80 -2 -14 -7 -59 -11 -100 -3 -41 -8 -88 -10 -105 -2 -16 -6 -66
-10 -110 -3 -44 -7 -100 -10 -125 -25 -284 -25 -1267 1 -1398 1 -9 6 -62 9
-117 4 -56 8 -110 10 -120 2 -11 7 -54 10 -95 4 -41 9 -91 11 -110 3 -19 7
-57 10 -85 4 -27 10 -77 15 -110 5 -33 12 -80 15 -105 3 -25 12 -83 20 -130 8
-47 17 -103 20 -125 3 -22 10 -60 15 -85 5 -25 16 -81 24 -125 8 -44 25 -123
36 -175 12 -52 29 -133 40 -180 115 -527 366 -1280 596 -1786 193 -426 349
-728 561 -1082 110 -185 116 -194 259 -412 145 -219 386 -550 533 -728 l60
-73 1 238 c1 131 4 405 6 608 5 473 5 2395 -1 3330 -6 1026 -6 2468 -1 2550
15 222 17 247 31 394 4 35 8 80 10 100 2 20 6 59 10 86 3 28 8 64 10 80 64
497 208 1098 370 1550 26 72 53 148 60 170 66 199 321 754 465 1010 367 654
772 1193 1278 1701 112 112 306 295 377 355 34 29 55 47 119 104 210 185 648
499 971 695 499 304 1164 608 1641 750 38 12 78 25 89 30 29 13 288 84 450
124 190 46 510 111 655 131 31 4 80 11 145 21 28 4 59 8 70 9 112 12 162 18
176 20 8 2 55 6 105 10 49 4 100 8 114 11 147 23 891 23 1175 -1 130 -11 354
-34 385 -40 8 -1 40 -6 70 -10 30 -3 134 -20 230 -36 168 -28 195 -32 250 -44
14 -3 34 -7 45 -9 66 -13 188 -42 310 -72 737 -185 1462 -485 2105 -872 128
-77 471 -300 480 -312 3 -3 27 -22 55 -40 27 -19 56 -40 65 -46 8 -7 56 -43
105 -80 331 -248 678 -563 990 -899 134 -144 128 -137 195 -216 30 -35 57 -66
60 -69 26 -25 311 -393 370 -480 13 -19 27 -37 30 -40 29 -23 343 -524 430
-685 23 -44 46 -84 50 -90 5 -5 53 -100 108 -210 106 -211 198 -414 264 -580
21 -55 45 -113 52 -130 16 -34 108 -301 154 -445 82 -253 161 -568 221 -880
43 -226 58 -324 95 -640 3 -19 8 -73 11 -120 4 -47 8 -96 10 -109 23 -146 24
-966 1 -1146 -2 -16 -7 -75 -11 -130 -3 -55 -8 -107 -10 -115 -2 -8 -6 -46
-10 -85 -3 -38 -8 -77 -10 -85 -2 -8 -6 -37 -10 -65 -13 -109 -64 -414 -81
-485 -3 -14 -8 -36 -11 -50 -2 -14 -9 -45 -14 -70 -6 -25 -13 -56 -15 -70 -18
-95 -116 -456 -166 -610 -55 -172 -80 -246 -89 -262 -5 -10 -9 -23 -9 -29 0
-16 -141 -368 -209 -521 -270 -609 -610 -1170 -1030 -1698 -41 -52 -78 -97
-81 -100 -3 -3 -27 -32 -54 -65 -163 -197 -447 -494 -660 -689 -49 -44 -98
-90 -110 -101 -12 -11 -53 -47 -91 -80 -39 -32 -77 -66 -87 -76 -15 -15 40
-72 777 -809 746 -746 794 -792 813 -779 22 16 157 137 271 244 222 207 576
577 751 785 62 73 65 77 150 180 34 41 70 84 79 95 29 35 234 306 303 402 101
139 354 522 431 653 85 144 85 144 125 207 17 30 32 55 32 57 0 2 19 36 41 77
75 134 294 572 348 694 30 66 60 134 68 150 8 17 46 109 85 205 38 96 74 184
79 195 40 88 176 487 250 733 51 170 130 471 168 642 12 52 24 106 27 120 32
139 113 595 128 725 3 28 8 60 10 73 3 13 8 53 12 90 3 36 8 74 9 85 2 10 7
53 11 95 3 42 8 86 10 97 2 10 6 62 10 115 3 52 7 105 9 118 19 119 27 942 12
1217 -11 204 -26 392 -43 525 -2 19 -6 64 -9 100 -3 36 -8 76 -10 90 -3 14 -7
41 -9 60 -9 70 -18 132 -20 148 -2 10 -7 39 -10 65 -4 27 -9 57 -11 67 -2 9
-6 35 -9 56 -6 39 -31 181 -42 239 -3 17 -12 64 -21 105 -8 41 -17 85 -19 96
-23 124 -124 528 -179 714 -20 69 -39 132 -40 140 -26 110 -257 750 -330 915
-8 17 -18 43 -24 58 -37 98 -175 392 -291 622 -267 528 -550 986 -899 1455
-63 85 -120 160 -126 167 -5 6 -21 26 -35 44 -191 252 -480 577 -780 878 -161
162 -230 228 -381 366 -74 68 -357 308 -449 381 -41 32 -77 61 -80 64 -3 3
-68 53 -145 111 -248 187 -556 396 -831 563 -60 37 -116 71 -124 76 -23 14
-157 89 -329 184 -193 107 -537 273 -781 378 -63 27 -124 53 -135 58 -170 78
-704 266 -1015 357 -161 47 -506 137 -588 153 -26 5 -56 12 -67 14 -27 7 -252
54 -290 60 -16 3 -41 8 -55 11 -14 3 -79 14 -145 25 -66 11 -131 22 -145 25
-14 2 -45 6 -70 9 -25 3 -54 7 -65 10 -11 2 -45 7 -76 10 -31 4 -66 8 -77 11
-11 2 -53 6 -94 10 -40 3 -80 8 -88 10 -8 2 -53 6 -100 10 -47 4 -98 8 -115
10 -16 2 -77 7 -135 10 -58 4 -125 9 -150 11 -50 5 -927 14 -932 9z"/>
<path d="M9988 15555 c-2 -1 -88 -5 -193 -9 -104 -3 -208 -8 -230 -10 -22 -3
-69 -7 -105 -10 -36 -3 -76 -8 -90 -10 -14 -2 -53 -7 -87 -10 -35 -4 -68 -8
-75 -11 -7 -2 -31 -6 -53 -9 -22 -3 -53 -8 -70 -11 -40 -7 -94 -16 -125 -21
-269 -46 -797 -203 -1055 -314 -193 -83 -281 -124 -410 -190 -160 -82 -183
-95 -315 -172 -252 -149 -584 -387 -785 -563 -16 -14 -57 -50 -90 -78 -85 -74
-347 -336 -441 -442 -471 -530 -839 -1139 -1069 -1770 -20 -55 -39 -107 -42
-115 -4 -8 -7 -17 -8 -20 0 -3 -15 -50 -33 -105 -18 -55 -36 -113 -41 -130
-67 -209 -163 -686 -186 -925 -4 -36 -8 -78 -10 -95 -29 -262 -34 -676 -10
-968 10 -134 13 -160 18 -202 3 -22 9 -65 12 -95 10 -87 24 -172 50 -310 8
-41 17 -86 19 -100 2 -14 22 -99 44 -190 146 -596 400 -1183 737 -1700 66
-102 188 -276 226 -325 5 -5 50 -62 100 -125 164 -206 435 -496 579 -620 14
-12 43 -38 65 -59 22 -20 92 -80 155 -132 98 -81 133 -109 205 -161 5 -4 24
-18 40 -31 116 -90 392 -268 575 -372 442 -250 1034 -479 1480 -571 14 -3 41
-9 60 -14 41 -11 295 -57 360 -65 25 -3 56 -8 70 -10 54 -8 113 -15 250 -29
235 -24 843 -25 967 -2 10 2 58 7 107 11 49 4 98 9 110 11 11 2 44 6 71 9 28
3 57 8 65 10 8 2 35 7 60 10 25 3 68 10 95 15 28 5 61 12 75 14 117 20 372 83
525 128 180 54 507 171 530 190 5 4 15 8 22 8 26 0 466 214 598 291 50 29 99
57 110 64 108 61 340 217 482 323 948 709 1644 1694 1994 2822 34 107 71 241
84 303 3 12 11 49 19 82 22 89 83 420 91 495 4 36 9 73 11 84 2 10 6 51 10 90
3 39 7 82 9 95 18 109 24 606 12 811 -9 132 -11 161 -32 350 -6 54 -18 135
-30 210 -3 17 -7 45 -10 63 -3 17 -10 55 -15 82 -5 28 -12 65 -15 84 -3 19 -8
37 -10 41 -2 4 -7 22 -10 41 -3 19 -11 52 -17 74 -5 22 -12 51 -15 65 -17 100
-178 602 -228 715 -8 17 -33 75 -56 130 -118 283 -323 660 -487 900 -116 168
-201 286 -212 295 -3 3 -26 32 -51 65 -46 63 -49 66 -174 210 -115 132 -350
371 -456 466 -73 65 -155 136 -178 154 -14 11 -32 25 -39 32 -8 8 -30 26 -50
41 -21 15 -39 30 -42 33 -15 18 -255 190 -380 271 -338 222 -770 442 -1082
554 -175 62 -267 93 -318 109 -130 39 -274 79 -325 90 -11 2 -38 9 -60 14 -22
6 -56 13 -75 16 -19 3 -43 8 -52 11 -21 6 -42 10 -148 29 -47 8 -94 17 -105
19 -24 4 -93 14 -160 22 -27 3 -61 7 -75 10 -14 2 -59 6 -100 10 -41 3 -88 7
-105 10 -16 2 -109 6 -205 10 -96 3 -192 6 -212 8 -21 2 -39 2 -40 1z m317
-2239 c28 -2 70 -7 95 -11 25 -3 65 -8 90 -11 41 -5 218 -38 265 -50 11 -3 31
-7 45 -10 71 -14 312 -92 435 -141 429 -171 796 -413 1125 -743 156 -156 168
-169 283 -316 78 -101 237 -335 237 -349 0 -4 8 -19 19 -33 32 -47 158 -303
201 -412 108 -270 175 -524 214 -812 5 -31 7 -58 22 -223 6 -68 5 -377 -1
-445 -12 -126 -16 -167 -19 -190 -3 -14 -7 -47 -11 -73 -49 -389 -240 -909
-465 -1262 -58 -91 -214 -313 -229 -325 -3 -3 -22 -25 -42 -50 -86 -106 -283
-306 -405 -410 -220 -189 -563 -404 -806 -506 -35 -14 -81 -34 -103 -44 -116
-51 -420 -144 -575 -174 -14 -3 -36 -7 -50 -10 -46 -10 -224 -34 -290 -41
-274 -25 -494 -22 -770 11 -243 29 -566 116 -822 219 -266 109 -596 300 -784
454 -18 14 -42 33 -54 43 -120 90 -376 346 -488 488 -46 58 -89 112 -97 122
-7 9 -41 57 -74 106 -186 277 -316 541 -413 836 -39 121 -92 321 -102 388 -3
21 -10 57 -15 80 -5 24 -12 66 -15 93 -3 28 -8 59 -10 70 -31 158 -26 661 9
885 3 14 7 43 10 65 34 226 120 516 227 770 53 124 83 185 175 355 71 130 262
395 386 535 135 152 362 363 497 460 30 21 57 42 60 45 31 32 282 186 435 265
112 58 396 177 443 186 4 1 23 7 42 15 31 12 202 61 240 69 8 2 44 10 80 18
93 22 324 56 427 63 48 4 90 8 92 10 5 4 430 -4 486 -10z"/>
<path d="M9938 11105 c-2 -2 -28 -5 -59 -8 -220 -24 -433 -119 -609 -275 -310
-271 -442 -700 -340 -1102 92 -361 365 -657 716 -778 34 -12 73 -23 88 -26 14
-2 29 -7 33 -9 31 -18 300 -29 380 -16 26 4 66 11 88 14 68 12 187 53 265 92
256 130 442 335 544 599 19 50 37 102 40 115 2 13 10 47 16 74 15 62 21 271
10 345 -16 107 -22 133 -46 208 -67 204 -197 391 -364 522 -91 72 -95 75 -216
135 -92 46 -236 89 -334 100 -57 7 -208 13 -212 10z"/>
<path d="M4490 3093 l0 -1438 73 -46 c145 -94 146 -95 324 -200 398 -238 825
-454 1233 -624 74 -31 144 -60 155 -65 11 -5 70 -28 130 -50 61 -23 121 -46
135 -52 43 -18 64 -26 85 -31 11 -3 88 -29 170 -57 154 -54 342 -112 500 -156
105 -30 468 -122 505 -129 14 -3 34 -7 45 -9 11 -3 54 -12 95 -21 41 -9 86
-19 100 -21 14 -2 48 -9 75 -15 28 -6 61 -12 75 -14 14 -2 93 -15 175 -29 83
-14 171 -28 195 -31 25 -3 72 -10 105 -15 33 -5 87 -12 120 -15 33 -4 71 -8
84 -10 13 -2 58 -7 100 -11 42 -3 84 -8 93 -9 9 -2 59 -7 110 -10 51 -4 111
-8 133 -10 233 -21 905 -27 1195 -11 249 13 293 16 440 31 25 2 74 7 110 10
36 4 76 8 90 10 22 3 58 8 170 21 19 2 46 6 60 9 14 2 45 7 70 10 36 5 168 25
315 50 11 1 81 15 155 30 74 15 146 29 160 31 14 3 32 7 40 9 8 2 29 7 45 10
65 11 509 125 659 169 88 26 255 79 370 118 186 62 272 93 496 180 83 32 366
152 445 188 156 72 555 270 555 276 0 3 -377 383 -838 844 l-838 838 -115 -46
c-63 -24 -127 -50 -144 -57 -115 -48 -564 -193 -745 -240 -66 -18 -104 -27
-240 -58 -134 -31 -281 -63 -330 -72 -31 -5 -86 -15 -115 -19 -16 -3 -70 -12
-120 -20 -49 -8 -115 -18 -145 -21 -30 -3 -62 -8 -70 -10 -14 -4 -95 -13 -179
-20 -20 -2 -65 -6 -99 -10 -348 -34 -913 -39 -1277 -10 -156 12 -342 31 -406
41 -39 6 -100 14 -140 19 -20 2 -76 11 -125 19 -49 9 -105 18 -124 21 -19 3
-109 21 -200 40 -91 19 -174 37 -185 39 -11 2 -38 8 -60 14 -22 6 -118 32
-214 57 -329 88 -772 241 -1026 355 -27 12 -63 28 -80 35 -89 38 -148 66 -335
160 -113 56 -245 125 -294 154 -49 28 -90 51 -92 51 -13 0 -328 197 -494 309
-174 118 -512 368 -540 400 -3 3 -36 32 -75 63 -38 31 -79 65 -90 75 -11 10
-58 52 -105 93 -87 77 -192 176 -286 268 -29 28 -56 52 -59 52 -3 0 -5 -647
-5 -1437z"/>
</g>
</svg>
