<svg xmlns="http://www.w3.org/2000/svg" width="24" height="24"><path d="M0 0h24v24H0z" fill="none"/><path style="line-height:1.25;-inkscape-font-specification:'Montserrat Black, ';text-align:center" d="M14.268 15.566v3.73H2.836V16.34l5.155-4.769q.673-.632.897-1.08.224-.448.224-.876 0-.53-.367-.815-.346-.306-1.019-.306-.652 0-1.222.346-.57.347-.877.978L2 8.006Q2.815 6.477 4.384 5.6q1.57-.897 3.79-.897 1.692 0 2.996.55 1.305.55 2.038 1.57.734 1.019.734 2.343 0 1.182-.51 2.222-.489 1.019-1.936 2.323L9.46 15.566zM22 5.03v14.266h-4.81V8.658h-2.445V5.03z" font-weight="400" font-size="21.425" font-family="Montserrat Black" letter-spacing="0" word-spacing="0" text-anchor="middle" fill="#294552" fill-opacity=".992"/></svg>