<svg xmlns="http://www.w3.org/2000/svg" width="24" height="24"><path d="M0 0h24v24H0z" fill="none"/><g transform="translate(-34.16 -217.628) scale(.66667)"><circle r="15" cy="344.442" cx="69.24" opacity=".99" fill="#00070a" fill-rule="evenodd"/><path d="M71.624 348.191v3.92h-12.02v-3.106l5.421-5.013q.707-.664.943-1.136.235-.471.235-.921 0-.557-.385-.857-.364-.321-1.071-.321-.686 0-1.286.364t-.921 1.028l-3.814-1.907q.857-1.607 2.507-2.528 1.65-.943 3.985-.943 1.778 0 3.15.579 1.37.578 2.142 1.65.771 1.071.771 2.464 0 1.242-.535 2.335-.515 1.071-2.036 2.442l-2.142 1.95zm8.129-11.077v14.998h-5.056v-11.184h-2.571v-3.814z" style="line-height:1.25;-inkscape-font-specification:'Montserrat Black, ';text-align:center" fill="#e4e9ed" font-weight="400" font-size="21.425" font-family="Montserrat Black" letter-spacing="0" word-spacing="0" text-anchor="middle"/></g></svg>