<svg xmlns="http://www.w3.org/2000/svg" height="24" width="24"><path d="M0 0h24v24H0z" fill="none"/><path d="M6.17 1.857c-.851 0-1.543.679-1.543 1.512 0 .834.692 1.512 1.542 1.512.85 0 1.543-.678 1.543-1.512 0-.833-.692-1.512-1.543-1.512zm0 3.881c-1.324 0-2.4-1.062-2.4-2.369C3.77 2.063 4.846 1 6.17 1c1.323 0 2.399 1.063 2.399 2.37 0 1.306-1.076 2.368-2.4 2.368m12.154 15.16c-.478 0-.922-.288-1.094-.747 0 0-1.371-3.675-1.704-4.398-.036-.075-.13-.12-.226-.105-.157.026-3.469.368-3.576.383-1.178.157-3.63.485-4.275-1.645l-.009-.035-1.252-5.872c-.278-1.16.333-1.945 1.018-2.183.63-.218 1.508-.013 1.954.953a81.187 81.187 0 001.34 2.717c.324.683 1.04 1.12 1.706 1.12h2.962v.856h-2.962c-1 0-1.906-.603-2.317-1.54-.127-.212-.978-1.646-1.507-2.794-.238-.516-.619-.598-.895-.502-.343.119-.62.527-.465 1.173l1.252 5.875c.409 1.305 1.872 1.223 3.336 1.027.112-.015 3.445-.361 3.553-.379.47-.075.939.167 1.139.588.349.757 1.731 4.461 1.731 4.461.054.145.228.223.389.175l2.115-.638.248.82s-2.347.69-2.461.69" fill="#1d1e1c"/><path d="M9.063 23a5.854 5.854 0 01-5.847-5.848c0-1.89.922-3.674 2.466-4.77a.429.429 0 01.496.698 5.004 5.004 0 00-2.105 4.072 4.996 4.996 0 004.99 4.99 4.996 4.996 0 004.99-4.99.429.429 0 01.858 0A5.854 5.854 0 019.063 23" fill="#1d1e1c"/></svg>