<?xml version="1.0" standalone="no"?>
<!DOCTYPE svg PUBLIC "-//W3C//DTD SVG 20010904//EN"
 "http://www.w3.org/TR/2001/REC-SVG-20010904/DTD/svg10.dtd">
<svg version="1.0" xmlns="http://www.w3.org/2000/svg"
 width="2000.000000pt" height="2000.000000pt" viewBox="0 0 2000.000000 2000.000000"
 preserveAspectRatio="xMidYMid meet">
<metadata>
Created by potrace 1.11, written by Peter Selinger 2001-2013
</metadata>
<g transform="translate(0.000000,2000.000000) scale(0.100000,-0.100000)"
fill="#000000" stroke="none">
<path d="M9618 19995 c-2 -2 -63 -6 -135 -9 -135 -6 -225 -12 -323 -22 -30 -3
-79 -7 -108 -9 -29 -2 -77 -7 -105 -10 -29 -3 -72 -8 -97 -11 -25 -3 -56 -7
-70 -9 -14 -2 -63 -9 -110 -15 -47 -6 -103 -13 -125 -16 -22 -3 -47 -7 -55 -9
-8 -3 -33 -7 -55 -10 -22 -2 -51 -7 -65 -10 -14 -2 -41 -7 -60 -10 -19 -3 -46
-7 -60 -10 -14 -3 -40 -7 -58 -10 -18 -3 -64 -12 -102 -20 -38 -8 -84 -17
-102 -20 -18 -3 -40 -8 -48 -10 -8 -2 -26 -6 -40 -9 -14 -2 -56 -12 -95 -21
-38 -8 -83 -18 -100 -21 -16 -3 -38 -10 -47 -15 -10 -5 -18 -8 -18 -5 0 2 -51
-9 -112 -25 -62 -16 -121 -32 -132 -34 -10 -2 -44 -12 -75 -21 -31 -10 -61
-18 -68 -20 -58 -11 -585 -182 -703 -228 -47 -18 -134 -52 -195 -75 -60 -23
-119 -46 -130 -51 -11 -5 -45 -19 -75 -31 -30 -13 -58 -28 -62 -33 -4 -6 -8
-8 -8 -4 0 15 -285 -116 -605 -278 -256 -129 -357 -183 -365 -193 -3 -3 -30
-19 -60 -35 -188 -97 -655 -398 -925 -595 -133 -97 -286 -212 -295 -222 -3 -3
-39 -32 -80 -64 -41 -32 -91 -72 -111 -89 -19 -17 -49 -42 -65 -55 -35 -29
-149 -127 -184 -158 -14 -12 -36 -32 -50 -43 -126 -107 -507 -482 -680 -670
-52 -56 -100 -108 -105 -114 -26 -28 -214 -246 -245 -285 -19 -24 -40 -48 -46
-55 -51 -55 -332 -425 -449 -591 -67 -96 -199 -293 -263 -395 -19 -30 -49 -77
-67 -105 -17 -27 -34 -57 -38 -65 -4 -8 -15 -27 -25 -42 -21 -32 -168 -289
-216 -378 -44 -80 -272 -539 -316 -635 -37 -81 -186 -433 -204 -485 -7 -19
-39 -105 -71 -190 -94 -253 -238 -708 -280 -882 -3 -14 -59 -241 -86 -353 -5
-22 -11 -49 -13 -60 -3 -11 -11 -51 -20 -90 -23 -106 -63 -318 -81 -430 -22
-140 -25 -157 -30 -185 -2 -14 -7 -49 -10 -79 -4 -30 -9 -63 -11 -75 -2 -11
-6 -48 -9 -81 -3 -33 -7 -67 -10 -75 -2 -8 -7 -51 -10 -95 -4 -44 -8 -93 -11
-110 -2 -16 -6 -66 -10 -110 -3 -44 -7 -100 -10 -125 -26 -296 -26 -1032 1
-1405 8 -121 17 -217 20 -234 2 -9 6 -53 10 -97 3 -43 8 -90 10 -104 2 -14 6
-47 9 -75 10 -83 26 -195 41 -290 8 -49 17 -106 20 -125 5 -40 7 -53 36 -205
41 -225 138 -651 169 -750 6 -16 28 -95 50 -175 23 -80 44 -152 47 -160 3 -8
7 -20 8 -26 14 -63 201 -604 235 -679 5 -11 34 -81 64 -155 141 -351 386 -858
547 -1132 21 -36 39 -71 39 -77 0 -6 5 -11 10 -11 6 0 10 -4 10 -10 0 -5 32
-63 72 -127 39 -65 82 -136 95 -158 98 -164 511 -760 552 -795 3 -3 19 -23 35
-45 89 -121 289 -355 298 -349 7 4 8 2 4 -4 -19 -32 548 -623 909 -947 49 -44
96 -87 105 -95 39 -38 328 -275 445 -367 225 -174 678 -493 702 -493 6 0 13
-4 15 -9 2 -5 32 -27 68 -50 118 -73 305 -185 335 -202 17 -9 54 -31 83 -48
29 -17 55 -31 57 -31 2 0 30 -15 62 -34 104 -60 173 -95 173 -89 0 3 8 -1 18
-9 14 -13 307 -159 412 -207 14 -6 32 -15 40 -20 8 -5 49 -23 90 -41 41 -17
89 -38 105 -45 42 -19 89 -39 165 -69 36 -15 74 -31 85 -36 11 -5 58 -23 105
-40 47 -17 95 -36 108 -41 12 -5 32 -13 45 -18 28 -12 285 -101 392 -136 113
-37 326 -100 420 -125 202 -54 302 -79 325 -83 14 -3 45 -10 70 -17 25 -7 53
-14 63 -16 10 -2 26 -5 35 -8 9 -3 30 -7 46 -10 16 -3 52 -10 80 -16 28 -6 62
-12 76 -15 14 -3 48 -9 75 -14 28 -6 64 -12 80 -15 17 -3 66 -12 110 -20 79
-14 97 -18 183 -31 44 -7 50 -8 147 -20 33 -3 71 -9 85 -11 14 -2 45 -6 70 -9
25 -3 59 -8 75 -10 17 -2 62 -7 100 -10 39 -4 80 -8 93 -10 12 -2 64 -7 115
-10 50 -4 110 -8 132 -10 303 -26 1111 -26 1386 0 19 2 78 6 131 9 53 4 106 9
119 11 13 2 60 6 104 10 44 4 89 9 100 10 11 2 43 6 70 10 28 3 79 10 115 15
36 5 88 12 115 15 28 4 57 8 65 10 8 3 35 7 60 10 25 3 68 10 95 15 28 5 66
12 85 14 38 6 72 13 110 22 14 3 36 7 50 9 29 4 74 13 110 21 14 3 34 7 45 9
83 18 260 60 360 85 66 17 127 32 135 35 8 2 33 8 55 13 85 21 397 114 435
129 8 3 20 7 25 9 25 6 202 65 220 73 11 5 74 28 140 51 66 23 134 48 150 55
17 7 95 38 175 70 80 32 172 70 206 86 34 16 64 29 67 29 3 0 38 15 79 34 40
18 76 34 80 35 18 4 485 241 601 305 70 39 140 78 155 86 45 25 162 94 190
112 15 10 34 21 42 25 31 14 315 197 318 205 2 4 8 8 14 8 8 0 62 35 113 73 5
4 60 42 122 85 149 104 143 100 322 236 142 108 266 206 331 262 14 12 63 54
110 94 352 299 849 796 1069 1068 25 32 51 62 58 67 7 6 25 26 40 46 15 20 64
81 108 135 124 152 286 368 409 543 50 70 247 367 272 408 10 18 48 81 83 140
36 59 72 116 80 127 9 10 15 20 13 22 -1 2 13 29 33 59 19 31 35 57 35 58 0 2
34 66 76 143 65 118 299 588 324 649 4 11 19 45 32 75 14 30 46 107 73 170 26
63 58 139 71 167 13 29 26 65 30 80 4 16 10 33 14 38 23 31 268 763 284 844 1
9 12 48 23 86 12 39 25 86 29 105 4 19 9 40 10 45 21 74 80 320 98 408 2 7 6
23 9 37 4 14 9 37 11 52 3 15 12 63 20 105 24 118 25 125 56 313 16 96 31 198
34 225 3 28 8 60 10 73 3 13 8 53 12 90 3 36 7 74 9 83 2 9 6 52 10 95 4 43 9
86 10 94 2 8 6 56 9 105 4 50 9 108 11 130 26 254 26 1153 0 1410 -2 22 -7 76
-10 121 -3 44 -7 96 -10 115 -2 19 -7 63 -10 99 -6 70 -23 209 -29 250 -2 14
-7 48 -10 75 -6 47 -8 63 -21 140 -3 17 -7 50 -11 75 -3 25 -7 51 -10 59 -3 8
-7 30 -10 50 -5 33 -18 110 -30 178 -3 16 -12 62 -21 103 -8 41 -17 84 -19 95
-2 11 -13 61 -24 110 -12 50 -25 108 -30 130 -29 132 -111 435 -170 625 -57
189 -206 620 -240 695 -5 11 -19 45 -30 75 -33 83 -37 92 -54 133 -9 20 -22
52 -30 70 -145 348 -387 829 -590 1172 -134 228 -394 629 -461 712 -5 7 -28
37 -50 68 -92 129 -343 456 -365 475 -4 3 -13 15 -21 27 -8 12 -38 48 -66 80
-27 32 -84 96 -124 143 -75 86 -104 120 -214 239 -96 105 -401 407 -524 521
-63 58 -122 112 -130 120 -34 32 -340 289 -411 346 -41 32 -77 61 -80 65 -10
11 -331 250 -373 276 -23 16 -46 32 -52 36 -27 22 -207 144 -307 208 -62 39
-136 87 -164 105 -28 18 -63 38 -77 45 -15 7 -27 15 -27 19 0 4 -8 10 -17 13
-10 4 -36 18 -58 32 -22 13 -47 28 -55 32 -8 3 -38 21 -67 39 -28 18 -53 31
-56 28 -2 -2 -10 2 -17 11 -7 8 -16 15 -21 15 -5 0 -26 10 -47 23 -85 53 -234
127 -244 121 -6 -4 -8 -3 -5 3 8 13 -343 185 -623 305 -63 27 -133 57 -155 66
-21 9 -42 17 -45 18 -3 0 -16 5 -30 11 -90 39 -422 163 -445 167 -5 1 -14 4
-20 7 -10 7 -167 59 -188 63 -7 2 -19 6 -27 9 -8 3 -85 27 -170 52 -85 25
-175 52 -200 60 -158 47 -674 167 -826 191 -20 3 -46 8 -58 10 -33 8 -54 11
-156 28 -52 9 -106 18 -120 20 -14 3 -45 7 -70 10 -25 3 -54 8 -65 10 -11 2
-45 7 -76 10 -31 4 -66 8 -77 11 -11 2 -53 6 -94 10 -40 3 -84 8 -98 10 -14 2
-59 6 -100 10 -41 4 -86 8 -100 10 -14 2 -74 7 -135 10 -60 4 -137 9 -170 12
-70 5 -912 12 -917 8z"/>
</g>
</svg>
