<svg xmlns="http://www.w3.org/2000/svg" viewBox="0 0 138.329 24.571" height="92.866" width="522.817"><path style="line-height:1.25;-inkscape-font-specification:'Montserrat Light, ';text-align:center" d="M1.283 4.64v7.521h9.383v1.157H1.283v7.773H0V3.483h11.773V4.64zm24.643 11.496H15.713l-2.239 4.955h-1.383l8.1-17.608h1.283l8.1 17.608H28.19zm-.478-1.082L20.82 4.891l-4.604 10.163zm17.787-3.044q1.887.352 2.868 1.484 1.006 1.132 1.006 2.943 0 2.24-1.635 3.447-1.635 1.207-4.855 1.207H32.77V3.483h7.346q2.867 0 4.452 1.182 1.61 1.157 1.61 3.32 0 1.51-.805 2.541-.78 1.031-2.138 1.484zm-9.182-7.42v7.018h6.012q2.315 0 3.547-.88 1.258-.906 1.258-2.642 0-1.71-1.258-2.591-1.232-.906-3.547-.906zm6.566 15.394q2.566 0 3.874-.88 1.333-.906 1.333-2.767 0-1.862-1.333-2.742-1.308-.88-3.874-.88h-6.566v7.27zm23.292 1.107l-4.2-5.886q-.931.126-1.711.126h-5.031v5.76h-1.283V3.483H58q3.32 0 5.207 1.584 1.887 1.56 1.887 4.352 0 2.088-1.082 3.522-1.057 1.409-3.044 1.987l4.402 6.163zM58 14.2q2.817 0 4.301-1.233 1.485-1.258 1.485-3.547T62.3 5.898Q60.817 4.64 58 4.64h-5.031v9.559zM69.815 3.483h1.283V21.09h-1.283zM84.68 21.217q-2.591 0-4.679-1.157-2.063-1.157-3.27-3.195-1.182-2.037-1.182-4.578 0-2.54 1.182-4.578Q77.938 5.67 80 4.514q2.088-1.157 4.679-1.157 1.912 0 3.522.629 1.61.603 2.742 1.81l-.805.831q-2.113-2.088-5.409-2.088-2.213 0-4.025 1.006-1.81 1.007-2.842 2.793-1.031 1.76-1.031 3.949 0 2.188 1.03 3.974 1.032 1.761 2.843 2.767 1.812 1.007 4.025 1.007 3.27 0 5.409-2.113l.805.83q-1.132 1.207-2.767 1.836-1.61.629-3.497.629zm20.986-5.081H95.453l-2.239 4.955h-1.383l8.1-17.608h1.283l8.1 17.608h-1.384zm-.478-1.082L100.56 4.891l-4.604 10.163z" font-weight="400" font-size="21.425" font-family="Montserrat Light" letter-spacing="0" word-spacing="0" text-anchor="middle" fill="#597884"/><path style="line-height:1.25;-inkscape-font-specification:'Montserrat Black, ';text-align:center" d="M124.258 16.488v4.603h-14.112v-3.647l6.364-5.887q.83-.78 1.107-1.333.276-.553.276-1.081 0-.655-.452-1.007-.428-.377-1.258-.377-.805 0-1.51.428-.704.427-1.081 1.207l-4.478-2.239q1.006-1.886 2.943-2.968 1.937-1.107 4.68-1.107 2.087 0 3.697.68 1.61.679 2.516 1.936.905 1.258.905 2.893 0 1.46-.629 2.742-.603 1.258-2.39 2.868l-2.515 2.289zm9.544-13.005V21.09h-5.937V7.961h-3.018V3.482z" font-weight="400" font-size="21.425" font-family="Montserrat Black" letter-spacing="0" word-spacing="0" text-anchor="middle" fill="#597884"/><path d="M133.802 24.57v-.66h3.83V.66h-3.83V0h4.527v24.57z" style="line-height:1.25;-inkscape-font-specification:'Montserrat Thin, ';text-align:center" font-weight="400" font-size="9.878" font-family="Montserrat Thin" letter-spacing="0" word-spacing="0" text-anchor="middle" fill="#597884"/></svg>