<svg xmlns="http://www.w3.org/2000/svg" width="505.707" height="120.723" viewBox="0 0 133.802 31.941"><g font-weight="400" font-family="Secular One" letter-spacing="0" word-spacing="0"><path style="line-height:14.70911598px;-inkscape-font-specification:'Secular One'" d="M98.201 0c-1.442 0-2.568.342-3.376 1.026-.808.684-1.212 1.622-1.212 2.816 0 .734.149 1.33.447 1.79.311.46.678.822 1.101 1.083.423.249.982.516 1.679.802.099.037.186.074.261.111.075.025.143.05.205.075l.448.187c.534.211.926.41 1.175.597.249.174.373.428.373.764 0 .41-.187.74-.56.989-.373.248-.858.373-1.454.373-.523 0-1.095-.093-1.717-.28a8.025 8.025 0 01-1.753-.82l-.224 2.499a6.477 6.477 0 001.68.652 8.66 8.66 0 002.07.243c1.467 0 2.61-.335 3.431-1.007.82-.671 1.231-1.61 1.231-2.816 0-.784-.167-1.418-.503-1.903a3.513 3.513 0 00-1.212-1.138 14.114 14.114 0 00-1.791-.802l-.765-.298c-.497-.212-.858-.41-1.082-.597-.224-.187-.335-.448-.335-.783 0-.386.161-.69.484-.915.324-.236.778-.354 1.362-.354.473 0 .97.075 1.492.224.535.15 1.032.355 1.492.616l.41-2.463C100.416.224 99.296 0 98.202 0zm28.438.224c-1.02 0-1.715.006-2.088.018v12.422h2.592V7.815c.36 0 .628.056.802.168.187.1.392.354.616.765l2.107 3.916h3.134a52.871 52.871 0 00-1.549-2.63c-.485-.77-.864-1.336-1.137-1.697a4.7 4.7 0 00-.803-.876c.834-.2 1.48-.616 1.94-1.25.473-.647.71-1.43.71-2.35 0-1.082-.35-1.94-1.045-2.574-.697-.647-1.753-.995-3.17-1.045a76.651 76.651 0 00-2.109-.018zM65.116.242L63.94 12.664h2.406l.783-8.766L70.432 13l2.22-.205 3.282-8.86.858 8.73h2.425L78.079.241h-3.357l-3.078 8.916-3.17-8.916h-3.358zm19.643 0l-4.551 12.422h2.76l.952-2.835h4.886l1.008 2.835h2.797L88.004.242H84.76zm18.647 0v2.35h3.394v10.072h2.724V2.593h3.356V.243h-9.474zm11.347 0v12.422h7.554v-2.35h-4.887V7.35h4.047V5.073h-4.047v-2.48h4.887V.243h-7.554zm12.39 2.183h1.305c.622 0 1.095.13 1.418.391.323.261.485.64.485 1.138 0 .547-.186.982-.56 1.306-.36.323-.858.485-1.492.485h-1.156v-3.32zm-40.817.336l1.678 4.756h-3.3l1.622-4.756zM47.599 16.856a33.74 33.74 0 00-3.32 1.778c.784 1.43 1.742 2.928 2.875 4.497-.854.47-1.49 1.08-1.908 1.83-.401.732-.645 1.656-.732 2.771a56.054 56.054 0 00-.157 3.843h.915c.941 0 1.865-.026 2.772-.078l.025-.732.079-1.752c.052-.784.096-1.325.13-1.62.07-.628.21-1.116.419-1.465.209-.366.531-.671.967-.915l4.288 6.928c.924-.331 2.048-.845 3.373-1.542l-3.53-5.569c1.046-.383 1.83-.915 2.353-1.595.523-.68.828-1.603.915-2.771l.235-3.137-1.49-.026c-.75 0-1.516.026-2.3.078-.14 1.952-.253 3.207-.34 3.765-.07.505-.236.88-.497 1.124-.244.244-.645.436-1.203.575-1.08-1.499-2.37-3.494-3.87-5.987zm12.71.183l-.68 3.138 2.589.548-2.353 10.798h3.738l2.275-10.876h1.882c.697 0 1.238.2 1.621.601.401.401.602.959.602 1.674v5.255h-3.53v3.268h7.112v-8.837c0-1.638-.463-2.91-1.386-3.817-.907-.906-2.188-1.36-3.844-1.36h-5.934l-2.092-.392zm-38.746.105c-.593 0-1.186.087-1.779.261a6.004 6.004 0 00-1.516.627l.837 2.798c.645-.226 1.168-.34 1.569-.34 1.237 0 1.855.784 1.855 2.353 0 1.046-.226 1.97-.68 2.771a4.885 4.885 0 01-1.882 1.883c-.801.436-1.716.653-2.745.653l-.627-10.745-3.425.236v1.595l.653 12.313a34.98 34.98 0 001.648.053c1.168 0 2.257-.105 3.268-.314 1.028-.21 1.917-.506 2.666-.89 1.412-.714 2.536-1.803 3.373-3.267a9.42 9.42 0 001.28-4.785c0-1.638-.4-2.91-1.202-3.816-.801-.924-1.9-1.386-3.293-1.386zM0 17.43v3.27h4.915c.488 0 .871.156 1.15.47.28.296.419.697.419 1.203v9.202l3.582-.235v-9.464c0-1.395-.393-2.484-1.177-3.268-.767-.785-1.84-1.177-3.216-1.177H0zm27.858 0v3.27h1.856l.34 10.928c.227.017.55.026.967.026 3.277 0 5.944-.82 8-2.458a9.227 9.227 0 002.432-3.085 8.794 8.794 0 00.862-3.843c0-1.569-.418-2.763-1.254-3.582-.82-.836-1.988-1.255-3.504-1.255h-9.7zm5.28 3.269h3.609c.627 0 1.107.148 1.438.444.33.296.496.793.496 1.49 0 1.517-.488 2.78-1.464 3.79-.976 1.012-2.24 1.587-3.79 1.726l-.288-7.45z" fill="#a00"/><path style="line-height:14.70911598px;-inkscape-font-specification:'Secular One'" d="M2.052.224A74.93 74.93 0 000 .242v12.422h2.593V8.225h1.212c.858 0 1.623-.173 2.294-.522A3.787 3.787 0 007.685 6.23c.373-.647.559-1.387.559-2.22 0-1.169-.367-2.083-1.1-2.742C6.41.61 5.403.268 4.122.242a73.316 73.316 0 00-2.07-.018zm23.351 0c-1.007 0-1.691.006-2.052.018v12.422h2.593V8.225h1.212c.858 0 1.623-.173 2.294-.522a3.788 3.788 0 001.586-1.473c.373-.647.56-1.387.56-2.22 0-1.169-.368-2.083-1.101-2.742-.734-.659-1.741-1-3.022-1.026-.36-.012-1.05-.018-2.07-.018zm10.2 0c-1.007 0-1.691.006-2.052.018v12.422h2.593V8.225h1.212c.858 0 1.623-.173 2.295-.522a3.788 3.788 0 001.585-1.473c.373-.647.56-1.387.56-2.22 0-1.169-.367-2.083-1.1-2.742-.734-.659-1.742-1-3.022-1.026a73.313 73.313 0 00-2.071-.018zm-25.22.018v7.443c0 1.032.21 1.945.633 2.741a4.617 4.617 0 001.829 1.828c.783.435 1.69.653 2.723.653 1.032 0 1.94-.218 2.723-.653a4.493 4.493 0 001.81-1.828c.434-.796.652-1.71.652-2.741V.242h-2.704V7.48c0 .92-.225 1.653-.672 2.2-.448.535-1.051.803-1.81.803-.758 0-1.361-.268-1.809-.802-.435-.548-.652-1.281-.652-2.201V.242h-2.724zm33.369 0v12.422h7.554v-2.35h-4.887V7.35h4.047V5.073H46.42v-2.48h4.887V.243h-7.554zm9.308 0v2.35h3.395v10.072h2.723V2.593h3.357V.243H53.06zM2.593 2.443h1.23c1.207 0 1.81.547 1.81 1.642 0 .596-.174 1.07-.522 1.418-.336.348-.809.521-1.418.521h-1.1v-3.58zm23.35 0h1.232c1.206 0 1.81.547 1.81 1.642 0 .596-.175 1.07-.523 1.418-.336.348-.808.521-1.418.521h-1.1v-3.58zm10.201 0h1.231c1.206 0 1.81.547 1.81 1.642 0 .596-.175 1.07-.523 1.418-.335.348-.808.521-1.417.521h-1.101v-3.58zm73.474 14.413a33.737 33.737 0 00-3.32 1.778c.784 1.43 1.743 2.928 2.876 4.497-.854.47-1.49 1.08-1.909 1.83-.4.732-.644 1.656-.731 2.771a55.912 55.912 0 00-.158 3.843h.916c.94 0 1.865-.026 2.771-.078l.026-.732.079-1.752a38.96 38.96 0 01.13-1.62c.07-.628.21-1.116.419-1.465.209-.366.531-.671.967-.915l4.287 6.928c.924-.331 2.049-.845 3.373-1.542l-3.53-5.569c1.046-.383 1.83-.915 2.353-1.595.523-.68.829-1.603.916-2.77l.235-3.138-1.49-.026c-.75 0-1.517.026-2.301.078-.14 1.952-.253 3.207-.34 3.765-.07.505-.235.88-.497 1.124-.244.244-.645.436-1.202.575-1.08-1.499-2.371-3.494-3.87-5.987zm-24.585.288c-.593 0-1.185.087-1.778.261a6.004 6.004 0 00-1.516.627l.837 2.798c.645-.226 1.167-.34 1.568-.34 1.238 0 1.856.784 1.856 2.353 0 1.046-.226 1.97-.68 2.771a4.885 4.885 0 01-1.882 1.883c-.801.436-1.716.653-2.745.653l-.627-10.745-3.425.236v1.595l.654 12.313a34.91 34.91 0 001.646.053c1.168 0 2.258-.105 3.268-.315 1.029-.209 1.918-.505 2.667-.888 1.412-.715 2.536-1.804 3.373-3.268a9.42 9.42 0 001.28-4.785c0-1.638-.4-2.91-1.202-3.816-.801-.924-1.9-1.386-3.294-1.386zm11.001.261c-1.202 0-2.1.009-2.692.026l-1.438 6.196v.785l4.523 2.326a31.394 31.394 0 001.202-2.98l-2.065-1.072.497-2.065h2.143c.54 0 .968.157 1.281.47.332.297.532.732.602 1.308a68.65 68.65 0 01.34 5.856H91.25v3.19h12.55v-1.23c0-1.55-.035-3.119-.105-4.705-.07-1.586-.157-2.85-.262-3.79-.156-1.413-.627-2.467-1.411-3.165-.785-.714-1.891-1.089-3.32-1.124a98.86 98.86 0 00-2.668-.026zm30.003 0c-1.203 0-2.1.009-2.693.026l-1.438 6.196v.785l4.523 2.326a31.413 31.413 0 001.202-2.98l-2.065-1.072.497-2.065h2.144c.54 0 .967.157 1.28.47.332.297.532.732.602 1.308a68.65 68.65 0 01.34 5.856h-9.176v3.19h12.549v-1.23c0-1.55-.035-3.119-.105-4.705-.07-1.586-.157-2.85-.261-3.79-.157-1.413-.628-2.467-1.412-3.165-.784-.714-1.891-1.089-3.32-1.124a98.86 98.86 0 00-2.667-.026z" fill="#2f2f2f"/></g></svg>