<svg xmlns="http://www.w3.org/2000/svg" width="156.575" height="156.574" viewBox="0 0 41.427 41.427"><path d="M41.427 20.713c0 11.44-9.274 20.714-20.713 20.714C9.274 41.427 0 32.153 0 20.713S9.274 0 20.714 0s20.713 9.274 20.713 20.713" fill="none"/><path d="M20.714 41.427A20.64 20.64 0 0035.16 35.55c-.323-2.125-.79-3.965-1.491-4.88-.715-.934-3.757-1.914-5.81-2.543-1.242-.897-3.204-1.674-3.204-1.674l-.035.092.026-.068a2.573 2.573 0 01-.087-.614V24.83c.273-.35.514-.716.73-1.088 3.73-1.624 2.636-6.74 2.636-6.74.485.485 1.524.346 1.524.346-.315-.071-.51-.433-.668-.979a6.507 6.507 0 002.744.372c-1.455-.707-2.298-2.258-2.827-3.787-.528-1.53-.849-3.155-1.694-4.534a6.827 6.827 0 00-3.706-2.91 6.83 6.83 0 00-4.706.218c-.907.386-1.652 1.064-2.043 1.97-.787-.082-1.57.31-2.109.89-.539.578-.863 1.325-1.096 2.081-.597 1.934-.658 3.997-.516 6.015.134 1.889.467 3.834 1.533 5.398a5.542 5.542 0 002.133 1.848c.122.2.25.4.389.595v1.316h-.015s.006.285-.086.636l-.01-.024s-1.963.777-3.205 1.674c-2.052.629-5.094 1.61-5.809 2.543-.7.915-1.168 2.755-1.491 4.88a20.64 20.64 0 0014.446 5.876" fill="#2f2f2f"/></svg>