<svg xmlns="http://www.w3.org/2000/svg" width="156.575" height="156.574" viewBox="0 0 41.427 41.427"><path d="M41.427 20.713c0 11.44-9.274 20.714-20.713 20.714C9.274 41.427 0 32.153 0 20.713S9.274 0 20.714 0s20.713 9.273 20.713 20.713" fill="none"/><path d="M36.46 29.97c-1.306-1.756-9.536-4.36-9.897-4.654-.362-.293-1.513-1.851-1.513-1.851h-.08v-1.707a9.705 9.705 0 001.122-1.76c.163-.34.304-1.064.424-1.988 1.356-.622 1.52-2.79 1.578-4.006.027-.59-.253-.646-.569-.53l.035-.07c.301-.486.526-1.02.66-1.575 1.041-3.278-.507-5.248-1.296-5.993a2.513 2.513 0 00-.414-.372 1.942 1.942 0 00-.364-.486c-.654-.623-1.643-.686-2.545-.738-.901-.053-1.902-.181-2.48-.875l.416.642a4.653 4.653 0 01-2.964-2.473l-.076.75a1.891 1.891 0 01-.637-1.118c-1.872 1.14-3.03 3.316-3.039 5.496a5.348 5.348 0 00-1.356 1.91 1.809 1.809 0 00-.194.544 5.12 5.12 0 00-.212 1.247 5.293 5.293 0 00.766 2.928l.046.162c-.29-.085-.533 0-.507.551.057 1.216.22 3.386 1.578 4.007.12.923.261 1.648.426 1.987.239.496.61 1.112 1.089 1.72v1.747h-.08s-1.15 1.558-1.513 1.851c-.36.294-8.591 2.898-9.898 4.653-.49.658-.893 1.559-1.226 2.61 3.745 5.347 9.949 8.848 16.974 8.848 7.024 0 13.228-3.5 16.973-8.848-.333-1.051-.736-1.952-1.226-2.61" fill="#2f2f2f"/></svg>