<svg xmlns="http://www.w3.org/2000/svg" viewBox="0 0 250 250" height="250mm" width="250mm"><g fill="#2f2f2f"><path d="M24.44 136.487V25.96h-4.796v110.528zm165.425 53.966v-76.465h-4.795v76.465z"/><path d="M32.306 0L19.644 25.959l170.221 91.73 8.86-32.043zm198.05 136.487V25.96h-4.796v110.528zM64.93 190.453v-76.465h-4.795v76.465z"/><path d="M51.275 85.646l8.86 32.042 170.22-91.73L217.696 0z"/></g><path style="line-height:14.7091px;-inkscape-font-specification:'Secular One'" d="M19.644 200.08q.852-.029 3.231-.029 2.409 0 3.26.03 3.026.058 4.76 1.615 1.732 1.557 1.732 4.318 0 1.968-.88 3.495-.882 1.498-2.498 2.32-1.586.823-3.613.823h-1.909v6.99h-4.083zm5.816 9.106q1.44 0 2.233-.822.822-.823.822-2.233 0-2.585-2.85-2.585h-1.938v5.64zm18.7 10.839q-2.438 0-4.288-1.028t-2.879-2.879q-.998-1.88-.998-4.318v-11.72h4.288v11.397q0 2.174 1.028 3.466 1.058 1.263 2.85 1.263 1.791 0 2.848-1.263 1.058-1.292 1.058-3.466V200.08h4.259v11.72q0 2.438-1.028 4.318-.999 1.85-2.85 2.879-1.85 1.028-4.288 1.028zm12.258-19.945q.852-.029 3.231-.029 2.409 0 3.26.03 3.026.058 4.759 1.615 1.733 1.557 1.733 4.318 0 1.968-.881 3.495-.882 1.498-2.497 2.32-1.586.823-3.613.823H60.5v6.99h-4.082zm5.816 9.106q1.44 0 2.232-.822.823-.823.823-2.233 0-2.585-2.85-2.585h-1.938v5.64zm10.247-9.106q.852-.029 3.231-.029 2.409 0 3.26.03 3.026.058 4.76 1.615 1.732 1.557 1.732 4.318 0 1.968-.881 3.495-.881 1.498-2.497 2.32-1.586.823-3.613.823h-1.909v6.99h-4.083zm5.816 9.106q1.44 0 2.233-.822.822-.823.822-2.233 0-2.585-2.85-2.585h-1.938v5.64zm10.248-9.106h11.896v3.701h-7.696v3.907h6.374v3.584h-6.374v4.67h7.696v3.7H88.545zm20.005 3.701h-5.346v-3.7h14.921v3.7h-5.287v15.862h-4.288z" fill="#2f2f2f" font-weight="400" font-family="Secular One" letter-spacing="0" word-spacing="0"/><path style="line-height:14.7091px;-inkscape-font-specification:'Secular One'" d="M125.361 205.838l-1.233 13.805h-3.79l1.851-19.563h5.287l4.994 14.04 4.846-14.04h5.287l1.792 19.563h-3.818l-1.352-13.747-5.17 13.952-3.495.324zm27.762-5.758h5.111l7.255 19.563h-4.405l-1.587-4.465h-7.695l-1.498 4.465h-4.348zm5.111 11.456l-2.643-7.49-2.556 7.49zm14.707 8.489q-1.704 0-3.26-.382-1.528-.382-2.644-1.028l.353-3.936q1.321.822 2.76 1.292 1.47.44 2.703.44 1.41 0 2.291-.587t.881-1.556q0-.793-.587-1.205-.588-.44-1.85-.94l-.706-.293q-.147-.059-.323-.118-.176-.088-.411-.176-1.645-.676-2.644-1.263-.998-.617-1.733-1.704-.705-1.087-.705-2.82 0-2.82 1.91-4.435 1.909-1.615 5.316-1.615 2.585 0 5.287 1.057l-.646 3.877q-1.087-.617-2.35-.969-1.233-.352-2.35-.352-1.38 0-2.144.558-.763.528-.763 1.439 0 .793.528 1.234.529.44 1.704.94l1.204.47q1.704.646 2.82 1.262 1.116.617 1.91 1.792.792 1.146.792 2.996 0 2.85-1.938 4.436-1.939 1.586-5.405 1.586zm14.893-16.244h-5.346v-3.7h14.921v3.7h-5.287v15.862h-4.288zm12.523-3.701h11.896v3.701h-7.696v3.907h6.374v3.584h-6.374v4.67h7.696v3.7h-11.896zm15.43 0q.88-.029 3.29-.029 2.437 0 3.318.03 3.349.117 4.994 1.644 1.645 1.498 1.645 4.054 0 2.173-1.116 3.7-1.087 1.499-3.055 1.969.617.5 1.263 1.38.646.852 1.792 2.673 1.204 1.91 2.438 4.142h-4.935l-3.32-6.168q-.528-.97-.969-1.205-.41-.264-1.263-.264v7.637h-4.082zm5.904 8.666q1.498 0 2.35-.764.88-.764.88-2.056 0-1.175-.763-1.792-.764-.617-2.232-.617h-2.057v5.229z" fill="#a00" font-weight="400" font-family="Secular One" letter-spacing="0" word-spacing="0"/><path style="line-height:14.7091px;-inkscape-font-specification:'Secular One'" d="M210.593 244.195h14.451q-.082-4.817-.535-9.223-.164-1.358-.947-2.058-.74-.741-2.017-.741h-3.376l-.783 3.252 3.253 1.688q-.741 2.182-1.894 4.694l-7.123-3.665v-1.235l2.265-9.757q1.4-.042 4.24-.042 2.8 0 4.2.042 3.376.082 5.229 1.77 1.853 1.647 2.223 4.982.247 2.223.412 5.97.165 3.746.165 7.41v1.936h-19.763zm-15.068-5.105q-1.03.576-1.523 1.44-.494.824-.66 2.306-.081.7-.205 2.553l-.124 2.758-.04 1.153q-2.142.124-4.365.124h-1.441q.041-3.541.247-6.053.206-2.635 1.153-4.364.988-1.77 3.005-2.882-2.676-3.705-4.528-7.081 2.264-1.4 5.228-2.8 3.541 5.887 6.094 9.428 1.317-.33 1.894-.906.617-.576.782-1.77.206-1.317.535-5.929 1.853-.123 3.623-.123l2.347.041-.37 4.94q-.206 2.76-1.442 4.365-1.235 1.605-3.705 2.511l5.558 8.77q-3.129 1.647-5.31 2.429zm-32.18 5.105h14.452q-.083-4.817-.536-9.223-.164-1.358-.946-2.058-.742-.741-2.018-.741h-3.376l-.782 3.252 3.252 1.688q-.74 2.182-1.894 4.694l-7.122-3.665v-1.235l2.264-9.757q1.4-.042 4.24-.042 2.8 0 4.2.042 3.376.082 5.23 1.77 1.852 1.647 2.222 4.982.247 2.223.412 5.97.165 3.746.165 7.41v1.936h-19.763zm-19.383 5.27q-.947 0-2.594-.083l-1.03-19.391v-2.512l5.394-.37.988 16.921q2.43 0 4.323-1.03 1.894-1.07 2.965-2.964 1.07-1.893 1.07-4.364 0-3.705-2.923-3.705-.947 0-2.47.535l-1.318-4.405q1.03-.618 2.388-.988 1.4-.412 2.8-.412 3.294 0 5.188 2.182 1.893 2.14 1.893 6.011 0 4.035-2.017 7.534-1.976 3.459-5.311 5.147-1.77.906-4.2 1.4-2.388.494-5.146.494z" fill="#2f2f2f" font-weight="400" font-family="Secular One" letter-spacing="0" word-spacing="0"/><path style="line-height:14.7091px;-inkscape-font-specification:'Secular One'" d="M117.625 232.337l-4.076-.864 1.07-4.94 3.295.617h9.346q3.91 0 6.052 2.14 2.182 2.141 2.182 6.012v13.916h-11.199v-5.147h5.558v-8.275q0-1.688-.947-2.635-.905-.947-2.552-.947h-2.965l-3.582 17.127h-5.887zm-19.769 6.753q-1.03.576-1.523 1.44-.494.824-.66 2.306-.082.7-.205 2.553l-.124 2.758-.04 1.153q-2.142.124-4.365.124h-1.441q.041-3.541.247-6.053.206-2.635 1.153-4.364.988-1.77 3.005-2.882-2.676-3.705-4.528-7.081 2.264-1.4 5.228-2.8 3.541 5.887 6.094 9.428 1.317-.33 1.894-.906.617-.576.782-1.77.206-1.317.535-5.929 1.853-.123 3.623-.123l2.347.041-.37 4.94q-.206 2.76-1.442 4.365-1.235 1.605-3.705 2.511l5.558 8.77q-3.129 1.647-5.311 2.429zm-29.359 10.457q-.988 0-1.524-.041l-.535-17.21h-2.923v-5.146H78.79q3.581 0 5.517 1.976 1.976 1.935 1.976 5.64 0 3.212-1.359 6.053-1.359 2.8-3.829 4.858-4.858 3.87-12.598 3.87zm3.787-5.517q3.665-.33 5.97-2.717 2.306-2.388 2.306-5.97 0-1.647-.782-2.347-.783-.7-2.265-.7h-5.682zm-28.276 5.435q-.947 0-2.594-.083l-1.03-19.391v-2.512l5.394-.37.988 16.921q2.43 0 4.323-1.03 1.894-1.07 2.965-2.964 1.07-1.893 1.07-4.364 0-3.705-2.923-3.705-.947 0-2.47.535l-1.318-4.405q1.03-.618 2.388-.988 1.4-.412 2.8-.412 3.294 0 5.187 2.182 1.894 2.14 1.894 6.011 0 4.035-2.017 7.534-1.976 3.459-5.311 5.147-1.77.906-4.2 1.4-2.388.494-5.146.494zm-14.153-14.534q0-1.194-.659-1.894-.659-.74-1.811-.74h-7.74v-5.147h8.934q3.252 0 5.064 1.852 1.853 1.853 1.853 5.147v14.904l-5.641.37z" fill="#a00" font-weight="400" font-family="Secular One" letter-spacing="0" word-spacing="0"/></svg>