<?xml version="1.0" encoding="UTF-8" standalone="no"?>
<svg
   xmlns:dc="http://purl.org/dc/elements/1.1/"
   xmlns:cc="http://creativecommons.org/ns#"
   xmlns:rdf="http://www.w3.org/1999/02/22-rdf-syntax-ns#"
   xmlns:svg="http://www.w3.org/2000/svg"
   xmlns="http://www.w3.org/2000/svg"
   xmlns:sodipodi="http://sodipodi.sourceforge.net/DTD/sodipodi-0.dtd"
   xmlns:inkscape="http://www.inkscape.org/namespaces/inkscape"
   viewBox="0 0 138.32903 134.41974"
   height="508.04776"
   width="522.81702"
   version="1.1"
   id="svg8"
   sodipodi:docname="squareLogo.svg"
   inkscape:version="0.92.4 (unknown)">
  <metadata
     id="metadata14">
    <rdf:RDF>
      <cc:Work
         rdf:about="">
        <dc:format>image/svg+xml</dc:format>
        <dc:type
           rdf:resource="http://purl.org/dc/dcmitype/StillImage" />
        <dc:title></dc:title>
      </cc:Work>
    </rdf:RDF>
  </metadata>
  <defs
     id="defs12" />
  <sodipodi:namedview
     pagecolor="#ffffff"
     bordercolor="#666666"
     borderopacity="1"
     objecttolerance="10"
     gridtolerance="10"
     guidetolerance="10"
     inkscape:pageopacity="0"
     inkscape:pageshadow="2"
     inkscape:window-width="1880"
     inkscape:window-height="1018"
     id="namedview10"
     showgrid="false"
     inkscape:zoom="0.44744125"
     inkscape:cx="623.94433"
     inkscape:cy="319.64659"
     inkscape:window-x="1920"
     inkscape:window-y="32"
     inkscape:window-maximized="1"
     inkscape:current-layer="svg8"
     fit-margin-top="0"
     fit-margin-left="0"
     fit-margin-right="0"
     fit-margin-bottom="0"
     showguides="true"
     inkscape:guide-bbox="true" />
  <g
     id="g859"
     transform="matrix(0.95834739,0,0,0.95834739,14.828931,4.8626203)">
    <path
       inkscape:export-ydpi="366.50043"
       inkscape:export-xdpi="366.50043"
       inkscape:export-filename="/home/ldco/CURRENT_WORKING_DEV/ldcoRebrand2019/web/app/assets/icons/logoHeader.png"
       d="m -8.1783192,107.23496 v 7.52138 h 9.382857 v 1.15713 h -9.382857 v 7.77293 H -9.461235 V 106.07783 H 2.3113621 v 1.15713 z"
       style="font-style:normal;font-variant:normal;font-weight:normal;font-stretch:normal;font-size:21.42501068px;line-height:1.25;font-family:'Montserrat Light';-inkscape-font-specification:'Montserrat Light, ';text-align:center;letter-spacing:0px;word-spacing:0px;text-anchor:middle;fill:#597884;fill-opacity:1;stroke:none;stroke-width:0.67379761"
       id="path870"
       inkscape:connector-curvature="0" />
    <path
       inkscape:export-ydpi="366.50043"
       inkscape:export-xdpi="366.50043"
       inkscape:export-filename="/home/ldco/CURRENT_WORKING_DEV/ldcoRebrand2019/web/app/assets/icons/logoHeader.png"
       d="M 16.465034,118.73084 H 6.252065 L 4.0132555,123.6864 H 2.6297311 l 8.0999409,-17.60857 h 1.282916 l 8.099941,17.60857 h -1.383536 z m -0.477941,-1.08166 -4.628537,-10.16267 -4.603389,10.16267 z"
       style="font-style:normal;font-variant:normal;font-weight:normal;font-stretch:normal;font-size:21.42501068px;line-height:1.25;font-family:'Montserrat Light';-inkscape-font-specification:'Montserrat Light, ';text-align:center;letter-spacing:0px;word-spacing:0px;text-anchor:middle;fill:#597884;fill-opacity:1;stroke:none;stroke-width:0.67379761"
       id="path872"
       inkscape:connector-curvature="0" />
    <path
       inkscape:export-ydpi="366.50043"
       inkscape:export-xdpi="366.50043"
       inkscape:export-filename="/home/ldco/CURRENT_WORKING_DEV/ldcoRebrand2019/web/app/assets/icons/logoHeader.png"
       d="m 33.773725,114.60541 q 1.886627,0.35217 2.867681,1.48416 1.006204,1.13197 1.006204,2.94314 0,2.23881 -1.635087,3.44625 -1.635076,1.20744 -4.85494,1.20744 h -7.84839 v -17.60857 h 7.345288 q 2.867693,0 4.452458,1.18229 1.609927,1.15714 1.609927,3.32047 0,1.50931 -0.804964,2.54067 -0.779802,1.03136 -2.138177,1.48415 z m -9.181616,-7.42076 v 7.01828 h 6.012062 q 2.314281,0 3.546875,-0.88043 1.257755,-0.90558 1.257755,-2.64129 0,-1.71054 -1.257755,-2.59098 -1.232594,-0.90558 -3.546875,-0.90558 z m 6.565474,15.39493 q 2.565832,0 3.873897,-0.88043 1.333214,-0.90559 1.333214,-2.76706 0,-1.86148 -1.333214,-2.7419 -1.308065,-0.88044 -3.873897,-0.88044 h -6.565474 v 7.26983 z"
       style="font-style:normal;font-variant:normal;font-weight:normal;font-stretch:normal;font-size:21.42501068px;line-height:1.25;font-family:'Montserrat Light';-inkscape-font-specification:'Montserrat Light, ';text-align:center;letter-spacing:0px;word-spacing:0px;text-anchor:middle;fill:#597884;fill-opacity:1;stroke:none;stroke-width:0.67379761"
       id="path874"
       inkscape:connector-curvature="0" />
    <path
       inkscape:export-ydpi="366.50043"
       inkscape:export-xdpi="366.50043"
       inkscape:export-filename="/home/ldco/CURRENT_WORKING_DEV/ldcoRebrand2019/web/app/assets/icons/logoHeader.png"
       d="m 54.450041,123.6864 -4.200907,-5.88629 q -0.930733,0.12577 -1.710547,0.12577 h -5.031019 v 5.76052 h -1.282916 v -17.60857 h 6.313935 q 3.320473,0 5.207111,1.58477 1.886638,1.55962 1.886638,4.35184 0,2.08787 -1.081675,3.52171 -1.056514,1.40869 -3.043773,1.98725 l 4.402148,6.163 z m -5.911454,-6.89249 q 2.817371,0 4.301527,-1.23261 1.484157,-1.25775 1.484157,-3.54686 0,-2.28912 -1.484157,-3.52173 -1.484156,-1.25775 -4.301527,-1.25775 h -5.031019 v 9.55895 z"
       style="font-style:normal;font-variant:normal;font-weight:normal;font-stretch:normal;font-size:21.42501068px;line-height:1.25;font-family:'Montserrat Light';-inkscape-font-specification:'Montserrat Light, ';text-align:center;letter-spacing:0px;word-spacing:0px;text-anchor:middle;fill:#597884;fill-opacity:1;stroke:none;stroke-width:0.67379761"
       id="path876"
       inkscape:connector-curvature="0" />
    <path
       inkscape:export-ydpi="366.50043"
       inkscape:export-xdpi="366.50043"
       inkscape:export-filename="/home/ldco/CURRENT_WORKING_DEV/ldcoRebrand2019/web/app/assets/icons/logoHeader.png"
       d="m 60.354015,106.07783 h 1.282916 v 17.60857 h -1.282916 z"
       style="font-style:normal;font-variant:normal;font-weight:normal;font-stretch:normal;font-size:21.42501068px;line-height:1.25;font-family:'Montserrat Light';-inkscape-font-specification:'Montserrat Light, ';text-align:center;letter-spacing:0px;word-spacing:0px;text-anchor:middle;fill:#597884;fill-opacity:1;stroke:none;stroke-width:0.67379761"
       id="path878"
       inkscape:connector-curvature="0" />
    <path
       inkscape:export-ydpi="366.50043"
       inkscape:export-xdpi="366.50043"
       inkscape:export-filename="/home/ldco/CURRENT_WORKING_DEV/ldcoRebrand2019/web/app/assets/icons/logoHeader.png"
       d="m 75.218734,123.81219 q -2.590981,0 -4.678859,-1.15714 -2.062718,-1.15714 -3.270163,-3.1947 -1.182284,-2.03757 -1.182284,-4.57823 0,-2.54067 1.182284,-4.57823 1.207445,-2.03757 3.270163,-3.1947 2.087878,-1.15713 4.678859,-1.15713 1.911788,0 3.521714,0.62887 1.609926,0.60372 2.741899,1.81116 l -0.804963,0.83013 q -2.113028,-2.08788 -5.40834,-2.08788 -2.21366,0 -4.024827,1.0062 -1.811167,1.00621 -2.84252,2.79222 -1.031365,1.76086 -1.031365,3.94936 0,2.18849 1.031365,3.97451 1.031353,1.76085 2.84252,2.76706 1.811167,1.0062 4.024827,1.0062 3.270163,0 5.40834,-2.11303 l 0.804963,0.83011 q -1.131973,1.20746 -2.76706,1.83633 -1.609926,0.62889 -3.496553,0.62889 z"
       style="font-style:normal;font-variant:normal;font-weight:normal;font-stretch:normal;font-size:21.42501068px;line-height:1.25;font-family:'Montserrat Light';-inkscape-font-specification:'Montserrat Light, ';text-align:center;letter-spacing:0px;word-spacing:0px;text-anchor:middle;fill:#597884;fill-opacity:1;stroke:none;stroke-width:0.67379761"
       id="path880"
       inkscape:connector-curvature="0" />
    <path
       inkscape:export-ydpi="366.50043"
       inkscape:export-xdpi="366.50043"
       inkscape:export-filename="/home/ldco/CURRENT_WORKING_DEV/ldcoRebrand2019/web/app/assets/icons/logoHeader.png"
       d="m 96.204766,118.73084 h -10.21297 l -2.238809,4.95556 h -1.383536 l 8.099953,-17.60857 h 1.282904 l 8.099952,17.60857 h -1.383536 z m -0.477941,-1.08166 -4.62855,-10.16267 -4.603377,10.16267 z"
       style="font-style:normal;font-variant:normal;font-weight:normal;font-stretch:normal;font-size:21.42501068px;line-height:1.25;font-family:'Montserrat Light';-inkscape-font-specification:'Montserrat Light, ';text-align:center;letter-spacing:0px;word-spacing:0px;text-anchor:middle;fill:#597884;fill-opacity:1;stroke:none;stroke-width:0.67379761"
       id="path882"
       inkscape:connector-curvature="0" />
    <g
       id="g838">
      <path
         inkscape:connector-curvature="0"
         id="path884"
         style="font-style:normal;font-variant:normal;font-weight:normal;font-stretch:normal;font-size:21.42501068px;line-height:1.25;font-family:'Montserrat Black';-inkscape-font-specification:'Montserrat Black, ';text-align:center;letter-spacing:0px;word-spacing:0px;text-anchor:middle;fill:#597884;fill-opacity:1;stroke:none;stroke-width:0.67379761"
         d="m 114.79636,119.08302 v 4.60338 h -14.11201 v -3.64749 l 6.36424,-5.88629 q 0.83011,-0.7798 1.10682,-1.33322 0.27671,-0.55341 0.27671,-1.08167 0,-0.65403 -0.4528,-1.00621 -0.42763,-0.37732 -1.25775,-0.37732 -0.80496,0 -1.50931,0.42763 -0.70434,0.42765 -1.08167,1.20745 l -4.47761,-2.23881 q 1.0062,-1.88663 2.94315,-2.9683 1.93694,-1.10683 4.67885,-1.10683 2.08788,0 3.69781,0.6792 1.60992,0.67918 2.51551,1.93693 0.90558,1.25776 0.90558,2.89285 0,1.45899 -0.62888,2.74191 -0.60373,1.25775 -2.38973,2.86768 l -2.51551,2.28911 z"
         inkscape:export-filename="/home/ldco/CURRENT_WORKING_DEV/ldcoRebrand2019/web/app/assets/icons/logoHeader.png"
         inkscape:export-xdpi="366.50043"
         inkscape:export-ydpi="366.50043" />
      <path
         inkscape:connector-curvature="0"
         id="path886"
         style="font-style:normal;font-variant:normal;font-weight:normal;font-stretch:normal;font-size:21.42501068px;line-height:1.25;font-family:'Montserrat Black';-inkscape-font-specification:'Montserrat Black, ';text-align:center;letter-spacing:0px;word-spacing:0px;text-anchor:middle;fill:#597884;fill-opacity:1;stroke:none;stroke-width:0.67379761"
         d="m 124.34076,106.07783 v 17.60857 h -5.9366 v -13.13096 h -3.01861 v -4.47761 z"
         inkscape:export-filename="/home/ldco/CURRENT_WORKING_DEV/ldcoRebrand2019/web/app/assets/icons/logoHeader.png"
         inkscape:export-xdpi="366.50043"
         inkscape:export-ydpi="366.50043" />
    </g>
    <text
       inkscape:export-ydpi="366.50043"
       inkscape:export-xdpi="366.50043"
       inkscape:export-filename="/home/ldco/CURRENT_WORKING_DEV/ldcoRebrand2019/web/app/assets/icons/logoHeader.png"
       xml:space="preserve"
       style="font-style:normal;font-variant:normal;font-weight:normal;font-stretch:normal;font-size:9.61237431px;line-height:1.25;font-family:'Montserrat Thin';-inkscape-font-specification:'Montserrat Thin, ';text-align:center;letter-spacing:0px;word-spacing:0px;text-anchor:middle;fill:#597884;fill-opacity:1;stroke:none;stroke-width:0.2574743"
       x="73.859848"
       y="132.33043"
       id="text890"><tspan
         sodipodi:role="line"
         id="tspan888"
         x="73.859848"
         y="132.33043"
         style="font-style:normal;font-variant:normal;font-weight:normal;font-stretch:normal;font-family:'Montserrat Light';-inkscape-font-specification:'Montserrat Light, ';fill:#597884;fill-opacity:1;stroke-width:0.2574743">digital creative studio</tspan></text>
    <path
       inkscape:export-ydpi="366.50043"
       inkscape:export-xdpi="366.50043"
       inkscape:export-filename="/home/ldco/CURRENT_WORKING_DEV/ldcoRebrand2019/web/app/assets/icons/logoHeader.png"
       inkscape:connector-curvature="0"
       id="path892"
       style="font-style:normal;font-variant:normal;font-weight:normal;font-stretch:normal;font-size:9.8777771px;line-height:1.25;font-family:'Montserrat Thin';-inkscape-font-specification:'Montserrat Thin, ';text-align:center;letter-spacing:0px;word-spacing:0px;text-anchor:middle;fill:#597884;fill-opacity:1;stroke:none;stroke-width:0.93276328"
       d="m 124.34076,135.18951 v -0.6616 h 3.83055 v -31.27124 h -3.83055 v -0.66165 h 4.52702 v 32.59449 z" />
  </g>
  <g
     id="g844"
     transform="matrix(5.6031376,0,0,5.6031376,-558.36936,-592.11366)">
    <path
       inkscape:connector-curvature="0"
       id="path840"
       style="font-style:normal;font-variant:normal;font-weight:normal;font-stretch:normal;font-size:21.42501068px;line-height:1.25;font-family:'Montserrat Black';-inkscape-font-specification:'Montserrat Black, ';text-align:center;letter-spacing:0px;word-spacing:0px;text-anchor:middle;fill:#597884;fill-opacity:1;stroke:none;stroke-width:0.67379761"
       d="m 114.79636,119.08302 v 4.60338 h -14.11201 v -3.64749 l 6.36424,-5.88629 q 0.83011,-0.7798 1.10682,-1.33322 0.27671,-0.55341 0.27671,-1.08167 0,-0.65403 -0.4528,-1.00621 -0.42763,-0.37732 -1.25775,-0.37732 -0.80496,0 -1.50931,0.42763 -0.70434,0.42765 -1.08167,1.20745 l -4.47761,-2.23881 q 1.0062,-1.88663 2.94315,-2.9683 1.93694,-1.10683 4.67885,-1.10683 2.08788,0 3.69781,0.6792 1.60992,0.67918 2.51551,1.93693 0.90558,1.25776 0.90558,2.89285 0,1.45899 -0.62888,2.74191 -0.60373,1.25775 -2.38973,2.86768 l -2.51551,2.28911 z"
       inkscape:export-filename="/home/ldco/CURRENT_WORKING_DEV/ldcoRebrand2019/web/app/assets/icons/logoHeader.png"
       inkscape:export-xdpi="366.50043"
       inkscape:export-ydpi="366.50043" />
    <path
       inkscape:connector-curvature="0"
       id="path842"
       style="font-style:normal;font-variant:normal;font-weight:normal;font-stretch:normal;font-size:21.42501068px;line-height:1.25;font-family:'Montserrat Black';-inkscape-font-specification:'Montserrat Black, ';text-align:center;letter-spacing:0px;word-spacing:0px;text-anchor:middle;fill:#597884;fill-opacity:1;stroke:none;stroke-width:0.67379761"
       d="m 124.34076,106.07783 v 17.60857 h -5.9366 v -13.13096 h -3.01861 v -4.47761 z"
       inkscape:export-filename="/home/ldco/CURRENT_WORKING_DEV/ldcoRebrand2019/web/app/assets/icons/logoHeader.png"
       inkscape:export-xdpi="366.50043"
       inkscape:export-ydpi="366.50043" />
  </g>
</svg>
