<svg xmlns="http://www.w3.org/2000/svg" viewBox="0 0 250 250" height="250mm" width="250mm"><g fill="#f2f2f2"><path d="M24.44 136.487V25.96h-4.796v110.528zm165.425 53.966v-76.465h-4.795v76.465z"/><path d="M32.306 0L19.644 25.959l170.221 91.73 8.86-32.043zm198.05 136.487V25.96h-4.796v110.528zM64.93 190.453v-76.465h-4.795v76.465z"/><path d="M51.275 85.646l8.86 32.042 170.22-91.73L217.696 0z"/></g><path style="line-height:14.7091px;-inkscape-font-specification:'Secular One'" d="M22.876 200.05c-1.587 0-2.664.01-3.232.03v19.563h4.083v-6.99h1.91c1.35 0 2.555-.275 3.612-.824 1.077-.548 1.91-1.321 2.497-2.32.587-1.018.881-2.183.881-3.495 0-1.84-.577-3.28-1.733-4.318-1.155-1.038-2.741-1.577-4.758-1.616-.568-.02-1.655-.03-3.26-.03zm36.773 0c-1.586 0-2.663.01-3.231.03v19.563H60.5v-6.99h1.91c1.35 0 2.554-.275 3.612-.824 1.077-.548 1.91-1.321 2.497-2.32.587-1.018.88-2.183.88-3.495 0-1.84-.577-3.28-1.732-4.318-1.156-1.038-2.742-1.577-4.759-1.616-.568-.02-1.654-.03-3.26-.03zm16.063 0c-1.586 0-2.663.01-3.23.03v19.563h4.082v-6.99h1.91c1.35 0 2.555-.275 3.612-.824 1.077-.548 1.91-1.321 2.497-2.32.587-1.018.881-2.183.881-3.495 0-1.84-.577-3.28-1.733-4.318-1.155-1.038-2.741-1.577-4.758-1.616-.568-.02-1.655-.03-3.26-.03zm-39.717.03v11.72c0 1.626.332 3.065.998 4.318a7.27 7.27 0 002.879 2.878c1.234.686 2.663 1.029 4.288 1.029 1.625 0 3.055-.343 4.289-1.029a7.076 7.076 0 002.85-2.878c.685-1.253 1.027-2.692 1.027-4.317v-11.72h-4.26v11.396c0 1.45-.352 2.605-1.056 3.466-.705.842-1.655 1.263-2.85 1.263-1.194 0-2.144-.42-2.849-1.263-.685-.861-1.028-2.017-1.028-3.466V200.08h-4.288zm52.55 0v19.563h11.896v-3.701h-7.696v-4.67h6.374v-3.584h-6.374v-3.907h7.696v-3.7H88.544zm14.659 0v3.701h5.345v15.862h4.29V203.78h5.286v-3.7h-14.921zm-79.477 3.467h1.939c1.9 0 2.85.86 2.85 2.584 0 .94-.275 1.684-.824 2.233-.528.548-1.272.822-2.232.822h-1.733v-5.64zm36.774 0h1.939c1.9 0 2.849.86 2.849 2.584 0 .94-.274 1.684-.823 2.233-.528.548-1.273.822-2.232.822H60.5v-5.64zm16.063 0h1.939c1.9 0 2.85.86 2.85 2.584 0 .94-.275 1.684-.824 2.233-.528.548-1.272.822-2.232.822h-1.733v-5.64zm115.708 22.697c-1.976.933-3.719 1.866-5.229 2.8 1.236 2.25 2.745 4.61 4.53 7.081-1.346.741-2.347 1.702-3.006 2.882-.632 1.153-1.016 2.608-1.153 4.364-.137 1.675-.22 3.692-.247 6.053h1.441a76.07 76.07 0 004.364-.124l.042-1.153c.027-.631.068-1.55.123-2.758.082-1.236.15-2.087.206-2.553.11-.988.33-1.757.659-2.305.329-.577.837-1.057 1.523-1.442l6.752 10.91c1.455-.52 3.225-1.33 5.311-2.428l-5.558-8.77c1.647-.603 2.882-1.44 3.705-2.511.824-1.07 1.304-2.526 1.441-4.365l.371-4.94-2.347-.041c-1.18 0-2.387.04-3.623.123-.22 3.074-.398 5.05-.535 5.93-.11.795-.37 1.385-.782 1.77-.385.384-1.016.686-1.894.905-1.702-2.36-3.733-5.503-6.094-9.428zm-38.717.453a9.88 9.88 0 00-2.8.412c-.906.247-1.702.576-2.388.988l1.318 4.405c1.015-.357 1.839-.535 2.47-.535 1.949 0 2.923 1.235 2.923 3.705 0 1.647-.357 3.102-1.07 4.365a7.69 7.69 0 01-2.965 2.964c-1.262.686-2.703 1.03-4.323 1.03l-.988-16.922-5.393.37v2.512l1.03 19.391c1.097.055 1.961.083 2.593.083 1.839 0 3.554-.165 5.146-.494 1.62-.33 3.02-.796 4.2-1.4 2.223-1.125 3.993-2.84 5.31-5.147a14.835 14.835 0 002.018-7.534c0-2.58-.631-4.584-1.894-6.01-1.262-1.456-2.991-2.183-5.187-2.183zm17.325.412c-1.894 0-3.308.013-4.241.04l-2.265 9.759v1.235l7.124 3.664a49.47 49.47 0 001.893-4.694l-3.252-1.688.782-3.253h3.376c.85 0 1.523.247 2.017.741.522.467.838 1.153.948 2.06.301 2.936.48 6.01.535 9.222h-14.451v5.023h19.762v-1.935c0-2.443-.055-4.914-.165-7.411-.11-2.498-.247-4.488-.412-5.97-.247-2.223-.987-3.884-2.223-4.982-1.235-1.126-2.978-1.716-5.229-1.77-.933-.028-2.333-.041-4.199-.041zm47.248 0c-1.894 0-3.308.013-4.241.04l-2.265 9.759v1.235l7.123 3.664a49.472 49.472 0 001.894-4.694l-3.252-1.688.782-3.253h3.376c.85 0 1.523.247 2.017.741.522.467.837 1.153.947 2.06.302 2.936.48 6.01.536 9.222h-14.452v5.023h19.762v-1.935a168.4 168.4 0 00-.164-7.411c-.11-2.498-.247-4.488-.412-5.97-.247-2.223-.988-3.884-2.223-4.982-1.235-1.126-2.978-1.716-5.229-1.77-.933-.028-2.333-.041-4.2-.041z" font-weight="400" font-family="Secular One" letter-spacing="0" word-spacing="0" fill="#f2f2f2"/><path style="line-height:14.7091px;-inkscape-font-specification:'Secular One'" d="M125.361 205.838l-1.233 13.805h-3.79l1.851-19.563h5.287l4.994 14.04 4.846-14.04h5.287l1.792 19.563h-3.818l-1.352-13.747-5.17 13.952-3.495.324zm27.762-5.758h5.111l7.255 19.563h-4.405l-1.587-4.465h-7.695l-1.498 4.465h-4.348zm5.111 11.456l-2.643-7.49-2.556 7.49zm14.707 8.489q-1.704 0-3.26-.382-1.528-.382-2.644-1.028l.353-3.936q1.321.822 2.76 1.292 1.47.44 2.703.44 1.41 0 2.291-.587t.881-1.556q0-.793-.587-1.205-.588-.44-1.85-.94l-.706-.293q-.147-.059-.323-.118-.176-.088-.411-.176-1.645-.676-2.644-1.263-.998-.617-1.733-1.704-.705-1.087-.705-2.82 0-2.82 1.91-4.435 1.909-1.615 5.316-1.615 2.585 0 5.287 1.057l-.646 3.877q-1.087-.617-2.35-.969-1.233-.352-2.35-.352-1.38 0-2.144.558-.763.528-.763 1.439 0 .793.528 1.234.529.44 1.704.94l1.204.47q1.704.646 2.82 1.262 1.116.617 1.91 1.792.792 1.146.792 2.996 0 2.85-1.938 4.436-1.939 1.586-5.405 1.586zm14.893-16.244h-5.346v-3.7h14.921v3.7h-5.287v15.862h-4.288zm12.523-3.701h11.896v3.701h-7.696v3.907h6.374v3.584h-6.374v4.67h7.696v3.7h-11.896zm15.43 0q.88-.029 3.29-.029 2.437 0 3.318.03 3.349.117 4.994 1.644 1.645 1.498 1.645 4.054 0 2.173-1.116 3.7-1.087 1.499-3.055 1.969.617.5 1.263 1.38.646.852 1.792 2.673 1.204 1.91 2.438 4.142h-4.935l-3.32-6.168q-.528-.97-.969-1.205-.41-.264-1.263-.264v7.637h-4.082zm5.904 8.666q1.498 0 2.35-.764.88-.764.88-2.056 0-1.175-.763-1.792-.764-.617-2.232-.617h-2.057v5.229zm-104.066 23.591l-4.076-.864 1.07-4.94 3.295.617h9.346q3.91 0 6.052 2.14 2.182 2.141 2.182 6.012v13.916h-11.199v-5.147h5.558v-8.275q0-1.688-.947-2.635-.905-.947-2.552-.947h-2.965l-3.582 17.127h-5.887zm-19.769 6.753q-1.03.576-1.523 1.44-.494.824-.66 2.306-.082.7-.205 2.553l-.124 2.758-.04 1.153q-2.142.124-4.365.124h-1.441q.041-3.541.247-6.053.206-2.635 1.153-4.364.988-1.77 3.005-2.882-2.676-3.705-4.528-7.081 2.264-1.4 5.228-2.8 3.541 5.887 6.094 9.428 1.317-.33 1.894-.906.617-.576.782-1.77.206-1.317.535-5.929 1.853-.123 3.623-.123l2.347.041-.37 4.94q-.206 2.76-1.442 4.365-1.235 1.605-3.705 2.511l5.558 8.77q-3.129 1.647-5.311 2.429zm-29.359 10.457q-.988 0-1.524-.041l-.535-17.21h-2.923v-5.146H78.79q3.581 0 5.517 1.976 1.976 1.935 1.976 5.64 0 3.212-1.359 6.053-1.359 2.8-3.829 4.858-4.858 3.87-12.598 3.87zm3.787-5.517q3.665-.33 5.97-2.717 2.306-2.388 2.306-5.97 0-1.647-.782-2.347-.783-.7-2.265-.7h-5.682zm-28.276 5.435q-.947 0-2.594-.083l-1.03-19.391v-2.512l5.394-.37.988 16.921q2.43 0 4.323-1.03 1.894-1.07 2.965-2.964 1.07-1.893 1.07-4.364 0-3.705-2.923-3.705-.947 0-2.47.535l-1.318-4.405q1.03-.618 2.388-.989 1.4-.411 2.8-.411 3.294 0 5.187 2.182 1.894 2.14 1.894 6.011 0 4.035-2.017 7.534-1.976 3.459-5.311 5.147-1.77.906-4.2 1.4-2.388.494-5.146.494zm-14.153-14.534q0-1.194-.659-1.894-.659-.74-1.811-.74h-7.74v-5.147h8.934q3.252 0 5.064 1.852 1.853 1.853 1.853 5.147v14.904l-5.641.37z" fill="#a00" font-weight="400" font-family="Secular One" letter-spacing="0" word-spacing="0"/></svg>