<svg version="1" xmlns="http://www.w3.org/2000/svg" width="933.333" height="933.333" viewBox="0 0 700.000000 700.000000"><path d="M565.5 121.4c-7.7 4-25.7 13.2-40 20.6-24.9 12.7-32.8 16.8-69 35.5-8.8 4.5-25.4 13.1-37 19-11.5 5.9-25 12.9-30 15.5-4.9 2.6-15.8 8.2-24.2 12.5l-15.2 7.7-16.3-8.2c-9-4.6-18.5-9.5-21.3-11-2.7-1.5-16.2-8.5-30-15.5-13.7-7-30.8-15.8-38-19.5-7.1-3.7-22.4-11.6-34-17.5-11.5-5.9-26.8-13.8-34-17.5-46-23.7-54.4-28-55.4-28s-7.2 12.3-25.7 50.8L89 179v273l2.5.1c1.4.1 3.2.1 4 .1.8 0 2.4 0 3.5-.1 2-.1 2-.8 2-133.6V184.9l8.8 4.7c10 5.4 13.8 7.4 39.2 21.1 10.2 5.5 21.9 11.8 26 14 4.1 2.2 10.4 5.6 14 7.5 6.5 3.6 25.5 13.8 38.5 20.8 3.9 2.1 9.7 5.3 13 7 3.3 1.8 10.3 5.5 15.5 8.3 11.6 6.1 11.9 6.4 8.9 7.7-1.3.6-6.9 3.4-12.4 6.3s-23.3 12.1-39.5 20.5c-42.4 21.8-44.4 22.8-44.8 24-.3 1.1 10.2 40.4 18.9 70.2 2.2 7.5 2.2 8 2.3 98l.1 90.5 5.8.3c5.4.3 5.7.2 5.8-2v-93.5l.1-91.1 36.6-19.8c20.2-10.9 39.4-21.2 42.7-22.9 3.3-1.8 9.2-4.9 13-7 16.9-9.1 31.4-17 37-20 3.3-1.8 9-4.9 12.7-6.8l6.7-3.6 6.3 3.4c3.5 1.9 8.6 4.5 11.3 5.9 2.8 1.4 8.6 4.6 13 7 4.4 2.4 10.7 5.9 14 7.6 17.6 9.4 22 11.8 33 17.8 6.6 3.6 14.7 7.9 18 9.7 3.3 1.8 8.7 4.7 12 6.5 6.3 3.4 14.1 7.6 26.5 14.3 4.1 2.2 9.1 4.9 11.2 6.1l3.6 2v93.1l-.1 93 6 .2 5.9.1-.1-89.9v-90l3.3-11.7c1.7-6.4 4.3-15.8 5.7-20.7 1.3-5 4.8-17.6 7.8-28.1l5.3-19.1-21.5-11.1c-11.9-6.1-29.5-15.1-39.1-20.1-9.6-5-22.5-11.6-28.6-14.8l-11.2-5.7 3.7-1.9c8-4.2 67.4-36.2 75.6-40.7 4.5-2.4 58.1-31.3 79.3-42.7l8.2-4.4V452h12V178.8l-7.2-14.7c-3.9-8-11-22.6-15.7-32.3l-8.6-17.7-14 7.3z"/></svg>