<?xml version="1.0" encoding="UTF-8" standalone="no"?>
<svg
   xmlns:dc="http://purl.org/dc/elements/1.1/"
   xmlns:cc="http://creativecommons.org/ns#"
   xmlns:rdf="http://www.w3.org/1999/02/22-rdf-syntax-ns#"
   xmlns:svg="http://www.w3.org/2000/svg"
   xmlns="http://www.w3.org/2000/svg"
   xmlns:sodipodi="http://sodipodi.sourceforge.net/DTD/sodipodi-0.dtd"
   xmlns:inkscape="http://www.inkscape.org/namespaces/inkscape"
   sodipodi:docname="drawing.svg"
   inkscape:version="1.0.1 (3bc2e813f5, 2020-09-07)"
   id="svg3888"
   version="1.1"
   viewBox="0 0 416.45416 378.88335"
   height="1432"
   width="1574"
   inkscape:export-filename="/mnt/sdb2/CURRENT_WORKING_DEV/danya2020/web/root/SDK/underConstruction/underConstruction.png"
   inkscape:export-xdpi="150"
   inkscape:export-ydpi="150">
  <defs
     id="defs3882">
    <clipPath
       clipPathUnits="userSpaceOnUse"
       id="clipPath2665">
      <path
         id="path2667"
         style="fill:#000000;fill-opacity:0.938442;stroke-width:0.827495"
         d="M -16.930131,-9.965596 H 399.52404 V 19.459005 H -16.930131 Z" />
    </clipPath>
    <filter
       inkscape:collect="always"
       style="color-interpolation-filters:sRGB"
       id="filter1256"
       x="-0.032580844"
       width="1.0651617"
       y="-0.01854701"
       height="1.037094">
      <feGaussianBlur
         inkscape:collect="always"
         stdDeviation="6.9821162"
         id="feGaussianBlur1258" />
    </filter>
    <filter
       inkscape:collect="always"
       style="color-interpolation-filters:sRGB"
       id="filter1534"
       x="-0.011581964"
       width="1.0231639"
       y="-0.1639226"
       height="1.3278452">
      <feGaussianBlur
         inkscape:collect="always"
         stdDeviation="2.0097321"
         id="feGaussianBlur1536" />
    </filter>
  </defs>
  <sodipodi:namedview
     inkscape:window-maximized="1"
     inkscape:window-y="27"
     inkscape:window-x="3840"
     inkscape:window-height="1016"
     inkscape:window-width="1920"
     units="px"
     showgrid="false"
     inkscape:document-rotation="0"
     inkscape:current-layer="layer1"
     inkscape:document-units="mm"
     inkscape:cy="794.08727"
     inkscape:cx="1041.7496"
     inkscape:zoom="0.35000001"
     inkscape:pageshadow="2"
     inkscape:pageopacity="0.0"
     borderopacity="1.0"
     bordercolor="#666666"
     pagecolor="#ffffff"
     id="base"
     inkscape:snap-bbox="true"
     inkscape:bbox-paths="true"
     inkscape:snap-bbox-edge-midpoints="true"
     inkscape:bbox-nodes="true"
     inkscape:snap-bbox-midpoints="true"
     inkscape:object-paths="true"
     inkscape:snap-smooth-nodes="true"
     inkscape:snap-midpoints="true"
     inkscape:snap-page="true"
     inkscape:snap-global="false" />
  <metadata
     id="metadata3885">
    <rdf:RDF>
      <cc:Work
         rdf:about="">
        <dc:format>image/svg+xml</dc:format>
        <dc:type
           rdf:resource="http://purl.org/dc/dcmitype/StillImage" />
        <dc:title />
      </cc:Work>
    </rdf:RDF>
  </metadata>
  <g
     id="layer1"
     inkscape:groupmode="layer"
     inkscape:label="Layer 1">
    <path
       id="path1428"
       style="fill:#000000;fill-opacity:0.938442;stroke-width:0.827495;filter:url(#filter1534)"
       d="M 0,2.0567496 H 416.45417 V 31.481351 H 0 Z"
       transform="matrix(1.0152029,0,0,0.99786813,-3.7289789,0.03574942)" />
    <path
       id="path1020"
       style="fill:#000000;fill-opacity:1;fill-rule:nonzero;stroke:none;stroke-width:1.33333;filter:url(#filter1256)"
       d="M 959.04883,-0.2890625 V 283.59766 331.65039 h -10.84961 c -2.13997,0 -3.96535,1.55269 -4.30664,3.66602 l -0.32031,1.98047 -1.375,8.51562 -1.43165,8.86133 -1.375,8.51367 -0.74023,4.57812 -0.69336,4.28321 -0.11133,0.68945 c -0.0267,0.16575 -0.0429,0.33085 -0.0508,0.49414 -0.002,0.0375 8.5e-4,0.074 0,0.11133 -0.001,0.0623 5.5e-4,0.12381 0.002,0.18555 0.001,0.0624 -0.002,0.12564 0.002,0.1875 0.008,0.12284 0.025,0.24305 0.043,0.36328 7.8e-4,0.005 -8e-4,0.0105 0,0.0156 0.0286,0.18724 0.0671,0.37147 0.11914,0.55078 0,0 0,0.002 0,0.002 0.007,0.0246 0.0217,0.0458 0.0293,0.0703 0.0714,0.22573 0.16129,0.44335 0.26758,0.65234 0.0664,0.13292 0.1454,0.2558 0.22461,0.38086 0.001,0.002 0.003,0.004 0.004,0.006 0.0495,0.0766 0.10019,0.15129 0.15429,0.22461 0.0662,0.0912 0.11841,0.19353 0.19141,0.2793 0.79417,0.93283 1.97698,1.5332 3.32031,1.5332 h 4.62696 7.43945 v 0.51367 6.93164 h 7.13086 l -0.13281,4.77149 -0.10547,2.11328 2.76172,0.54492 c 1.42401,0.28006 2.75081,0.75742 3.96679,1.35742 0.60401,0.31446 1.18185,0.65533 1.72852,1.02735 0.53998,0.384 1.06042,0.77692 1.53906,1.21289 0.47868,0.436 0.92456,0.89305 1.33789,1.37304 0.41069,0.48269 0.77639,0.99448 1.12305,1.50782 0.336,0.52267 0.62715,1.06402 0.89648,1.60937 0.25852,0.552 0.47144,1.11888 0.66211,1.68555 0.18142,0.56931 0.3159,1.14851 0.42774,1.72852 0.10129,0.57732 0.15928,1.1782 0.1914,1.74218 -0.001,0.11603 1.3e-4,0.23163 0.004,0.34766 l 0.004,0.0859 -0.002,0.15039 -0.002,0.31445 v 0.31641 0.0781 c -8.1e-4,-0.0351 -0.005,-0.20145 -0.004,-0.0976 l -0.002,0.0273 -0.008,0.10937 -0.0254,0.43946 c -0.0654,0.58133 -0.14248,1.15668 -0.26758,1.7207 -0.13606,0.56134 -0.28764,1.1169 -0.48633,1.6582 -0.20523,0.53734 -0.43843,1.06612 -0.70508,1.57813 -0.27061,0.50933 -0.57885,0.99921 -0.9082,1.47656 -0.336,0.47199 -0.71223,0.91625 -1.10156,1.34961 -0.39867,0.42667 -0.83068,0.81919 -1.27735,1.19922 -0.45199,0.37455 -0.93624,0.70733 -1.43359,1.02734 -0.40043,0.24921 -0.81861,0.47124 -1.24609,0.67774 -0.14454,-0.34058 -0.41416,-0.62883 -0.78125,-0.78711 -0.71505,-0.30773 -1.53123,-0.007 -1.89453,0.66406 -0.22643,-0.13868 -0.49012,-0.22266 -0.7754,-0.22266 -0.42399,0 -0.80488,0.17733 -1.07617,0.46094 -0.41848,-0.27701 -0.96333,-0.34049 -1.45117,-0.11133 -0.53763,0.25161 -0.8501,0.78187 -0.85547,1.33789 -0.87712,-0.0481 -1.7597,-0.16924 -2.64062,-0.38672 -0.63731,-0.15722 -1.27096,-0.35819 -1.9043,-0.5957 -0.62801,-0.24794 -1.2501,-0.53953 -1.85547,-0.88086 -0.60533,-0.33864 -1.20466,-0.71654 -1.7793,-1.14453 -0.56269,-0.43865 -1.13142,-0.89867 -1.6621,-1.41601 -0.52132,-0.52135 -1.03113,-1.07774 -1.50977,-1.67774 -0.46802,-0.60533 -0.91559,-1.24825 -1.32227,-1.93359 -0.41196,-0.68531 -0.76804,-1.41248 -1.10937,-2.17383 -0.15988,-0.384 -0.31904,-0.77589 -0.46289,-1.17188 -0.15345,-0.39333 -0.27732,-0.82236 -0.41992,-1.23437 -0.11188,0.42535 -0.24655,0.83796 -0.31836,1.2793 -0.096,0.44133 -0.14354,0.88404 -0.19532,1.33203 -0.0385,0.44666 -0.0739,0.90079 -0.0644,1.35547 -0.004,0.456 0.0108,0.91503 0.0527,1.375 0.16252,1.83866 0.65099,3.70043 1.45898,5.45507 0.41201,0.87069 0.8749,1.73753 1.43359,2.54688 0.3041,0.43878 0.62919,0.86725 0.96875,1.28711 0.0782,0.0966 0.16449,0.18765 0.24414,0.2832 0.2127,0.25342 0.42184,0.50809 0.64844,0.75195 0.001,0.001 0.003,0.003 0.004,0.004 0.69537,0.71803 1.45074,1.3927 2.2539,2.01758 0.80535,0.62797 1.68122,1.1693 2.5879,1.66797 0.91258,0.48494 1.87284,0.89444 2.86132,1.23828 0.8335,0.28619 1.6941,0.50152 2.56446,0.67578 -0.10197,0.60473 0.1786,1.21551 0.71875,1.5293 l -9.86914,12.20508 c -4.88743,-2.08646 -9.84072,-4.01297 -14.85743,-5.77149 1.56015,-3.97452 1.35862,-8.59496 -0.96875,-12.56641 -4.02867,-6.86932 -12.865,-9.17891 -19.73437,-5.15039 l -2.38086,1.39454 c -1.03024,-1.91775 -2.08677,-3.82734 -3.19922,-5.72071 C 868.30755,341.45372 781.28636,310.73877 704.25781,336.29688 l -0.4375,-0.7461 c -5.36636,-9.15737 -17.14336,-12.22972 -26.30078,-6.86328 l -30.26172,17.73633 c -9.15745,5.37154 -12.22964,17.14145 -6.86328,26.29883 l 0.4375,0.74609 c -59.94041,54.71855 -75.66488,145.65321 -32.97851,218.48828 1.11307,1.89445 2.26656,3.74933 3.4375,5.58594 l -2.38282,1.39648 c -6.8745,4.02357 -9.17711,12.86107 -5.14843,19.73047 3.48767,5.95898 10.59045,8.47379 16.89843,6.41992 -1.9924,12.46121 -3.02929,25.13222 -3.02929,37.91016 0,55.75442 19.39646,109.53001 54.43945,152.2793 0.80791,-49.93724 0.0737,-103.61947 0,-152.2793 0,-26.93999 5.67379,-53.26546 16.48437,-77.30664 L 873.42969,477.33594 c 43.70951,3.66841 84.90311,22.65311 116.1582,53.9082 34.95091,34.95092 54.57421,82.32777 54.57421,131.75586 0,49.42806 -19.6233,96.80295 -54.57421,131.75391 -4.04281,4.04284 -8.25401,7.87786 -12.61328,11.5039 l 38.21879,38.21875 c 4.285,-3.71569 8.4536,-7.5903 12.4902,-11.62695 45.0397,-45.03965 70.3535,-106.15391 70.3535,-169.84961 0,-63.69574 -25.3138,-124.80992 -70.3535,-169.84961 -9.21,-9.20994 -19.1022,-17.58117 -29.54102,-25.09375 -0.0144,-0.30621 -0.12031,-0.61218 -0.32813,-0.86914 l -30.05273,-37.16211 c 0.59718,-0.28611 0.91157,-0.91847 0.82617,-1.54297 0.91385,-0.15284 1.8232,-0.35497 2.71484,-0.6289 1.03469,-0.32278 2.04868,-0.72581 3.02735,-1.20313 0.97735,-0.48268 1.91576,-1.04271 2.81445,-1.66406 0.89333,-0.63065 1.73524,-1.33396 2.53125,-2.08594 0.78799,-0.76135 1.5116,-1.58906 2.1836,-2.45703 0.66803,-0.87201 1.25056,-1.8088 1.78124,-2.77148 1.04399,-1.93868 1.79344,-4.04303 2.18946,-6.20704 0.20409,-1.08268 0.3098,-2.17818 0.3457,-3.27148 l 0.004,-0.81836 v -0.1543 l 0.002,-0.0488 -0.002,-0.22852 -0.004,-0.0781 -0.0195,-0.3125 v -0.002 l -0.0195,-0.3125 -0.0117,-0.16211 v -0.002 -0.008 l -0.0176,-0.21875 -0.0937,-0.90821 c -0.27742,-2.188 -0.88653,-4.29514 -1.81055,-6.25781 -0.21178,-0.45264 -0.44706,-0.89266 -0.6914,-1.32617 -0.0566,-0.10069 -0.11555,-0.19923 -0.17383,-0.29883 -0.19263,-0.32846 -0.39352,-0.65056 -0.60351,-0.9668 -0.073,-0.11015 -0.1437,-0.22147 -0.21876,-0.33007 -0.26665,-0.38541 -0.54153,-0.76372 -0.83203,-1.12891 0.001,0.002 9.4e-4,0.005 0.002,0.008 -0.34717,-0.43632 -0.70911,-0.85878 -1.08789,-1.26367 -0.72802,-0.77597 -1.52169,-1.48339 -2.34571,-2.13672 -0.83599,-0.63999 -1.71432,-1.21343 -2.625,-1.71875 -1.83065,-0.99602 -3.79617,-1.70203 -5.79883,-2.05273 -0.99998,-0.17726 -2.00133,-0.28674 -3,-0.29883 -0.14664,-0.001 -0.29468,0.003 -0.4414,0.004 v -0.0332 h 0.006 l -0.041,-1.89844 h 6.43555 v -7.44531 h 3.13086 l -0.002,0.002 h 7.13867 l 0.002,-0.002 h 1.79492 c 1.34334,0 2.52794,-0.60036 3.32227,-1.5332 0.39708,-0.46642 0.69554,-1.0168 0.86914,-1.61524 0.0435,-0.14961 0.0802,-0.3018 0.10742,-0.45703 0.0272,-0.15522 0.0466,-0.31286 0.0566,-0.47265 0.0203,-0.31958 0.005,-0.64702 -0.0488,-0.97852 l -0.14453,-0.90039 -0.99414,-6.14062 v -0.006 l -1.0332,-6.39453 -0.99414,-6.14844 -1.03321,-6.39453 -0.48632,-3.00977 -1.36133,-8.42773 c -0.18979,-1.17505 -0.84755,-2.16227 -1.75391,-2.82032 -0.0655,-0.0481 -0.12908,-0.0982 -0.19726,-0.14257 -0.11061,-0.0712 -0.22483,-0.13416 -0.3418,-0.19532 -0.0967,-0.0511 -0.1942,-0.0988 -0.29492,-0.14258 -0.10427,-0.0449 -0.2083,-0.0882 -0.31641,-0.125 -0.13314,-0.0457 -0.2698,-0.0805 -0.4082,-0.11328 -0.0918,-0.0215 -0.18158,-0.0469 -0.27539,-0.0625 -0.23396,-0.0393 -0.47246,-0.0644 -0.7168,-0.0644 h -0.002 -7.87696 -2.97265 V 280.52344 -0.2890625 Z m 5.78515,431.4335925 25.4668,31.49414 c -11.23625,-7.4278 -23.05003,-13.88979 -35.3164,-19.31445 z m -106.82812,98.47852 c -73.63185,0 -133.53711,59.90526 -133.53711,133.53711 0,73.63188 59.90526,133.53906 133.53711,133.53906 73.63192,0 133.53711,-59.90718 133.53711,-133.53906 0,-73.63185 -59.90519,-133.53711 -133.53711,-133.53711 z m 0,53.41601 c 44.17924,0 80.12305,35.9419 80.12305,80.1211 0,44.17923 -35.94381,80.12304 -80.12305,80.12304 -44.1792,0 -80.12109,-35.94381 -80.12109,-80.12304 0,-44.1792 35.94189,-80.1211 80.12109,-80.1211 z m 0.002,53.41797 c -14.75663,0 -26.70703,11.95235 -26.70703,26.70899 0,14.75659 11.9504,26.70703 26.70703,26.70703 14.75615,0 26.70899,-11.95044 26.70899,-26.70703 0,-14.75664 -11.95284,-26.70899 -26.70899,-26.70899 z M 725.49414,794.16406 v 69.29102 c 38.97827,25.7297 84.94393,39.74804 132.33984,39.74804 39.58893,0 78.17836,-9.78193 112.53321,-27.99804 l -40.4043,-40.4043 c -22.6213,9.49739 -47.11123,14.5293 -72.12891,14.5293 -49.42809,0 -96.80494,-19.62526 -131.75586,-54.57617 -0.19577,-0.19616 -0.38903,-0.39312 -0.58398,-0.58985 z"
       transform="matrix(0.26458333,0,0,0.26458333,-13.448422,-1.2171991)" />
    <g
       id="g1018">
      <path
         id="path3113"
         style="fill:#b3b3b3;fill-opacity:1;fill-rule:nonzero;stroke:none;stroke-width:0.352778"
         d="m 232.60454,124.25299 c -0.0871,0 -0.17462,-0.0286 -0.24765,-0.0879 -0.16968,-0.13687 -0.19579,-0.38523 -0.0586,-0.55491 l 8.41975,-10.41224 c 0.13617,-0.16898 0.38453,-0.19579 0.55457,-0.0586 0.16968,0.13688 0.19579,0.38523 0.0586,0.55492 l -8.41975,10.41223 c -0.0776,0.0963 -0.19156,0.14641 -0.30692,0.14641" />
      <path
         id="path3115"
         style="fill:#b3b3b3;fill-opacity:1;fill-rule:nonzero;stroke:none;stroke-width:0.352778"
         d="m 249.44471,124.25299 c -0.11536,0 -0.22931,-0.0501 -0.30692,-0.14641 l -8.41975,-10.41223 c -0.13723,-0.16969 -0.11112,-0.41804 0.0586,-0.55492 0.17003,-0.13723 0.41839,-0.11042 0.55456,0.0586 l 8.41975,10.41224 c 0.13723,0.16968 0.11112,0.41804 -0.0586,0.55491 -0.073,0.0593 -0.16052,0.0879 -0.24765,0.0879" />
      <path
         id="path3117"
         style="fill:#808080;fill-opacity:1;fill-rule:nonzero;stroke:none;stroke-width:0.352778"
         d="m 246.67297,107.73067 -7.1e-4,-0.06 -0.001,-0.0208 -0.005,-0.0829 -0.005,-0.0833 -0.003,-0.043 -0.006,-0.06 -0.024,-0.2406 c -0.0734,-0.57855 -0.23495,-1.13629 -0.47978,-1.65558 -0.24271,-0.51929 -0.56868,-0.99342 -0.95285,-1.40406 -0.19262,-0.20531 -0.40252,-0.39229 -0.62054,-0.56515 -0.22119,-0.16933 -0.45367,-0.32138 -0.69462,-0.45508 -0.48436,-0.26353 -1.00436,-0.45014 -1.53423,-0.54293 -0.26458,-0.0469 -0.52987,-0.0758 -0.7941,-0.079 -0.0388,-3.5e-4 -0.0776,7.1e-4 -0.11642,10e-4 l -0.061,-2.773177 h -1.20826 l -0.0988,3.524597 -0.0279,0.55915 0.73095,0.14394 c 0.37677,0.0741 0.72779,0.20073 1.04952,0.35948 0.15981,0.0832 0.31256,0.17321 0.4572,0.27164 0.14287,0.1016 0.28046,0.20567 0.4071,0.32102 0.12665,0.11536 0.24483,0.23636 0.35419,0.36336 0.10866,0.12771 0.20532,0.26282 0.29704,0.39864 0.0889,0.13829 0.16581,0.28187 0.23707,0.42616 0.0684,0.14605 0.12488,0.29563 0.17533,0.44556 0.048,0.15063 0.0833,0.30409 0.11289,0.45755 0.0268,0.15275 0.0423,0.31186 0.0508,0.46108 -3.5e-4,0.0307 0,0.061 0.001,0.0917 l 0.001,0.0226 -3.5e-4,0.0402 -7e-4,0.0832 v 0.0833 0.0208 0.005 c 0,0.01 -0.001,-0.0631 -7.1e-4,-0.0307 l -7e-4,0.007 -0.002,0.0293 -0.007,0.11606 c -0.0173,0.15381 -0.0374,0.30621 -0.0705,0.45544 -0.036,0.14852 -0.0762,0.29563 -0.12877,0.43885 -0.0543,0.14217 -0.11571,0.28187 -0.18626,0.41734 -0.0716,0.13476 -0.15346,0.26423 -0.2406,0.39053 -0.0889,0.12488 -0.18838,0.24235 -0.29139,0.35701 -0.10548,0.11289 -0.21978,0.21695 -0.33796,0.3175 -0.11959,0.0991 -0.24765,0.18697 -0.37924,0.27164 -0.26529,0.1651 -0.55421,0.29527 -0.86078,0.38805 -0.0769,0.0215 -0.15451,0.0444 -0.23354,0.0603 -0.0878,0.0205 -0.13299,0.0289 -0.21166,0.0466 l -0.16616,0.0176 -0.0413,0.005 -0.0106,0.001 c -0.0286,3.5e-4 0.0335,0 0.0258,0 l -0.004,3.5e-4 -0.0152,0.001 -0.0617,0.005 c -0.0829,0.01 -0.1651,0.0116 -0.24871,0.0162 -0.33232,0.007 -0.67169,-0.0254 -1.00895,-0.10866 -0.16862,-0.0416 -0.33619,-0.0952 -0.50376,-0.15804 -0.16616,-0.0656 -0.33055,-0.14253 -0.49072,-0.23284 -0.16016,-0.0896 -0.31891,-0.18944 -0.47095,-0.30268 -0.14888,-0.11606 -0.29951,-0.23777 -0.43992,-0.37465 -0.13793,-0.13794 -0.2727,-0.2854 -0.39934,-0.44415 -0.12383,-0.16016 -0.24201,-0.3302 -0.34961,-0.51153 -0.109,-0.18132 -0.2032,-0.37394 -0.29351,-0.57538 -0.0423,-0.1016 -0.0847,-0.20496 -0.12276,-0.30973 -0.0406,-0.10407 -0.0734,-0.21767 -0.11113,-0.32668 -0.0296,0.11254 -0.0653,0.22155 -0.0843,0.33832 -0.0254,0.11677 -0.0378,0.23389 -0.0515,0.35242 -0.0102,0.11818 -0.0194,0.23848 -0.0169,0.35878 -0.001,0.12065 0.003,0.24236 0.0141,0.36406 0.043,0.48648 0.17216,0.97861 0.38594,1.44286 0.10901,0.23037 0.23142,0.45967 0.37924,0.67381 0.14816,0.21378 0.31185,0.42051 0.49247,0.61489 0.18415,0.19015 0.38418,0.3683 0.5969,0.53411 0.21308,0.1658 0.4445,0.30868 0.68439,0.44062 0.24165,0.12841 0.49565,0.23706 0.75706,0.32843 0.26247,0.0896 0.53305,0.15734 0.80857,0.20602 0.13758,0.0212 0.27622,0.0437 0.41592,0.0547 l 0.10478,0.009 0.0261,0.002 0.006,3.5e-4 c -0.004,3.5e-4 0.0617,-3.5e-4 0.0363,0 l 0.0102,7.1e-4 0.0416,0.002 0.16686,0.009 c 0.14253,0 0.31962,3.5e-4 0.45156,-0.012 0.14146,-0.008 0.28257,-0.0247 0.42404,-0.043 0.28187,-0.0409 0.56197,-0.10371 0.83643,-0.18767 0.27376,-0.0854 0.54187,-0.19192 0.80116,-0.31821 0.25824,-0.12806 0.50694,-0.27587 0.74472,-0.44062 0.23636,-0.16651 0.45861,-0.35278 0.66957,-0.55174 0.20849,-0.20144 0.3997,-0.42051 0.5775,-0.65053 0.17674,-0.23071 0.33125,-0.47801 0.47166,-0.73307 0.27622,-0.51294 0.47378,-1.06997 0.57891,-1.64253 0.0536,-0.2861 0.0822,-0.57609 0.0917,-0.86501 l 0.001,-0.21696 z" />
      <path
         d="m 241.43701,102.43068 -0.061,-2.764007 h -1.20826 l -0.0773,2.764007 z"
         style="opacity:0.300003;fill:#808080;fill-opacity:1;fill-rule:nonzero;stroke:none;stroke-width:0.352778"
         id="path3119" />
      <path
         d="m 243.12889,99.597813 h -4.91278 v 2.330087 h 4.91278 z"
         style="fill:#b3b3b3;fill-opacity:1;fill-rule:nonzero;stroke:none;stroke-width:0.352778"
         id="path3121" />
      <path
         d="m 246.67212,107.67077 -0.001,-0.0208 -0.005,-0.0833 -0.005,-0.0829 -0.003,-0.043 -0.005,-0.0603 -0.0243,-0.24024 c -0.0734,-0.57891 -0.23495,-1.1363 -0.47943,-1.65559 -0.17992,-0.38453 -0.40605,-0.74401 -0.66675,-1.07174 0.28011,0.67628 0.43639,1.41323 0.43639,2.18123 0,3.17323 -2.64795,5.82118 -5.82119,5.82118 -1.07703,0 -2.09268,-0.3055 -2.9658,-0.83255 0.0759,0.0938 0.15416,0.18591 0.23706,0.27516 0.18415,0.19015 0.38383,0.3683 0.59655,0.53376 0.21308,0.16615 0.4445,0.30903 0.68439,0.44097 0.24165,0.12841 0.49565,0.23706 0.75741,0.32808 0.26212,0.09 0.53305,0.15769 0.80822,0.20638 0.13793,0.0212 0.27658,0.0437 0.41592,0.0547 l 0.10478,0.009 0.0261,0.002 0.007,3.5e-4 c -0.004,3.5e-4 0.0614,-3.5e-4 0.036,0 l 0.0106,7.1e-4 0.0416,0.002 0.16651,0.01 c 0.14288,-3.6e-4 0.31962,3.5e-4 0.45156,-0.012 0.14181,-0.008 0.28257,-0.0247 0.42404,-0.043 0.28187,-0.0409 0.56197,-0.10371 0.83643,-0.18803 0.27376,-0.0854 0.54222,-0.19191 0.80116,-0.3182 0.25859,-0.12771 0.50694,-0.27587 0.74472,-0.44027 0.23636,-0.16686 0.45896,-0.35278 0.66957,-0.55174 0.20849,-0.20144 0.39969,-0.42087 0.57749,-0.65052 0.17675,-0.23072 0.33126,-0.47837 0.47167,-0.73308 0.27622,-0.51294 0.47413,-1.06997 0.57891,-1.64253 0.054,-0.28646 0.0822,-0.57609 0.0917,-0.86536 l 0.001,-0.21661 v -0.054 z"
         style="opacity:0.300003;fill:#808080;fill-opacity:1;fill-rule:nonzero;stroke:none;stroke-width:0.352778"
         id="path3123" />
      <path
         d="m 241.85078,74.221803 h -2.35656 v 19.37843 h 2.35656 z"
         style="fill:#808080;fill-opacity:1;fill-rule:nonzero;stroke:none;stroke-width:0.352778"
         id="path3125" />
      <path
         d="m 238.216,99.597983 v 0.496357 c 1.20721,0.24695 2.47227,0.3549 3.67665,0.16757 0.74542,-0.11571 1.06574,1.02306 0.31433,1.13983 -1.31939,0.20496 -2.67476,0.13476 -3.99098,-0.10654 v 0.63288 h 4.91279 v -2.330097 z"
         style="opacity:0.300003;fill:#b3b3b3;fill-opacity:1;fill-rule:nonzero;stroke:none;stroke-width:0.352778"
         id="path3127" />
      <path
         sodipodi:nodetypes="ccssccccc"
         d="m 239.49415,-0.076639 v 75.111942 c 0.84173,-0.19332 1.85914,0.26847 1.85914,1.38748 v 7.7604 c 0,1.11901 -1.01741,1.5808 -1.85914,1.38748 v 8.02957 h 2.35656 V -0.076639 Z"
         style="fill:#808080;fill-opacity:1;fill-rule:nonzero;stroke:none;stroke-width:0.352778"
         id="path3129" />
      <path
         id="path3131"
         style="fill:#fbb03b;fill-opacity:1;fill-rule:nonzero;stroke:none;stroke-width:0.352778"
         d="m 246.32128,99.958493 h -11.2977 c -0.71085,0 -1.25272,-0.63641 -1.13912,-1.33809 l 1.59949,-9.90106 c 0.0903,-0.55915 0.57327,-0.97014 1.13947,-0.97014 h 8.09802 c 0.56621,0 1.04916,0.41099 1.13947,0.97014 l 1.59949,9.90106 c 0.1136,0.70168 -0.42827,1.33809 -1.13912,1.33809" />
      <path
         d="m 240.33786,83.977583 v 0 c -0.23954,0 -0.43357,-0.19402 -0.43357,-0.43356 v -6.98535 c 0,-0.23954 0.19403,-0.43357 0.43357,-0.43357 0.23953,0 0.43356,0.19403 0.43356,0.43357 v 6.98535 c 0,0.23954 -0.19403,0.43356 -0.43356,0.43356"
         style="opacity:0.300003;fill:#ffffff;fill-opacity:1;fill-rule:nonzero;stroke:none;stroke-width:0.352778"
         id="path3133" />
      <path
         id="path3135"
         style="fill:#333333;fill-opacity:1;fill-rule:nonzero;stroke:none;stroke-width:0.352778"
         d="m 235.39943,89.243323 -0.36407,2.25284 3.7472,-3.74685 h -1.88912 z" />
      <path
         id="path3137"
         style="fill:#333333;fill-opacity:1;fill-rule:nonzero;stroke:none;stroke-width:0.352778"
         d="m 242.63691,87.749313 h -1.88913 l -6.09106,6.09141 -0.36406,2.25284 z" />
      <path
         id="path3139"
         style="fill:#333333;fill-opacity:1;fill-rule:nonzero;stroke:none;stroke-width:0.352778"
         d="m 244.72147,87.749313 h -0.11924 l -10.68846,10.68881 -0.0296,0.18239 c -0.079,0.49036 0.16545,0.94403 0.56056,1.17545 l 11.33758,-11.33757 c -0.17639,-0.42016 -0.58773,-0.70908 -1.06081,-0.70908" />
      <path
         id="path3141"
         style="fill:#333333;fill-opacity:1;fill-rule:nonzero;stroke:none;stroke-width:0.352778"
         d="m 246.34972,91.745403 -0.26282,-1.62631 -9.83933,9.83933 h 1.88913 z" />
      <path
         id="path3143"
         style="fill:#333333;fill-opacity:1;fill-rule:nonzero;stroke:none;stroke-width:0.352778"
         d="m 246.88591,95.063733 -0.26282,-1.62631 -6.5211,6.5211 h 1.88912 z" />
      <path
         id="path3145"
         style="fill:#333333;fill-opacity:1;fill-rule:nonzero;stroke:none;stroke-width:0.352778"
         d="m 247.42209,98.381993 -0.26282,-1.6263 -3.20251,3.20287 h 1.88877 z" />
      <path
         id="path3147"
         style="fill:#cccccc;fill-opacity:1;fill-rule:nonzero;stroke:none;stroke-width:0.352778"
         d="m 238.216,90.277243 c 0,0.48472 -0.39299,0.87771 -0.87771,0.87771 -0.48471,0 -0.87771,-0.39299 -0.87771,-0.87771 0,-0.48472 0.393,-0.87771 0.87771,-0.87771 0.48472,0 0.87771,0.39299 0.87771,0.87771" />
      <path
         id="path3149"
         style="fill:#b3b3b3;fill-opacity:1;fill-rule:nonzero;stroke:none;stroke-width:0.352778"
         d="m 237.91173,90.277243 c 0,0.3168 -0.25682,0.57327 -0.57326,0.57327 -0.3168,0 -0.57362,-0.25647 -0.57362,-0.57327 0,-0.31679 0.25682,-0.57326 0.57362,-0.57326 0.31644,0 0.57326,0.25647 0.57326,0.57326" />
      <path
         d="m 237.93502,89.636913 c 0.27375,0.5207 0.0279,1.32857 -0.74119,1.32857 -0.26811,0 -0.47061,-0.10019 -0.61207,-0.25048 0.15205,0.26176 0.43215,0.43992 0.75671,0.43992 0.48472,0 0.87736,-0.393 0.87736,-0.87771 0,-0.25365 -0.10901,-0.48013 -0.28081,-0.6403"
         style="opacity:0.300003;fill:#cccccc;fill-opacity:1;fill-rule:nonzero;stroke:none;stroke-width:0.352778"
         id="path3151" />
      <path
         id="path3153"
         style="fill:#cccccc;fill-opacity:1;fill-rule:nonzero;stroke:none;stroke-width:0.352778"
         d="m 244.88417,90.277243 c 0,0.48472 -0.39299,0.87771 -0.87771,0.87771 -0.48471,0 -0.87771,-0.39299 -0.87771,-0.87771 0,-0.48472 0.393,-0.87771 0.87771,-0.87771 0.48472,0 0.87771,0.39299 0.87771,0.87771" />
      <path
         d="m 237.61607,89.892433 c 0.0561,0 0.1083,0.006 0.15769,0.0155 -0.10513,-0.12382 -0.26035,-0.2039 -0.43533,-0.2039 -0.31679,0 -0.57361,0.25647 -0.57361,0.57326 0,0.14887 0.0586,0.28364 0.15169,0.38559 -0.0194,-0.37747 0.21202,-0.77047 0.69956,-0.77047"
         style="opacity:0.300003;fill:#b3b3b3;fill-opacity:1;fill-rule:nonzero;stroke:none;stroke-width:0.352778"
         id="path3155" />
      <path
         id="path3157"
         style="fill:#b3b3b3;fill-opacity:1;fill-rule:nonzero;stroke:none;stroke-width:0.352778"
         d="m 244.5799,90.277243 c 0,0.3168 -0.25682,0.57327 -0.57326,0.57327 -0.3168,0 -0.57362,-0.25647 -0.57362,-0.57327 0,-0.31679 0.25682,-0.57326 0.57362,-0.57326 0.31644,0 0.57326,0.25647 0.57326,0.57326" />
      <path
         d="m 244.60322,89.636913 c 0.27376,0.5207 0.0279,1.32857 -0.74118,1.32857 -0.26812,0 -0.47061,-0.10019 -0.61207,-0.25048 0.15204,0.26176 0.43215,0.43992 0.7567,0.43992 0.48472,0 0.87736,-0.393 0.87736,-0.87771 0,-0.25365 -0.10901,-0.48013 -0.28081,-0.6403"
         style="opacity:0.300003;fill:#cccccc;fill-opacity:1;fill-rule:nonzero;stroke:none;stroke-width:0.352778"
         id="path3159" />
      <path
         d="m 244.28424,89.892433 c 0.0561,0 0.1083,0.006 0.15769,0.0155 -0.10513,-0.12382 -0.26035,-0.2039 -0.43533,-0.2039 -0.31679,0 -0.57361,0.25647 -0.57361,0.57326 0,0.14887 0.0586,0.28364 0.15169,0.38559 -0.0194,-0.37747 0.21202,-0.77047 0.69956,-0.77047"
         style="opacity:0.300003;fill:#b3b3b3;fill-opacity:1;fill-rule:nonzero;stroke:none;stroke-width:0.352778"
         id="path3161" />
      <path
         id="path3163"
         style="fill:#cccccc;fill-opacity:1;fill-rule:nonzero;stroke:none;stroke-width:0.352778"
         d="m 237.42687,97.430553 c 0,0.48472 -0.39299,0.87771 -0.87771,0.87771 -0.48471,0 -0.87771,-0.39299 -0.87771,-0.87771 0,-0.48472 0.393,-0.87771 0.87771,-0.87771 0.48472,0 0.87771,0.39299 0.87771,0.87771" />
      <path
         d="m 247.46058,98.620333 -0.60007,-3.71299 c -0.24519,1.08973 -0.72637,2.11455 -1.5106,2.77919 -2.40453,2.03729 -7.8299,2.21191 -10.46304,0.49353 -0.37429,-0.24447 -0.62759,-0.54751 -0.78986,-0.87524 l -0.21273,1.31551 c -0.11324,0.70167 0.42827,1.33809 1.13912,1.33809 h 11.29771 c 0.71085,0 1.25271,-0.63642 1.13947,-1.33809"
         style="opacity:0.5;fill:#fbb03b;fill-opacity:1;fill-rule:nonzero;stroke:none;stroke-width:0.352778"
         id="path3165" />
      <path
         id="path3167"
         style="fill:#b3b3b3;fill-opacity:1;fill-rule:nonzero;stroke:none;stroke-width:0.352778"
         d="m 237.12264,97.430553 c 0,0.3168 -0.25682,0.57327 -0.57326,0.57327 -0.3168,0 -0.57362,-0.25647 -0.57362,-0.57327 0,-0.31679 0.25682,-0.57326 0.57362,-0.57326 0.31644,0 0.57326,0.25647 0.57326,0.57326" />
      <path
         d="m 237.14592,96.790223 c 0.27376,0.5207 0.0279,1.32857 -0.74118,1.32857 -0.26811,0 -0.47061,-0.10019 -0.61207,-0.25048 0.15204,0.26176 0.43215,0.43992 0.75671,0.43992 0.48471,0 0.87735,-0.393 0.87735,-0.87771 0,-0.25365 -0.109,-0.48013 -0.28081,-0.6403"
         style="opacity:0.300003;fill:#cccccc;fill-opacity:1;fill-rule:nonzero;stroke:none;stroke-width:0.352778"
         id="path3169" />
      <path
         id="path3171"
         style="fill:#cccccc;fill-opacity:1;fill-rule:nonzero;stroke:none;stroke-width:0.352778"
         d="m 245.6733,97.430553 c 0,0.48472 -0.39299,0.87771 -0.87771,0.87771 -0.48472,0 -0.87771,-0.39299 -0.87771,-0.87771 0,-0.48472 0.39299,-0.87771 0.87771,-0.87771 0.48472,0 0.87771,0.39299 0.87771,0.87771" />
      <path
         d="m 236.82698,97.045713 c 0.0561,0 0.1083,0.006 0.15769,0.0155 -0.10513,-0.12383 -0.26035,-0.20391 -0.43533,-0.20391 -0.31679,0 -0.57362,0.25647 -0.57362,0.57327 0,0.14887 0.0586,0.28363 0.1517,0.38558 -0.0194,-0.37747 0.21202,-0.77046 0.69956,-0.77046"
         style="opacity:0.300003;fill:#b3b3b3;fill-opacity:1;fill-rule:nonzero;stroke:none;stroke-width:0.352778"
         id="path3173" />
      <path
         id="path3175"
         style="fill:#b3b3b3;fill-opacity:1;fill-rule:nonzero;stroke:none;stroke-width:0.352778"
         d="m 245.369,97.430553 c 0,0.3168 -0.25683,0.57327 -0.57327,0.57327 -0.31679,0 -0.57361,-0.25647 -0.57361,-0.57327 0,-0.31679 0.25682,-0.57326 0.57361,-0.57326 0.31644,0 0.57327,0.25647 0.57327,0.57326" />
      <path
         d="m 245.39231,96.790223 c 0.27376,0.5207 0.0279,1.32857 -0.74118,1.32857 -0.26811,0 -0.47061,-0.10019 -0.61207,-0.25048 0.15205,0.26176 0.43215,0.43992 0.75671,0.43992 0.48471,0 0.87736,-0.393 0.87736,-0.87771 0,-0.25365 -0.10901,-0.48013 -0.28082,-0.6403"
         style="opacity:0.300003;fill:#cccccc;fill-opacity:1;fill-rule:nonzero;stroke:none;stroke-width:0.352778"
         id="path3177" />
      <path
         id="path3179"
         style="fill:#b3b3b3;fill-opacity:1;fill-rule:nonzero;stroke:none;stroke-width:0.352778"
         d="m 241.02461,113.84068 c -0.21802,0 -0.39441,-0.17674 -0.39441,-0.39441 v -2.44898 c 0,-0.21802 0.17639,-0.3944 0.39441,-0.3944 0.21801,0 0.3944,0.17638 0.3944,0.3944 v 2.44898 c 0,0.21767 -0.17639,0.39441 -0.3944,0.39441" />
      <path
         d="m 245.07337,97.045713 c 0.0561,0 0.1083,0.006 0.15769,0.0155 -0.10513,-0.12383 -0.26035,-0.20391 -0.43533,-0.20391 -0.31679,0 -0.57361,0.25647 -0.57361,0.57327 0,0.14887 0.0586,0.28363 0.15169,0.38558 -0.0194,-0.37747 0.21202,-0.77046 0.69956,-0.77046"
         style="opacity:0.300003;fill:#b3b3b3;fill-opacity:1;fill-rule:nonzero;stroke:none;stroke-width:0.352778"
         id="path3181" />
      <path
         id="path3183"
         style="fill:#b3b3b3;fill-opacity:1;fill-rule:nonzero;stroke:none;stroke-width:0.352778"
         d="m 241.62916,113.8168 c -0.14887,0 -0.29104,-0.0843 -0.35807,-0.22755 l -1.1056,-2.36925 c -0.0921,-0.19756 -0.007,-0.43215 0.1905,-0.52458 0.19755,-0.0928 0.4325,-0.007 0.52458,0.19085 l 1.1056,2.36926 c 0.0924,0.1972 0.007,0.43215 -0.1905,0.52422 -0.054,0.0254 -0.11077,0.037 -0.16651,0.037" />
      <path
         id="path3185"
         style="fill:#b3b3b3;fill-opacity:1;fill-rule:nonzero;stroke:none;stroke-width:0.352778"
         d="m 240.47364,113.79948 c -0.0526,0 -0.10513,-0.0106 -0.15593,-0.0325 -0.20038,-0.0861 -0.29245,-0.31821 -0.20637,-0.51858 l 1.10172,-2.55623 c 0.0864,-0.19967 0.31821,-0.2921 0.51823,-0.20602 0.20038,0.0864 0.29246,0.31855 0.20602,0.51858 l -1.10137,2.55623 c -0.0646,0.14922 -0.20955,0.23848 -0.3623,0.23848" />
      <path
         d="m 212.71419,111.86466 c -16.85282,0 -33.02277,6.69786 -44.93951,18.6146 -11.91674,11.91675 -18.6146,28.08649 -18.6146,44.93933 0,14.75169 5.13201,28.98015 14.4038,40.2909 0.21376,-13.21256 0.0195,-27.41632 0,-40.2909 0,-13.07785 5.04265,-25.61262 14.29008,-34.86005 9.24743,-9.24743 21.78238,-14.43965 34.86023,-14.43965 13.07786,0 25.61261,5.19222 34.86004,14.43965 9.24743,9.24743 14.43965,21.7822 14.43965,34.86005 0,13.07784 -5.19222,25.61278 -14.43965,34.86022 -1.06966,1.06967 -2.1838,2.0843 -3.33719,3.04369 l 10.11203,10.11203 c 1.13376,-0.98311 2.23642,-2.00842 3.30444,-3.07645 11.91675,-11.91674 18.61459,-28.08667 18.61459,-44.93949 0,-16.85283 -6.69784,-33.02258 -18.61459,-44.93933 -11.91675,-11.91674 -28.0865,-18.6146 -44.93932,-18.6146 z m 0.0457,28.26499 c -19.48176,0 -35.33169,15.84993 -35.33169,35.33169 0,19.48177 15.84993,35.33187 35.33169,35.33187 19.48178,0 35.3317,-15.8501 35.3317,-35.33187 0,-19.48176 -15.84992,-35.33169 -35.3317,-35.33169 z m 0,14.13286 c 11.68909,0 21.19903,9.50975 21.19903,21.19883 0,11.68909 -9.50994,21.1992 -21.19903,21.1992 -11.68908,0 -21.19901,-9.51011 -21.19901,-21.1992 0,-11.68908 9.50993,-21.19883 21.19901,-21.19883 z m 7.1e-4,14.1334 c -3.90436,0 -7.06671,3.16235 -7.06671,7.06671 0,3.90435 3.16235,7.06653 7.06671,7.06653 3.90423,0 7.06651,-3.16218 7.06651,-7.06653 0,-3.90436 -3.16228,-7.06671 -7.06651,-7.06671 z m -35.06109,41.72659 v 18.33311 c 10.313,6.80765 22.47454,10.51707 35.01471,10.51707 10.47457,0 20.68484,-2.5882 29.77456,-7.40788 l -10.69032,-10.6903 c -5.98522,2.51285 -12.46498,3.84396 -19.08424,3.84396 -13.07785,0 -25.6128,-5.19222 -34.86023,-14.43965 -0.0518,-0.0519 -0.10291,-0.10426 -0.15449,-0.15631 z"
         style="color:#000000;font-style:normal;font-variant:normal;font-weight:normal;font-stretch:normal;font-size:medium;line-height:normal;font-family:sans-serif;font-variant-ligatures:normal;font-variant-position:normal;font-variant-caps:normal;font-variant-numeric:normal;font-variant-alternates:normal;font-variant-east-asian:normal;font-feature-settings:normal;font-variation-settings:normal;text-indent:0;text-align:start;text-decoration:none;text-decoration-line:none;text-decoration-style:solid;text-decoration-color:#000000;letter-spacing:normal;word-spacing:normal;text-transform:none;writing-mode:lr-tb;direction:ltr;text-orientation:mixed;dominant-baseline:auto;baseline-shift:baseline;text-anchor:start;white-space:normal;shape-padding:0;shape-margin:0;inline-size:0;clip-rule:nonzero;display:inline;overflow:visible;visibility:visible;isolation:auto;mix-blend-mode:normal;color-interpolation:sRGB;color-interpolation-filters:linearRGB;solid-color:#000000;solid-opacity:1;vector-effect:none;fill:#000000;fill-opacity:1;fill-rule:nonzero;stroke:none;stroke-width:14.2542;stroke-linecap:butt;stroke-linejoin:round;stroke-miterlimit:4;stroke-dasharray:none;stroke-dashoffset:0;stroke-opacity:1;color-rendering:auto;image-rendering:auto;shape-rendering:auto;text-rendering:auto;enable-background:accumulate;stop-color:#000000"
         id="path942" />
      <path
         id="path3303"
         style="fill:#fbb03b;fill-opacity:1;fill-rule:nonzero;stroke:none;stroke-width:1.36656"
         d="m 227.95375,111.74009 c -0.37032,-0.71468 -0.76116,-1.42394 -1.17386,-2.12635 -12.98096,-22.149173 -41.45867,-29.580549 -63.60648,-16.599577 -22.14918,12.980957 -29.58054,41.458637 -16.59959,63.607827 0.4127,0.70241 0.84043,1.38979 1.28319,2.06215 z" />
      <path
         id="path3305"
         style="fill:#f78f20;fill-opacity:1;fill-rule:nonzero;stroke:none;stroke-width:1.36656"
         d="m 169.59501,139.38067 v 0 c 3.89742,-2.2835 5.20521,-7.29469 2.92032,-11.19211 L 155.30216,98.818482 c -4.49598,4.103768 -8.05448,8.974188 -10.584,14.291478 l 13.68472,23.35037 c 2.28489,3.89741 7.29469,5.20387 11.19213,2.92034" />
      <path
         id="path3307"
         style="fill:#f78f20;fill-opacity:1;fill-rule:nonzero;stroke:none;stroke-width:1.36656"
         d="m 200.48893,121.27392 v 0 c 3.89742,-2.28352 5.20523,-7.29471 2.92034,-11.19213 L 189.72455,86.731383 c -5.87484,-0.390806 -11.86446,0.334686 -17.64091,2.250752 l 17.21317,29.371425 c 2.28489,3.89742 7.2947,5.20387 11.19212,2.92036" />
      <path
         id="path3309"
         style="fill:#f78f20;fill-opacity:1;fill-rule:nonzero;stroke:none;stroke-width:1.36656"
         d="m 228.25604,110.75876 -81.40318,47.71067 c -1.81888,1.06457 -2.42837,3.40275 -1.36245,5.22028 v 0 c 1.06455,1.81887 3.40273,2.42836 5.22161,1.36383 l 81.40317,-47.71067 c 1.81753,-1.06592 2.42839,-3.40274 1.36247,-5.22164 v 0 c -1.06592,-1.81751 -3.4041,-2.42835 -5.22162,-1.36247" />
      <path
         id="path3311"
         style="fill:#fbb03b;fill-opacity:1;fill-rule:nonzero;stroke:none;stroke-width:1.36656"
         d="m 189.04537,127.98097 -8.00668,4.69276 c -2.4229,1.41987 -5.53866,0.60674 -6.95851,-1.81614 L 155.18341,98.616362 c -1.41985,-2.422888 -0.60676,-5.537292 1.81615,-6.958512 l 8.00668,-4.692759 c 2.4229,-1.419871 5.53866,-0.606743 6.95851,1.816145 l 18.89677,32.241244 c 1.41987,2.42289 0.60676,5.53866 -1.81615,6.95849" />
    </g>
    <text
       xml:space="preserve"
       style="font-weight:bold;font-size:14.6731px;line-height:0.75;font-family:Heebo;-inkscape-font-specification:'Heebo Bold';text-align:start;direction:ltr;text-anchor:start;fill:#000000;fill-opacity:0.938442;stroke-width:2.97093"
       x="49.101326"
       y="280.69202"
       id="text2409"><tspan
         sodipodi:role="line"
         id="tspan2407"
         x="49.101326"
         y="280.69202"
         style="text-align:start;direction:ltr;text-anchor:start;stroke-width:2.97093">RIPPLEVFX.STUDIO  IS UNDER CONSTRUCTION</tspan></text>
    <g
       id="g2644"
       transform="translate(16.930131,9.965596)"
       clip-path="url(#clipPath2665)">
      <path
         id="path2476"
         style="fill:#fbb03b;fill-opacity:1;fill-rule:nonzero;stroke:none;stroke-width:8.67487"
         d="M 432.35316,27.513284 H -16.984604 c -28.272275,0 -49.823733,-9.675614 -45.305577,-20.343548 L 1.3254919,-143.36027 c 3.5915097,-8.50099 22.8004151,-14.74944 45.3195821,-14.74944 H 368.72364 c 22.51947,0 41.72762,6.24845 45.31958,14.74944 L 477.6589,7.169736 c 4.51815,10.667934 -17.03346,20.343548 -45.30574,20.343548" />
      <path
         id="path2480"
         style="fill:#333333;fill-opacity:1;fill-rule:nonzero;stroke:none;stroke-width:8.67487"
         d="M -2.0359851,-135.39398 -16.516024,-101.1431 132.51947,-158.10804 H 57.384466 Z" />
      <path
         id="path2482"
         style="fill:#333333;fill-opacity:1;fill-rule:nonzero;stroke:none;stroke-width:8.67487"
         d="m 285.81664,-158.10804 h -75.13546 l -242.25666,92.610276 -14.479587,34.250875 z" />
      <path
         id="path2484"
         style="fill:#333333;fill-opacity:1;fill-rule:nonzero;stroke:none;stroke-width:8.67487"
         d="m 368.7247,-158.10804 h -4.7424 L -61.124394,4.398451 -62.301129,7.171405 c -3.14194,7.455142 6.580335,14.352485 22.294906,17.870867 L 410.91771,-147.3276 c -7.01547,-6.38787 -23.37558,-10.78044 -42.19118,-10.78044" />
      <path
         id="path2486"
         style="fill:#333333;fill-opacity:1;fill-rule:nonzero;stroke:none;stroke-width:8.67487"
         d="M 433.4843,-97.353798 423.03133,-122.07928 31.696611,27.512208 h 75.135459 z" />
      <path
         id="path2488"
         style="fill:#333333;fill-opacity:1;fill-rule:nonzero;stroke:none;stroke-width:8.67487"
         d="M 454.80998,-46.903819 444.35703,-71.629303 184.99651,27.513736 h 75.13502 z" />
      <path
         id="path2490"
         style="fill:#333333;fill-opacity:1;fill-rule:nonzero;stroke:none;stroke-width:8.67487"
         d="m 476.13521,3.545087 -10.4531,-24.725323 -127.37169,48.69458 h 75.12101 z" />
    </g>
    <g
       id="g2045"
       transform="translate(-206.78554,115.5502)"
       style="fill:#000000">
      <path
         inkscape:export-ydpi="366.50043"
         inkscape:export-xdpi="366.50043"
         inkscape:export-filename="/home/ldco/CURRENT_WORKING_DEV/ldcoRebrand2019/web/app/assets/icons/logoHeader.png"
         d="m 357.19678,239.52379 v 6.40608 h 7.99153 v 0.98555 h -7.99153 v 6.62033 h -1.09268 v -14.99751 h 10.02691 v 0.98555 z"
         style="font-style:normal;font-variant:normal;font-weight:normal;font-stretch:normal;font-size:21.425px;line-height:1.25;font-family:'Montserrat Light';-inkscape-font-specification:'Montserrat Light, ';text-align:center;letter-spacing:0px;word-spacing:0px;text-anchor:middle;fill:#000000;fill-opacity:1;stroke:none;stroke-width:0.573884"
         id="path2421"
         inkscape:connector-curvature="0" />
      <path
         inkscape:export-ydpi="366.50043"
         inkscape:export-xdpi="366.50043"
         inkscape:export-filename="/home/ldco/CURRENT_WORKING_DEV/ldcoRebrand2019/web/app/assets/icons/logoHeader.png"
         d="m 378.18592,249.31502 h -8.69855 l -1.90683,4.22073 h -1.17837 l 6.89885,-14.99751 h 1.09268 l 6.89885,14.99751 h -1.17838 z m -0.40707,-0.92127 -3.9422,-8.65571 -3.92078,8.65571 z"
         style="font-style:normal;font-variant:normal;font-weight:normal;font-stretch:normal;font-size:21.425px;line-height:1.25;font-family:'Montserrat Light';-inkscape-font-specification:'Montserrat Light, ';text-align:center;letter-spacing:0px;word-spacing:0px;text-anchor:middle;fill:#000000;fill-opacity:1;stroke:none;stroke-width:0.573884"
         id="path2423"
         inkscape:connector-curvature="0" />
      <path
         inkscape:export-ydpi="366.50043"
         inkscape:export-xdpi="366.50043"
         inkscape:export-filename="/home/ldco/CURRENT_WORKING_DEV/ldcoRebrand2019/web/app/assets/icons/logoHeader.png"
         d="m 392.92801,245.80132 q 1.60687,0.29995 2.44245,1.26408 0.857,0.96412 0.857,2.50672 0,1.90683 -1.39263,2.93523 -1.39262,1.0284 -4.13503,1.0284 h -6.6846 v -14.99751 h 6.2561 q 2.44246,0 3.79223,1.00698 1.3712,0.98555 1.3712,2.8281 0,1.2855 -0.6856,2.16393 -0.66417,0.87842 -1.82112,1.26407 z m -7.82013,-6.32038 v 5.97758 h 5.12057 q 1.97111,0 3.02093,-0.74987 1.07125,-0.7713 1.07125,-2.24963 0,-1.4569 -1.07125,-2.20678 -1.04982,-0.7713 -3.02093,-0.7713 z m 5.59192,13.11211 q 2.18536,0 3.29946,-0.74988 1.13552,-0.7713 1.13552,-2.35675 0,-1.58545 -1.13552,-2.33532 -1.1141,-0.74988 -3.29946,-0.74988 h -5.59192 v 6.19183 z"
         style="font-style:normal;font-variant:normal;font-weight:normal;font-stretch:normal;font-size:21.425px;line-height:1.25;font-family:'Montserrat Light';-inkscape-font-specification:'Montserrat Light, ';text-align:center;letter-spacing:0px;word-spacing:0px;text-anchor:middle;fill:#000000;fill-opacity:1;stroke:none;stroke-width:0.573884"
         id="path2425"
         inkscape:connector-curvature="0" />
      <path
         inkscape:export-ydpi="366.50043"
         inkscape:export-xdpi="366.50043"
         inkscape:export-filename="/home/ldco/CURRENT_WORKING_DEV/ldcoRebrand2019/web/app/assets/icons/logoHeader.png"
         d="m 410.53836,253.53575 -3.57798,-5.01345 q -0.79272,0.10712 -1.4569,0.10712 h -4.285 v 4.90633 h -1.09268 v -14.99751 h 5.37768 q 2.8281,0 4.43498,1.34978 1.60688,1.32835 1.60688,3.70653 0,1.77827 -0.92128,2.9995 -0.89985,1.1998 -2.59243,1.69257 l 3.74938,5.24913 z m -5.03488,-5.87045 q 2.3996,0 3.66368,-1.04983 1.26408,-1.07125 1.26408,-3.02092 0,-1.94968 -1.26408,-2.99951 -1.26408,-1.07125 -3.66368,-1.07125 h -4.285 v 8.14151 z"
         style="font-style:normal;font-variant:normal;font-weight:normal;font-stretch:normal;font-size:21.425px;line-height:1.25;font-family:'Montserrat Light';-inkscape-font-specification:'Montserrat Light, ';text-align:center;letter-spacing:0px;word-spacing:0px;text-anchor:middle;fill:#000000;fill-opacity:1;stroke:none;stroke-width:0.573884"
         id="path2427"
         inkscape:connector-curvature="0" />
      <path
         inkscape:export-ydpi="366.50043"
         inkscape:export-xdpi="366.50043"
         inkscape:export-filename="/home/ldco/CURRENT_WORKING_DEV/ldcoRebrand2019/web/app/assets/icons/logoHeader.png"
         d="m 415.56687,238.53824 h 1.09268 v 14.99751 h -1.09268 z"
         style="font-style:normal;font-variant:normal;font-weight:normal;font-stretch:normal;font-size:21.425px;line-height:1.25;font-family:'Montserrat Light';-inkscape-font-specification:'Montserrat Light, ';text-align:center;letter-spacing:0px;word-spacing:0px;text-anchor:middle;fill:#000000;fill-opacity:1;stroke:none;stroke-width:0.573884"
         id="path2429"
         inkscape:connector-curvature="0" />
      <path
         inkscape:export-ydpi="366.50043"
         inkscape:export-xdpi="366.50043"
         inkscape:export-filename="/home/ldco/CURRENT_WORKING_DEV/ldcoRebrand2019/web/app/assets/icons/logoHeader.png"
         d="m 428.22739,253.64288 q -2.20678,0 -3.98506,-0.98555 -1.75685,-0.98556 -2.78525,-2.72098 -1.00697,-1.73543 -1.00697,-3.89935 0,-2.16393 1.00697,-3.89935 1.0284,-1.73543 2.78525,-2.72098 1.77828,-0.98555 3.98506,-0.98555 1.6283,0 2.9995,0.53562 1.3712,0.5142 2.33532,1.5426 l -0.6856,0.70703 q -1.7997,-1.77828 -4.60637,-1.77828 -1.88541,0 -3.42801,0.857 -1.5426,0.857 -2.42102,2.37818 -0.87843,1.49975 -0.87843,3.36373 0,1.86397 0.87843,3.38515 0.87842,1.49975 2.42102,2.35675 1.5426,0.857 3.42801,0.857 2.78525,0 4.60637,-1.7997 l 0.6856,0.70702 q -0.96412,1.02841 -2.35675,1.56403 -1.3712,0.53563 -2.97807,0.53563 z"
         style="font-style:normal;font-variant:normal;font-weight:normal;font-stretch:normal;font-size:21.425px;line-height:1.25;font-family:'Montserrat Light';-inkscape-font-specification:'Montserrat Light, ';text-align:center;letter-spacing:0px;word-spacing:0px;text-anchor:middle;fill:#000000;fill-opacity:1;stroke:none;stroke-width:0.573884"
         id="path2431"
         inkscape:connector-curvature="0" />
      <path
         inkscape:export-ydpi="366.50043"
         inkscape:export-xdpi="366.50043"
         inkscape:export-filename="/home/ldco/CURRENT_WORKING_DEV/ldcoRebrand2019/web/app/assets/icons/logoHeader.png"
         d="m 446.10153,249.31502 h -8.69855 l -1.90683,4.22073 h -1.17838 l 6.89886,-14.99751 h 1.09267 l 6.89886,14.99751 h -1.17838 z m -0.40707,-0.92127 -3.94221,-8.65571 -3.92077,8.65571 z"
         style="font-style:normal;font-variant:normal;font-weight:normal;font-stretch:normal;font-size:21.425px;line-height:1.25;font-family:'Montserrat Light';-inkscape-font-specification:'Montserrat Light, ';text-align:center;letter-spacing:0px;word-spacing:0px;text-anchor:middle;fill:#000000;fill-opacity:1;stroke:none;stroke-width:0.573884"
         id="path2433"
         inkscape:connector-curvature="0" />
      <path
         inkscape:export-ydpi="366.50043"
         inkscape:export-xdpi="366.50043"
         inkscape:export-filename="/home/ldco/CURRENT_WORKING_DEV/ldcoRebrand2019/web/app/assets/icons/logoHeader.png"
         d="m 461.93629,249.61497 v 3.92078 h -12.01943 v -3.10663 l 5.42053,-5.01345 q 0.70702,-0.66417 0.9427,-1.13552 0.23567,-0.47135 0.23567,-0.92128 0,-0.55705 -0.38565,-0.857 -0.36422,-0.32137 -1.07125,-0.32137 -0.6856,0 -1.2855,0.36422 -0.5999,0.36423 -0.92128,1.0284 l -3.81365,-1.90683 q 0.857,-1.60687 2.50673,-2.52815 1.64972,-0.9427 3.98505,-0.9427 1.77828,0 3.14948,0.57848 1.3712,0.57847 2.1425,1.64972 0.7713,1.07125 0.7713,2.46388 0,1.24265 -0.53563,2.33533 -0.5142,1.07125 -2.03537,2.44245 l -2.1425,1.94967 z"
         style="font-style:normal;font-variant:normal;font-weight:normal;font-stretch:normal;font-size:21.425px;line-height:1.25;font-family:'Montserrat Black';-inkscape-font-specification:'Montserrat Black, ';text-align:center;letter-spacing:0px;word-spacing:0px;text-anchor:middle;fill:#000000;fill-opacity:1;stroke:none;stroke-width:0.573884"
         id="path2435"
         inkscape:connector-curvature="0" />
      <path
         inkscape:export-ydpi="366.50043"
         inkscape:export-xdpi="366.50043"
         inkscape:export-filename="/home/ldco/CURRENT_WORKING_DEV/ldcoRebrand2019/web/app/assets/icons/logoHeader.png"
         d="m 470.06541,238.53824 v 14.99751 h -5.0563 V 242.3519 h -2.571 v -3.81366 z"
         style="font-style:normal;font-variant:normal;font-weight:normal;font-stretch:normal;font-size:21.425px;line-height:1.25;font-family:'Montserrat Black';-inkscape-font-specification:'Montserrat Black, ';text-align:center;letter-spacing:0px;word-spacing:0px;text-anchor:middle;fill:#000000;fill-opacity:1;stroke:none;stroke-width:0.573884"
         id="path2437"
         inkscape:connector-curvature="0" />
      <text
         inkscape:export-ydpi="366.50043"
         inkscape:export-xdpi="366.50043"
         inkscape:export-filename="/home/ldco/CURRENT_WORKING_DEV/ldcoRebrand2019/web/app/assets/icons/logoHeader.png"
         xml:space="preserve"
         style="font-style:normal;font-variant:normal;font-weight:normal;font-stretch:normal;font-size:8.18701px;line-height:1.25;font-family:'Montserrat Thin';-inkscape-font-specification:'Montserrat Thin, ';text-align:center;letter-spacing:0px;word-spacing:0px;text-anchor:middle;fill:#000000;fill-opacity:1;stroke:none;stroke-width:0.219295"
         x="427.07001"
         y="260.89801"
         id="text2441"><tspan
           sodipodi:role="line"
           id="tspan2439"
           x="427.07001"
           y="260.89801"
           style="font-style:normal;font-variant:normal;font-weight:normal;font-stretch:normal;font-family:'Montserrat Light';-inkscape-font-specification:'Montserrat Light, ';fill:#000000;fill-opacity:1;stroke-width:0.219295">digital creative studio</tspan></text>
      <path
         inkscape:export-ydpi="366.50043"
         inkscape:export-xdpi="366.50043"
         inkscape:export-filename="/home/ldco/CURRENT_WORKING_DEV/ldcoRebrand2019/web/app/assets/icons/logoHeader.png"
         inkscape:connector-curvature="0"
         id="path2443"
         style="font-style:normal;font-variant:normal;font-weight:normal;font-stretch:normal;font-size:9.87778px;line-height:1.25;font-family:'Montserrat Thin';-inkscape-font-specification:'Montserrat Thin, ';text-align:center;letter-spacing:0px;word-spacing:0px;text-anchor:middle;fill:#000000;fill-opacity:1;stroke:none;stroke-width:0.794449"
         d="m 470.06541,263.33313 v -0.5635 h 3.26254 v -26.63421 h -3.26254 v -0.56354 h 3.85573 v 27.76125 z" />
    </g>
  </g>
</svg>
