<svg xmlns="http://www.w3.org/2000/svg" viewBox="0 0 138.329 134.42" height="508.048" width="522.817"><g font-weight="400" letter-spacing="0" word-spacing="0" text-anchor="middle" fill="#597884"><path d="M6.991 107.631v7.208h8.992v1.109H6.991v7.45h-1.23v-16.876h11.283v1.109zm23.617 11.017h-9.787l-2.146 4.75h-1.326l7.763-16.876h1.23l7.762 16.875h-1.326zm-.458-1.037l-4.436-9.739-4.411 9.74zm17.046-2.917q1.808.338 2.748 1.423.964 1.085.964 2.82 0 2.146-1.567 3.303t-4.652 1.157h-7.522v-16.875h7.04q2.748 0 4.267 1.133 1.542 1.109 1.542 3.182 0 1.447-.771 2.435-.747.988-2.05 1.422zm-8.8-7.111v6.726h5.762q2.218 0 3.4-.844 1.205-.868 1.205-2.531 0-1.64-1.206-2.483-1.18-.868-3.399-.868zm6.293 14.753q2.459 0 3.712-.843 1.278-.868 1.278-2.652 0-1.784-1.278-2.628-1.253-.844-3.712-.844h-6.292v6.967zm22.322 1.061l-4.026-5.641q-.892.12-1.64.12h-4.82v5.521h-1.23v-16.875h6.05q3.183 0 4.991 1.519 1.808 1.494 1.808 4.17 0 2.001-1.037 3.375-1.012 1.35-2.917 1.905l4.22 5.906zm-5.665-6.605q2.7 0 4.122-1.182 1.422-1.205 1.422-3.399 0-2.193-1.422-3.375-1.422-1.205-4.122-1.205h-4.822v9.16zm11.323-10.27h1.23v16.875h-1.23zm14.246 16.996q-2.483 0-4.484-1.11-1.977-1.108-3.134-3.06-1.133-1.954-1.133-4.388 0-2.435 1.133-4.388 1.157-1.953 3.134-3.062 2-1.108 4.484-1.108 1.832 0 3.375.602 1.543.579 2.627 1.736l-.771.795q-2.025-2-5.183-2-2.122 0-3.857.964-1.736.964-2.724 2.676-.989 1.687-.989 3.785 0 2.097.989 3.809.988 1.687 2.724 2.651 1.735.965 3.857.965 3.134 0 5.183-2.025l.771.795q-1.084 1.157-2.651 1.76-1.543.603-3.351.603zm20.112-4.87h-9.788l-2.146 4.75h-1.326l7.763-16.876h1.23l7.762 16.875h-1.326zm-.459-1.037l-4.435-9.739-4.412 9.74z" style="line-height:1.25;-inkscape-font-specification:'Montserrat Light, ';text-align:center" font-size="21.425" font-family="Montserrat Light" stroke-width=".674"/><path style="line-height:1.25;-inkscape-font-specification:'Montserrat Black, ';text-align:center" d="M124.844 118.986v4.411H111.32v-3.495l6.099-5.642q.795-.747 1.06-1.277.266-.53.266-1.037 0-.627-.434-.964-.41-.362-1.206-.362-.771 0-1.446.41-.675.41-1.037 1.157l-4.29-2.145q.963-1.808 2.82-2.845 1.856-1.06 4.484-1.06 2 0 3.543.65 1.543.651 2.411 1.856.868 1.206.868 2.773 0 1.398-.603 2.628-.578 1.205-2.29 2.748l-2.41 2.194zm9.146-12.464v16.875h-5.689v-12.584h-2.893v-4.291z" font-size="21.425" font-family="Montserrat Black" stroke-width=".674"/><text style="line-height:1.25;-inkscape-font-specification:'Montserrat Thin, ';text-align:center" x="73.86" y="132.33" font-size="9.612" font-family="Montserrat Thin" stroke-width=".257" transform="translate(14.829 4.863) scale(.95835)"><tspan x="73.86" y="132.33" style="-inkscape-font-specification:'Montserrat Light, '" font-family="Montserrat Light">digital creative studio</tspan></text><path style="line-height:1.25;-inkscape-font-specification:'Montserrat Thin, ';text-align:center" d="M133.99 134.421v-.634h3.672v-29.969h-3.671v-.634h4.338v31.237z" font-size="9.878" font-family="Montserrat Thin" stroke-width=".933"/></g><path style="line-height:1.25;-inkscape-font-specification:'Montserrat Black, ';text-align:center" d="M84.85 75.125v25.793H5.78V80.481l35.66-32.982q4.65-4.37 6.201-7.47 1.55-3.1 1.55-6.06 0-3.665-2.536-5.639-2.396-2.114-7.048-2.114-4.51 0-8.457 2.396-3.946 2.396-6.06 6.766L0 22.833q5.638-10.57 16.49-16.631Q27.345 0 42.708 0q11.699 0 20.72 3.805 9.02 3.806 14.094 10.853 5.074 7.048 5.074 16.21 0 8.174-3.523 15.363-3.383 7.047-13.39 16.068L51.587 75.125zm53.479-72.87v98.663h-33.264V27.344H88.152V2.255z" font-weight="400" font-size="21.425" font-family="Montserrat Black" letter-spacing="0" word-spacing="0" text-anchor="middle" fill="#597884" stroke-width=".674"/></svg>