<svg xmlns="http://www.w3.org/2000/svg" width="250mm" height="250mm" viewBox="0 0 250 250"><path fill="none" stroke-width="0" d="M0 0h250v250H0z"/><path d="M58.1 162.253q.54-.019 2.05-.019 1.53 0 2.071.019 1.921.037 3.022 1.025 1.1.989 1.1 2.742 0 1.25-.56 2.22-.559.951-1.585 1.473-1.007.523-2.294.523h-1.212v4.439h-2.593zm3.692 5.782q.914 0 1.418-.523.522-.522.522-1.417 0-1.641-1.81-1.641h-1.23v3.58zm11.875 6.882q-1.548 0-2.723-.653-1.175-.652-1.828-1.827-.634-1.194-.634-2.742v-7.442h2.723v7.237q0 1.38.653 2.2.671.802 1.809.802t1.809-.802q.671-.82.671-2.2v-7.237h2.705v7.442q0 1.548-.653 2.742-.634 1.175-1.809 1.827-1.175.653-2.723.653zm7.783-12.664q.541-.019 2.052-.019 1.53 0 2.07.019 1.922.037 3.022 1.025 1.1.989 1.1 2.742 0 1.25-.559 2.22-.56.951-1.585 1.473-1.008.523-2.295.523h-1.212v4.439H81.45zm3.693 5.782q.914 0 1.418-.523.522-.522.522-1.417 0-1.641-1.809-1.641h-1.231v3.58zm6.507-5.782q.542-.019 2.052-.019 1.53 0 2.07.019 1.922.037 3.022 1.025 1.1.989 1.1 2.742 0 1.25-.559 2.22-.56.951-1.585 1.473-1.007.523-2.294.523h-1.213v4.439h-2.592zm3.694 5.782q.914 0 1.417-.523.522-.522.522-1.417 0-1.641-1.809-1.641h-1.23v3.58zm6.506-5.782h7.555v2.35h-4.887v2.48h4.048v2.276h-4.048v2.966h4.887v2.35h-7.554zm12.704 2.35h-3.395v-2.35h9.475v2.35h-3.357v10.072h-2.723zm10.676 1.305l-.784 8.767h-2.406l1.175-12.422h3.357l3.171 8.915 3.078-8.915h3.357l1.138 12.422h-2.425l-.858-8.73-3.283 8.86-2.22.205zm17.628-3.655h3.246l4.607 12.422h-2.798l-1.007-2.835h-4.887l-.951 2.835h-2.76zm3.246 7.274l-1.679-4.756-1.623 4.756zm9.339 5.39q-1.082 0-2.07-.242-.97-.243-1.68-.653l.224-2.5q.84.523 1.754.821.932.28 1.716.28.895 0 1.454-.373.56-.373.56-.989 0-.503-.373-.764-.373-.28-1.175-.597l-.448-.187q-.093-.037-.205-.074-.112-.056-.261-.112-1.045-.43-1.679-.802-.634-.392-1.1-1.082-.448-.69-.448-1.79 0-1.791 1.213-2.817 1.212-1.026 3.376-1.026 1.64 0 3.357.672l-.41 2.462q-.69-.392-1.493-.616-.783-.224-1.492-.224-.876 0-1.361.355-.485.335-.485.914 0 .503.335.783.336.28 1.082.597l.765.298q1.082.41 1.79.802.71.392 1.213 1.138.504.728.504 1.903 0 1.809-1.231 2.816-1.232 1.007-3.432 1.007zm9.457-10.314h-3.395v-2.35h9.475v2.35h-3.357v10.072h-2.724zm7.952-2.35h7.554v2.35h-4.887v2.48h4.047v2.276h-4.047v2.966h4.887v2.35h-7.554zm9.798 0q.559-.019 2.088-.019 1.549 0 2.108.019 2.126.074 3.171 1.044 1.044.951 1.044 2.574 0 1.38-.708 2.35-.69.951-1.94 1.25.392.317.802.877.41.54 1.138 1.697.764 1.212 1.548 2.63h-3.134l-2.107-3.917q-.336-.616-.616-.765-.261-.168-.802-.168v4.85h-2.593zm3.749 5.502q.95 0 1.492-.485.56-.485.56-1.306 0-.746-.486-1.137-.485-.392-1.417-.392h-1.306v3.32zm-7.047 22.51h9.176q-.052-3.059-.34-5.856-.104-.863-.601-1.307-.47-.47-1.281-.47h-2.144l-.497 2.064 2.066 1.072q-.47 1.386-1.203 2.98l-4.523-2.326v-.784l1.438-6.196q.89-.027 2.693-.027 1.778 0 2.667.027 2.144.052 3.32 1.124 1.176 1.045 1.412 3.163.157 1.412.261 3.791.105 2.38.105 4.706v1.229h-12.55zm-9.569-3.242q-.653.366-.967.915-.314.523-.418 1.464-.053.445-.131 1.621l-.078 1.752-.027.732q-1.36.078-2.77.078h-.916q.026-2.248.157-3.843.13-1.673.732-2.771.627-1.124 1.908-1.83-1.699-2.353-2.875-4.497 1.438-.889 3.32-1.778 2.248 3.739 3.87 5.987.836-.209 1.202-.575.392-.366.497-1.124.13-.837.34-3.765 1.176-.078 2.3-.078l1.49.026-.235 3.137q-.13 1.752-.915 2.772-.784 1.02-2.353 1.594l3.53 5.569q-1.987 1.046-3.373 1.543zm-20.433 3.242h9.176q-.052-3.059-.34-5.856-.105-.863-.601-1.307-.47-.47-1.281-.47h-2.144l-.497 2.064 2.065 1.072q-.47 1.386-1.202 2.98l-4.523-2.326v-.784l1.438-6.196q.889-.027 2.693-.027 1.777 0 2.666.027 2.144.052 3.32 1.124 1.177 1.045 1.412 3.163.157 1.412.262 3.791.104 2.38.104 4.706v1.229H149.35zm-12.31 3.347q-.6 0-1.646-.053l-.654-12.313v-1.595l3.425-.236.627 10.746q1.543 0 2.746-.654 1.202-.68 1.882-1.882.68-1.203.68-2.772 0-2.353-1.857-2.353-.6 0-1.568.34l-.837-2.797q.654-.392 1.517-.628.888-.261 1.777-.261 2.092 0 3.294 1.386 1.203 1.36 1.203 3.817 0 2.562-1.28 4.784-1.256 2.196-3.374 3.268-1.124.575-2.666.889-1.517.314-3.268.314zm-16.723-10.876l-2.588-.55.68-3.137 2.091.393h5.935q2.484 0 3.843 1.359 1.386 1.36 1.386 3.817v8.837h-7.112v-3.268h3.53v-5.255q0-1.072-.601-1.673-.576-.602-1.621-.602h-1.883l-2.274 10.876h-3.739zm-12.553 4.287q-.654.366-.968.915-.314.523-.418 1.464-.052.445-.13 1.621l-.08 1.752-.025.732q-1.36.078-2.772.078h-.915q.026-2.248.157-3.843.13-1.673.732-2.771.628-1.124 1.909-1.83-1.7-2.353-2.876-4.497 1.438-.889 3.32-1.778 2.248 3.739 3.87 5.987.836-.209 1.202-.575.392-.366.497-1.124.13-.837.34-3.765 1.176-.078 2.3-.078l1.49.026-.235 3.137q-.13 1.752-.915 2.772-.784 1.02-2.353 1.594l3.53 5.569q-1.987 1.046-3.373 1.543zm-18.644 6.641q-.627 0-.967-.026l-.34-10.928h-1.856v-3.268h9.7q2.274 0 3.503 1.254 1.255 1.23 1.255 3.582 0 2.04-.863 3.843-.863 1.778-2.432 3.085-3.085 2.458-8 2.458zm2.406-3.503q2.326-.21 3.79-1.726 1.465-1.516 1.465-3.79 0-1.047-.497-1.491-.497-.444-1.438-.444h-3.608zm-17.956 3.451q-.601 0-1.647-.053l-.654-12.313v-1.595l3.425-.236.628 10.746q1.542 0 2.745-.654 1.202-.68 1.882-1.882.68-1.203.68-2.772 0-2.353-1.856-2.353-.602 0-1.569.34l-.837-2.797q.654-.392 1.517-.628.889-.261 1.777-.261 2.092 0 3.295 1.386 1.202 1.36 1.202 3.817 0 2.562-1.28 4.784-1.256 2.196-3.373 3.268-1.125.575-2.667.889-1.516.314-3.268.314zm-8.987-9.229q0-.758-.418-1.203-.419-.47-1.15-.47h-4.916v-3.268h5.673q2.066 0 3.216 1.176 1.177 1.177 1.177 3.268v9.464l-3.582.235z" style="line-height:14.70911598px;-inkscape-font-specification:'Secular One'" fill="#2f2f2f" font-weight="400" font-family="Secular One" letter-spacing="0" word-spacing="0" stroke-width=".588"/><text style="line-height:1;-inkscape-font-specification:'Montserrat Light, ';text-align:end" x="-377.545" y="178.683" font-weight="400" font-size="183.987" font-family="Montserrat Light" letter-spacing="0" word-spacing="0" direction="rtl" text-anchor="end" stroke-width="11.499" transform="translate(397.615 11.881)"><tspan x="-377.545" y="178.683" style="-inkscape-font-specification:PatchSans" font-family="PatchSans">404</tspan></text><path fill="none" stroke-width="0" d="M-46.381 260.315h250v250h-250z"/><path d="M111.853 213.26l-1.796 3.682v15.677h.68v-15.31l9.547 5.144-5.74 2.955 1.256 4.544v10.32h.68v-10.686l8.52-4.591 8.52 4.59v10.688h.68v-10.32l1.257-4.545-5.741-2.955 9.547-5.144v15.31h.68v-15.677l-1.796-3.681L125 220.026z" fill="#2f2f2f" stroke-width="0"/></svg>